<svg width="780" height="529" viewBox="0 0 780 529" fill="none" xmlns="http://www.w3.org/2000/svg">
<path d="M117.436 422.084C116.601 421.877 115.767 421.658 114.933 421.425L114.658 422.446C115.502 422.681 116.346 422.902 117.189 423.111L117.436 422.084" fill="#E8F6EC"/>
<path d="M111.461 420.392C109.824 419.871 108.192 419.305 106.571 418.694L106.21 419.686C107.848 420.303 109.496 420.876 111.151 421.401L111.461 420.392ZM103.203 417.352C101.613 416.685 100.037 415.975 98.4794 415.221L98.033 416.176C99.6072 416.938 101.2 417.656 102.806 418.33L103.203 417.352ZM95.2424 413.579C93.7157 412.767 92.2102 411.913 90.7306 411.018L90.1989 411.927C91.6951 412.833 93.2173 413.696 94.761 414.516L95.2424 413.579ZM87.6602 409.075C86.2139 408.118 84.7973 407.119 83.4157 406.082L82.7978 406.932C84.1969 407.984 85.6301 408.993 87.0931 409.961L87.6602 409.075ZM80.5553 403.833C79.2134 402.729 77.9098 401.585 76.6492 400.401L75.9439 401.178C77.2216 402.379 78.5423 403.538 79.9016 404.655L80.5553 403.833ZM74.0557 397.844C72.8471 396.593 71.686 395.302 70.5774 393.972L69.7844 394.656C70.9097 396.006 72.0882 397.316 73.3138 398.586L74.0557 397.844ZM68.3166 391.111C67.2539 389.69 66.2699 388.258 65.3623 386.817L64.4865 387.389C65.4095 388.854 66.4097 390.309 67.4891 391.752L68.3166 391.111ZM63.509 383.673C62.6572 382.122 61.8897 380.562 61.2036 378.994L60.2533 379.424C60.9525 381.022 61.7342 382.611 62.6015 384.189L63.509 383.673ZM59.8483 375.599C59.2487 373.942 58.7364 372.276 58.3074 370.607L57.3012 370.874C57.7387 372.577 58.2611 374.275 58.8721 375.965L59.8483 375.599ZM57.5169 367.033C57.1959 365.308 56.9607 363.58 56.8076 361.851L55.7721 361.946C55.9281 363.709 56.1677 365.47 56.4947 367.23L57.5169 367.033ZM56.6044 358.193C56.5947 357.758 56.5898 357.324 56.5898 356.89C56.5898 355.58 56.6345 354.27 56.7226 352.964L55.6851 352.892C55.5953 354.222 55.5498 355.555 55.5498 356.89C55.5498 357.332 55.5547 357.774 55.5648 358.218L56.6044 358.193ZM57.0793 349.322C57.3003 347.597 57.594 345.878 57.9572 344.165L56.9408 343.942C56.5715 345.682 56.2729 347.43 56.0479 349.184L57.0793 349.322ZM58.8144 340.601C59.2653 338.924 59.7813 337.254 60.3577 335.598L59.3775 335.244C58.7925 336.925 58.2692 338.619 57.8114 340.323L58.8144 340.601ZM61.6443 332.165C62.2919 330.554 62.9952 328.955 63.7511 327.372L62.816 326.909C62.0502 328.513 61.3376 330.132 60.6816 331.764L61.6443 332.165ZM65.3997 324.099C66.2126 322.565 67.0738 321.047 67.9802 319.547L67.0946 318.992C66.1781 320.509 65.3067 322.045 64.4844 323.598L65.3997 324.099ZM69.9331 316.449C70.8853 314.998 71.8786 313.567 72.9101 312.157L72.076 311.525C71.0341 312.949 70.0301 314.395 69.0681 315.862L69.9331 316.449ZM75.1172 309.246C76.1902 307.88 77.298 306.536 78.4379 305.217L77.6567 304.519C76.5062 305.85 75.3878 307.206 74.3047 308.586L75.1172 309.246ZM80.8706 302.491C82.0491 301.212 83.2573 299.958 84.4914 298.733L83.7651 297.975C82.5199 299.212 81.3007 300.476 80.1117 301.768L80.8706 302.491ZM87.1239 296.198C88.3972 295.01 89.6947 293.85 91.0134 292.721L90.3438 291.912C89.0138 293.049 87.7048 294.219 86.4203 295.419L87.1239 296.198ZM93.8263 290.388C95.1843 289.296 96.5619 288.238 97.955 287.215L97.3464 286.357C95.9408 287.39 94.5514 288.457 93.1816 289.559L93.8263 290.388ZM100.925 285.106C102.362 284.118 103.814 283.168 105.276 282.26L104.734 281.357C103.258 282.274 101.793 283.233 100.342 284.23L100.925 285.106ZM108.396 280.391C109.909 279.519 111.431 278.692 112.956 277.911L112.489 276.966C110.947 277.755 109.411 278.59 107.883 279.471L108.396 280.391ZM116.219 276.317C117.342 275.793 118.467 275.296 119.593 274.825C120.057 274.631 120.519 274.437 120.981 274.241L120.581 273.264C120.121 273.459 119.659 273.654 119.197 273.846C118.06 274.322 116.922 274.826 115.785 275.355L116.219 276.317ZM124.337 272.788C125.939 272.081 127.524 271.357 129.088 270.61L128.646 269.652C127.093 270.394 125.517 271.114 123.922 271.818L124.337 272.788ZM132.372 268.991C133.938 268.193 135.478 267.368 136.986 266.51L136.478 265.587C134.986 266.436 133.46 267.254 131.906 268.045L132.372 268.991ZM140.142 264.632C141.639 263.7 143.099 262.729 144.515 261.711L143.915 260.847C142.518 261.85 141.078 262.808 139.599 263.73L140.142 264.632ZM147.451 259.481C148.825 258.377 150.15 257.221 151.42 256.004L150.706 255.234C149.46 256.427 148.158 257.565 146.806 258.65L147.451 259.481ZM154.006 253.357C155.19 252.06 156.314 250.699 157.374 249.268L156.543 248.632C155.506 250.033 154.405 251.366 153.244 252.637L154.006 253.357ZM159.471 246.202C160.402 244.727 161.268 243.183 162.063 241.564L161.133 241.091C160.354 242.677 159.507 244.187 158.596 245.631L159.471 246.202ZM163.584 238.165C164.234 236.56 164.819 234.888 165.337 233.141L164.342 232.836C163.833 234.549 163.259 236.19 162.622 237.762L163.584 238.165ZM166.278 229.528C166.661 227.77 166.924 226.008 167.081 224.242L166.045 224.147C165.892 225.869 165.636 227.587 165.262 229.299L166.278 229.528ZM167.261 220.504C167.262 220.363 167.263 220.223 167.263 220.082C167.263 218.448 167.182 216.813 167.032 215.178L165.998 215.275C166.144 216.882 166.223 218.483 166.223 220.082C166.223 220.219 166.222 220.357 166.221 220.496L167.261 220.504ZM166.58 211.476C166.317 209.735 165.984 207.994 165.596 206.255L164.582 206.489C164.965 208.207 165.292 209.923 165.552 211.637L166.58 211.476ZM164.716 202.645C164.268 200.945 163.776 199.247 163.253 197.553L162.261 197.869C162.78 199.551 163.268 201.236 163.712 202.919L164.716 202.645ZM162.12 194.024C161.566 192.354 160.989 190.687 160.402 189.024L159.424 189.382C160.009 191.04 160.583 192.7 161.135 194.363L162.12 194.024ZM159.161 185.542C158.564 183.88 157.965 182.224 157.377 180.575L156.399 180.935C156.988 182.587 157.587 184.244 158.184 185.905L159.161 185.542ZM156.153 177.094C155.574 175.421 155.016 173.755 154.491 172.101L153.501 172.425C154.029 174.092 154.591 175.766 155.171 177.446L156.153 177.094ZM153.425 168.577C152.936 166.872 152.493 165.177 152.11 163.496L151.097 163.734C151.485 165.438 151.934 167.152 152.427 168.874L153.425 168.577ZM151.385 159.899C151.082 158.151 150.851 156.419 150.692 154.705L149.657 154.805C149.818 156.548 150.053 158.307 150.362 160.083L151.385 159.899ZM150.457 151.045C150.432 150.314 150.419 149.587 150.419 148.864C150.419 147.839 150.444 146.821 150.495 145.809L149.456 145.756C149.405 146.785 149.379 147.821 149.379 148.864C149.379 149.6 149.392 150.34 149.418 151.082L150.457 151.045ZM150.787 142.158C150.981 140.41 151.249 138.687 151.588 136.99L150.569 136.779C150.224 138.506 149.95 140.26 149.754 142.04L150.787 142.158ZM152.415 133.424C152.863 131.732 153.382 130.067 153.97 128.435L152.993 128.071C152.395 129.733 151.867 131.426 151.411 133.149L152.415 133.424ZM155.311 125.029C155.999 123.426 156.753 121.856 157.57 120.321L156.655 119.817C155.825 121.378 155.058 122.974 154.359 124.606L155.311 125.029ZM159.377 117.149C160.28 115.665 161.242 114.217 162.261 112.809L161.423 112.182C160.388 113.613 159.41 115.084 158.493 116.593L159.377 117.149ZM164.474 109.917C165.563 108.57 166.704 107.264 167.894 105.999L167.144 105.267C165.935 106.551 164.777 107.877 163.671 109.244L164.474 109.917ZM170.453 103.417C171.7 102.222 172.993 101.069 174.327 99.9598L173.669 99.1399C172.316 100.265 171.005 101.435 169.74 102.647L170.453 103.417ZM177.173 97.7095C178.551 96.6726 179.969 95.6823 181.421 94.7375L180.861 93.8467C179.39 94.8031 177.952 95.8082 176.556 96.8588L177.173 97.7095ZM184.504 92.8342C185.99 91.9645 187.509 91.1414 189.055 90.368L188.597 89.419C187.029 90.2019 185.491 91.0356 183.985 91.918L184.504 92.8342ZM192.329 88.8244C193.902 88.1261 195.5 87.4786 197.121 86.883L196.767 85.8874C195.126 86.4915 193.507 87.1475 191.913 87.8553L192.329 88.8244ZM200.541 85.7128C202.18 85.1933 203.839 84.7268 205.512 84.3152L205.268 83.2868C203.572 83.7036 201.892 84.1766 200.232 84.7024L200.541 85.7128ZM209.039 83.5322C210.724 83.199 212.422 82.9207 214.131 82.6996L213.999 81.6501C212.268 81.8744 210.547 82.1558 208.84 82.4933L209.039 83.5322ZM217.719 82.3198C219.43 82.1791 221.148 82.0965 222.87 82.0722L222.856 81.0142C221.11 81.0385 219.368 81.1232 217.636 81.265L217.719 82.3198ZM226.488 82.0881C228.254 82.1198 229.974 82.1844 231.654 82.2817L231.713 81.2258C230.019 81.1274 228.285 81.0618 226.507 81.0301L226.488 82.0881ZM235.261 82.5452C237.014 82.7017 238.723 82.8953 240.394 83.126L240.533 82.0775C238.846 81.8447 237.121 81.649 235.352 81.4914L235.261 82.5452ZM243.965 83.6857C245.687 83.9883 247.372 84.3321 249.024 84.7172L249.257 83.6857C247.585 83.2963 245.883 82.9483 244.142 82.6425L243.965 83.6857ZM252.528 85.607C254.201 86.0683 255.845 86.573 257.468 87.121L257.795 86.1159C256.155 85.5615 254.492 85.0516 252.8 84.586L252.528 85.607ZM260.876 88.3451C262.483 88.9577 264.076 89.6147 265.66 90.313L266.074 89.3428C264.474 88.6371 262.866 87.9737 261.241 87.3537L260.876 88.3451ZM268.952 91.8333C270.495 92.575 272.034 93.3579 273.577 94.18L274.06 93.2436C272.505 92.4141 270.953 91.6249 269.397 90.8769L268.952 91.8333ZM276.764 95.9299C278.249 96.7689 279.742 97.6439 281.251 98.5537L281.782 97.6439C280.265 96.7287 278.763 95.8495 277.268 95.0041L276.764 95.9299ZM284.354 100.462C285.797 101.366 287.258 102.301 288.741 103.266L289.302 102.375C287.815 101.407 286.348 100.469 284.899 99.561L284.354 100.462ZM291.789 105.272C293.207 106.215 294.649 107.184 296.117 108.18L296.693 107.3C295.224 106.303 293.779 105.331 292.357 104.386L291.789 105.272ZM299.134 110.237C300.541 111.2 301.973 112.185 303.436 113.193L304.019 112.317C302.557 111.309 301.123 110.323 299.715 109.359L299.134 110.237ZM306.443 115.268C307.847 116.237 309.279 117.225 310.742 118.233L311.325 117.357C309.863 116.349 308.432 115.361 307.028 114.392L306.443 115.268ZM313.754 120.304C314.991 121.153 316.249 122.014 317.531 122.888C317.711 123.009 317.891 123.131 318.071 123.253L318.643 122.369C318.465 122.25 318.287 122.129 318.11 122.009C316.829 121.136 315.571 120.274 314.336 119.427L313.754 120.304ZM321.163 125.24C322.623 126.139 324.135 127.018 325.695 127.878L326.19 126.948C324.643 126.096 323.147 125.225 321.702 124.335L321.163 125.24ZM328.932 129.6C330.461 130.383 332.029 131.149 333.635 131.894L334.068 130.933C332.473 130.191 330.917 129.431 329.4 128.655L328.932 129.6ZM336.973 133.397C338.551 134.085 340.16 134.754 341.798 135.406L342.178 134.421C340.549 133.772 338.949 133.107 337.383 132.425L336.973 133.397ZM345.21 136.722C346.824 137.326 348.463 137.913 350.125 138.483L350.457 137.481C348.805 136.914 347.174 136.33 345.569 135.73L345.21 136.722ZM353.592 139.636C355.235 140.166 356.898 140.679 358.577 141.174L358.868 140.159C357.195 139.666 355.541 139.154 353.907 138.628L353.592 139.636ZM362.087 142.179C363.754 142.641 365.434 143.086 367.128 143.515L367.379 142.487C365.693 142.061 364.02 141.619 362.361 141.158L362.087 142.179ZM370.674 144.38C372.356 144.778 374.049 145.159 375.752 145.522L375.965 144.486C374.27 144.124 372.584 143.745 370.909 143.349L370.674 144.38ZM379.319 146.255C381.019 146.591 382.725 146.91 384.438 147.211L384.615 146.169C382.909 145.869 381.21 145.551 379.518 145.216L379.319 146.255ZM388.032 147.816C389.746 148.092 391.464 148.35 393.184 148.59L393.326 147.541C391.613 147.303 389.902 147.046 388.195 146.771L388.032 147.816ZM396.803 149.066C398.529 149.281 400.256 149.476 401.982 149.654L402.086 148.601C400.368 148.425 398.648 148.23 396.928 148.016L396.803 149.066ZM405.619 149.998C407.357 150.149 409.09 150.281 410.82 150.393L410.886 149.337C409.164 149.226 407.438 149.094 405.707 148.944L405.619 149.998ZM414.461 150.598C416.203 150.682 417.94 150.746 419.667 150.788L419.692 149.73C417.973 149.688 416.244 149.626 414.51 149.542L414.461 150.598ZM423.312 150.845C423.782 150.849 424.252 150.85 424.72 150.85C425.993 150.85 427.261 150.838 428.522 150.814L428.502 149.756C427.248 149.78 425.987 149.792 424.72 149.792C424.254 149.792 423.787 149.791 423.319 149.787L423.312 150.845ZM432.167 150.709C433.917 150.641 435.653 150.549 437.37 150.432L437.301 149.376C435.594 149.492 433.868 149.584 432.127 149.651L432.167 150.709ZM441.008 150.144C441.501 150.099 441.992 150.052 442.48 150.003C443.736 149.878 444.971 149.742 446.187 149.595L446.065 148.544C444.856 148.69 443.627 148.826 442.379 148.951C441.893 148.999 441.405 149.046 440.915 149.09L441.008 150.144ZM449.802 149.12C451.555 148.87 453.269 148.597 454.946 148.303L454.77 147.261C453.104 147.553 451.401 147.824 449.657 148.072L449.802 149.12ZM458.532 147.631C460.268 147.284 461.964 146.913 463.624 146.52L463.388 145.49C461.74 145.88 460.055 146.248 458.331 146.593L458.532 147.631ZM467.164 145.633C468.874 145.181 470.545 144.705 472.181 144.206L471.882 143.193C470.259 143.688 468.6 144.16 466.903 144.608L467.164 145.633ZM475.661 143.096C477.334 142.537 478.972 141.955 480.579 141.351L480.218 140.358C478.623 140.958 476.997 141.536 475.336 142.09L475.661 143.096ZM483.983 140.022C485.612 139.362 487.212 138.679 488.786 137.977L488.369 137.008C486.805 137.705 485.216 138.383 483.598 139.039L483.983 140.022ZM492.109 136.451C493.692 135.703 495.253 134.936 496.798 134.152L496.334 133.205C494.797 133.985 493.245 134.748 491.67 135.492L492.109 136.451ZM500.048 132.467C501.589 131.651 503.117 130.821 504.638 129.977L504.14 129.048C502.624 129.89 501.102 130.717 499.568 131.528L500.048 132.467ZM507.821 128.19C509.329 127.334 510.832 126.468 512.34 125.593L511.825 124.674C510.32 125.549 508.818 126.413 507.314 127.267L507.821 128.19ZM515.495 123.754C516.986 122.881 518.485 122.003 519.995 121.12L519.477 120.203C517.965 121.086 516.467 121.965 514.977 122.837L515.495 123.754ZM523.147 119.283C524.635 118.42 526.139 117.554 527.664 116.688L527.156 115.764C525.628 116.633 524.123 117.5 522.632 118.365L523.147 119.283ZM530.84 114.9C532.338 114.065 533.857 113.232 535.404 112.401L534.919 111.466C533.366 112.299 531.841 113.135 530.34 113.972L530.84 114.9ZM538.622 110.699C540.139 109.908 541.682 109.122 543.256 108.341L542.801 107.39C541.22 108.174 539.671 108.963 538.149 109.757L538.623 110.699H538.622ZM546.528 106.749C547.789 106.147 549.07 105.549 550.373 104.956C550.662 104.825 550.951 104.694 551.243 104.565L550.828 103.595C550.533 103.726 550.24 103.857 549.949 103.991C548.64 104.586 547.352 105.187 546.086 105.792L546.528 106.749ZM554.584 103.153C556.172 102.514 557.791 101.908 559.435 101.336L559.099 100.335C557.439 100.912 555.805 101.524 554.202 102.169L554.584 103.153ZM562.877 100.204C564.516 99.6943 566.176 99.2182 567.855 98.7791L567.596 97.7549C565.902 98.1982 564.227 98.6775 562.573 99.1917L562.877 100.204ZM571.374 97.92C573.05 97.5381 574.741 97.1921 576.444 96.8863L576.263 95.8442C574.545 96.1531 572.838 96.5023 571.147 96.8863L571.374 97.92ZM580.018 96.3013C581.722 96.0505 583.434 95.8389 585.151 95.6686L585.05 94.6159C583.316 94.7873 581.589 95.001 579.869 95.2538L580.018 96.3013ZM588.759 95.3702C590.48 95.2581 592.203 95.1861 593.925 95.1586L593.909 94.1006C592.17 94.1292 590.429 94.2001 588.692 94.3143L588.759 95.3702ZM597.543 95.166C599.27 95.201 600.992 95.2803 602.706 95.4072L602.782 94.3524C601.048 94.2244 599.308 94.143 597.564 94.108L597.543 95.166ZM606.309 95.7447C608.025 95.9405 609.73 96.1849 611.422 96.4801L611.598 95.4369C609.886 95.1385 608.16 94.8909 606.424 94.6941L606.309 95.7447ZM614.972 97.1794C616.659 97.5497 618.329 97.974 619.978 98.4532L620.264 97.4354C618.592 96.9498 616.9 96.5203 615.191 96.1447L614.972 97.1794ZM623.427 99.5461C625.06 100.108 626.669 100.727 628.249 101.405L628.653 100.431C627.048 99.7419 625.417 99.1134 623.761 98.5432L623.427 99.5461ZM631.535 102.921C633.08 103.686 634.594 104.511 636.073 105.4L636.603 104.489C635.099 103.586 633.56 102.747 631.99 101.97L631.535 102.921ZM639.124 107.355C639.539 107.64 639.952 107.929 640.36 108.224C641.37 108.952 642.327 109.705 643.233 110.484L643.904 109.675C642.975 108.878 641.995 108.105 640.962 107.361C640.545 107.061 640.126 106.766 639.704 106.477L639.124 107.355ZM645.87 112.956C647.097 114.213 648.215 115.524 649.235 116.883L650.061 116.24C649.015 114.846 647.867 113.5 646.609 112.21L645.87 112.956ZM651.28 119.88C652.194 121.358 653.011 122.886 653.739 124.456L654.68 124.004C653.935 122.397 653.098 120.832 652.16 119.316L651.279 119.88H651.28ZM655.144 127.82C655.75 129.441 656.275 131.1 656.732 132.792L657.734 132.512C657.271 130.79 656.735 129.098 656.116 127.445L655.144 127.82ZM657.581 136.356C657.936 138.053 658.231 139.778 658.474 141.524L659.504 141.376C659.257 139.607 658.959 137.859 658.598 136.136L657.581 136.356ZM658.91 145.177C659.083 146.909 659.214 148.657 659.312 150.419L660.351 150.359C660.252 148.583 660.119 146.819 659.944 145.07L658.91 145.177ZM659.471 154.102C659.527 155.852 659.557 157.61 659.568 159.373L660.608 159.367C660.597 157.596 660.567 155.829 660.511 154.068L659.471 154.102ZM659.57 163.066C659.561 164.828 659.541 166.589 659.517 168.348L660.557 168.362C660.581 166.603 660.601 164.839 660.61 163.072L659.57 163.066ZM659.466 172.047C659.442 173.82 659.422 175.585 659.413 177.337L660.453 177.342C660.462 175.595 660.482 173.833 660.506 172.061L659.466 172.047ZM659.416 181.043C659.429 182.829 659.462 184.597 659.523 186.342L660.563 186.304C660.502 184.571 660.469 182.813 660.456 181.035L659.416 181.043ZM659.705 190.053C659.8 191.532 659.921 192.991 660.076 194.427C660.109 194.733 660.144 195.04 660.182 195.346L661.213 195.217C661.177 194.915 661.143 194.614 661.11 194.311C660.956 192.892 660.837 191.449 660.743 189.985L659.705 190.053ZM660.728 199.033C661.039 200.785 661.421 202.521 661.885 204.233L662.888 203.952C662.432 202.273 662.057 200.568 661.752 198.846L660.728 199.033ZM662.985 207.798C663.569 209.473 664.241 211.119 665.009 212.727L665.944 212.263C665.193 210.693 664.537 209.084 663.966 207.444L662.985 207.798ZM666.749 216.018C667.639 217.573 668.565 219.072 669.522 220.518L670.384 219.927C669.44 218.499 668.527 217.021 667.649 215.486L666.749 216.018ZM671.629 223.555C672.676 224.996 673.755 226.384 674.859 227.727L675.657 227.048C674.565 225.721 673.5 224.35 672.465 222.927L671.629 223.555ZM677.257 230.53C678.435 231.853 679.636 233.131 680.855 234.373L681.59 233.625C680.383 232.395 679.194 231.13 678.029 229.82L677.257 230.53ZM683.472 236.961C684.743 238.181 686.03 239.368 687.326 240.53L688.013 239.735C686.726 238.581 685.447 237.402 684.187 236.191L683.472 236.961ZM690.084 242.955C691.411 244.103 692.745 245.231 694.078 246.346L694.739 245.528C693.409 244.416 692.079 243.291 690.757 242.149L690.084 242.955ZM696.896 248.688C698.244 249.805 699.587 250.915 700.92 252.027L701.58 251.208C700.244 250.095 698.9 248.984 697.552 247.868L696.896 248.688ZM703.724 254.387C705.056 255.52 706.371 256.66 707.665 257.818L708.351 257.023C707.05 255.858 705.727 254.712 704.392 253.575L703.724 254.387ZM710.358 260.287C711.625 261.479 712.866 262.694 714.073 263.941L714.814 263.2C713.594 261.939 712.342 260.712 711.065 259.51L710.358 260.287ZM716.553 266.606C717.704 267.897 718.819 269.225 719.889 270.599L720.704 269.942C719.618 268.548 718.488 267.201 717.322 265.895L716.553 266.606ZM722.053 273.531C723.035 274.938 723.972 276.397 724.858 277.913L725.752 277.374C724.851 275.831 723.899 274.349 722.901 272.918L722.053 273.531ZM726.603 281.115C727.375 282.634 728.097 284.212 728.764 285.855L729.725 285.45C729.047 283.78 728.312 282.175 727.527 280.629L726.603 281.115ZM730.042 289.276C730.59 290.882 731.088 292.549 731.532 294.281L732.539 294.013C732.087 292.254 731.581 290.562 731.024 288.929L730.042 289.276ZM732.351 297.849C732.689 299.509 732.981 301.228 733.222 303.009L734.252 302.865C734.008 301.061 733.713 299.319 733.37 297.634L732.351 297.849ZM733.638 306.655C733.795 308.346 733.909 310.089 733.979 311.89L735.018 311.849C734.948 310.029 734.832 308.266 734.673 306.555L733.638 306.655ZM734.058 315.569C734.059 315.746 734.059 315.924 734.059 316.102C734.059 317.691 733.965 319.242 733.782 320.758L734.815 320.887C735.002 319.328 735.099 317.733 735.099 316.102C735.099 315.922 735.099 315.743 735.098 315.564L734.058 315.569ZM733.174 324.338C732.799 326.043 732.308 327.699 731.71 329.31L732.683 329.683C733.298 328.028 733.802 326.323 734.189 324.57L733.174 324.338ZM730.29 332.643C729.543 334.193 728.695 335.699 727.751 337.161L728.621 337.741C729.587 336.244 730.458 334.7 731.224 333.108L730.29 332.643ZM725.663 340.132C724.626 341.491 723.507 342.81 722.311 344.091L723.065 344.82C724.283 343.516 725.426 342.169 726.485 340.781L725.663 340.132ZM719.75 346.668C718.51 347.842 717.205 348.981 715.841 350.086L716.49 350.914C717.872 349.793 719.197 348.636 720.458 347.443L719.75 346.668ZM712.964 352.308C711.585 353.32 710.158 354.303 708.687 355.255L709.245 356.148C710.732 355.185 712.176 354.191 713.572 353.165L712.964 352.308ZM705.597 357.174C704.125 358.053 702.615 358.904 701.073 359.728L701.558 360.665C703.112 359.833 704.635 358.974 706.124 358.086L705.597 357.174ZM697.841 361.397C696.301 362.164 694.735 362.906 693.146 363.623L693.569 364.59C695.167 363.867 696.746 363.12 698.299 362.347L697.841 361.397ZM689.814 365.081C688.227 365.753 686.624 366.402 685.006 367.029L685.377 368.018C687.003 367.387 688.616 366.735 690.214 366.057L689.814 365.081ZM681.604 368.309C679.975 368.902 678.337 369.475 676.695 370.026L677.02 371.031C678.671 370.477 680.317 369.902 681.955 369.304L681.604 368.309ZM673.237 371.154C671.579 371.679 669.92 372.182 668.264 372.666L668.552 373.683C670.214 373.198 671.881 372.691 673.546 372.164L673.237 371.154ZM664.765 373.66C663.082 374.125 661.406 374.568 659.742 374.992L659.993 376.018C661.665 375.593 663.347 375.147 665.037 374.681L664.765 373.659V373.66ZM656.211 375.866C654.504 376.276 652.814 376.665 651.146 377.035L651.368 378.069C653.041 377.698 654.737 377.307 656.45 376.896L656.211 375.866ZM647.589 377.799C645.86 378.16 644.158 378.499 642.492 378.817L642.685 379.857C644.356 379.537 646.063 379.198 647.798 378.836L647.589 377.799ZM638.916 379.478C637.157 379.793 635.446 380.083 633.792 380.351L633.955 381.396C635.615 381.128 637.331 380.836 639.096 380.52L638.916 379.478" fill="#E8F6EC"/>
<path d="M629.617 380.996C628.741 381.125 627.885 381.249 627.051 381.365L627.192 382.413C628.029 382.297 628.888 382.174 629.768 382.043L629.617 380.996" fill="#E8F6EC"/>
<path d="M106.914 200.162H121.747V199.104H106.914V200.162Z" fill="#E8F6EC"/>
<path d="M121.748 208.556H136.581V207.498H121.748V208.556Z" fill="#E8F6EC"/>
<path d="M559.578 134.241H574.411V133.183H559.578V134.241Z" fill="#E8F6EC"/>
<path d="M550.163 142.634H564.997V141.576H550.163V142.634Z" fill="#E8F6EC"/>
<path d="M572.768 138.631H592.926V137.573H572.768V138.631Z" fill="#E8F6EC"/>
<path d="M702.13 313.116H712.803V312.058H702.13V313.116Z" fill="#E8F6EC"/>
<path d="M692.452 304.818H707.285V303.76H692.452V304.818Z" fill="#E8F6EC"/>
<path d="M211.678 93.5029H226.511V92.4449H211.678V93.5029Z" fill="#E8F6EC"/>
<path d="M187.515 275.351H211.905V274.293H187.515V275.351Z" fill="#E8F6EC"/>
<path d="M217.059 275.351H229.719V274.293H217.059V275.351Z" fill="#E8F6EC"/>
<path d="M502.012 243.177H501.492C501.492 244.378 501.015 245.46 500.242 246.247C499.468 247.034 498.404 247.518 497.225 247.519C496.045 247.518 494.981 247.034 494.207 246.247C493.433 245.46 492.957 244.378 492.957 243.177C492.957 241.976 493.433 240.895 494.207 240.108C494.981 239.321 496.045 238.836 497.225 238.836C498.404 238.836 499.468 239.321 500.242 240.108C501.015 240.895 501.492 241.976 501.492 243.177H502.012H502.532C502.532 240.195 500.156 237.778 497.225 237.778C494.292 237.778 491.917 240.195 491.917 243.177C491.917 246.16 494.292 248.576 497.225 248.577C500.156 248.576 502.532 246.16 502.532 243.177H502.012Z" fill="#E8F6EC"/>
<path d="M690.175 209.475H689.655C689.655 210.674 689.178 211.757 688.405 212.544C687.631 213.331 686.568 213.816 685.387 213.816C684.207 213.816 683.144 213.331 682.37 212.544C681.596 211.757 681.12 210.675 681.12 209.475C681.12 208.274 681.596 207.191 682.37 206.404C683.144 205.618 684.207 205.133 685.387 205.133C686.568 205.133 687.631 205.618 688.405 206.404C689.178 207.191 689.655 208.274 689.655 209.475H690.175H690.695C690.695 206.492 688.319 204.076 685.387 204.075C682.455 204.075 680.08 206.492 680.08 209.475C680.08 212.456 682.455 214.874 685.387 214.874C688.319 214.874 690.695 212.457 690.695 209.475H690.175Z" fill="#E8F6EC"/>
<path d="M512.437 104.473H511.917C511.916 105.673 511.44 106.755 510.666 107.543C509.892 108.33 508.828 108.814 507.649 108.814C506.47 108.814 505.406 108.33 504.632 107.543C503.858 106.755 503.382 105.673 503.381 104.473C503.382 103.273 503.858 102.19 504.632 101.403C505.406 100.617 506.469 100.132 507.649 100.132C508.829 100.132 509.892 100.617 510.667 101.403C511.44 102.19 511.916 103.273 511.917 104.473H512.437H512.957C512.956 101.491 510.58 99.0744 507.649 99.0744C504.718 99.0744 502.342 101.491 502.342 104.473C502.342 107.455 504.718 109.872 507.649 109.872C510.58 109.872 512.956 107.455 512.957 104.473H512.437" fill="#E8F6EC"/>
<path d="M605.982 111.766H605.462C605.46 112.812 604.628 113.659 603.601 113.661C602.572 113.659 601.74 112.812 601.739 111.766C601.74 110.721 602.572 109.874 603.601 109.872C604.628 109.874 605.46 110.721 605.462 111.766H605.982H606.502C606.501 110.136 605.203 108.814 603.601 108.814C601.998 108.814 600.699 110.136 600.699 111.766C600.699 113.398 601.998 114.718 603.601 114.719C605.203 114.718 606.501 113.398 606.502 111.766H605.982Z" fill="#E8F6EC"/>
<path d="M460.361 293.819H459.841C459.839 294.865 459.007 295.711 457.98 295.713C456.952 295.711 456.12 294.865 456.118 293.819C456.12 292.774 456.952 291.928 457.98 291.926C459.007 291.928 459.839 292.774 459.841 293.819H460.361H460.881C460.881 292.189 459.582 290.868 457.98 290.868C456.377 290.868 455.079 292.189 455.078 293.819C455.079 295.45 456.377 296.771 457.98 296.771C459.582 296.771 460.881 295.45 460.881 293.819H460.361Z" fill="#E8F6EC"/>
<path d="M183.604 120.025H183.084C183.083 121.07 182.251 121.917 181.222 121.919C180.195 121.917 179.363 121.07 179.361 120.025C179.363 118.979 180.195 118.132 181.222 118.13C182.251 118.132 183.083 118.979 183.084 120.025H183.604H184.124C184.124 118.395 182.826 117.073 181.222 117.072C179.62 117.073 178.322 118.394 178.321 120.025C178.322 121.655 179.62 122.977 181.222 122.977C182.826 122.977 184.124 121.655 184.124 120.025H183.604Z" fill="#E8F6EC"/>
<path d="M75.9559 271.433H75.4359C75.4338 272.479 74.6022 273.325 73.574 273.327C72.5463 273.325 71.7143 272.479 71.7126 271.433C71.7143 270.387 72.5467 269.54 73.574 269.538C74.6018 269.54 75.4338 270.387 75.4359 271.433H75.9559H76.4759C76.4755 269.803 75.1775 268.48 73.574 268.48C71.9709 268.48 70.673 269.803 70.6726 271.433C70.673 273.064 71.9714 274.384 73.574 274.385C75.177 274.384 76.4755 273.064 76.4759 271.433H75.9559Z" fill="#E8F6EC"/>
<path d="M193.276 221.795H192.756C192.754 222.841 191.922 223.688 190.894 223.69C189.866 223.688 189.034 222.841 189.033 221.795C189.034 220.75 189.866 219.903 190.894 219.901C191.922 219.903 192.754 220.75 192.756 221.795H193.276H193.796C193.796 220.165 192.497 218.844 190.894 218.843C189.292 218.843 187.993 220.165 187.993 221.795C187.993 223.426 189.292 224.747 190.894 224.748C192.497 224.747 193.796 223.426 193.796 221.795H193.276Z" fill="#E8F6EC"/>
<path d="M119.261 152.345H120.301V146.61H119.261V152.345Z" fill="#E8F6EC"/>
<path d="M116.963 150.007H122.599V148.949H116.963V150.007Z" fill="#E8F6EC"/>
<path d="M449.023 75.845H450.063V70.1107H449.023V75.845Z" fill="#E8F6EC"/>
<path d="M446.725 73.5068H452.362V72.4488H446.725V73.5068Z" fill="#E8F6EC"/>
<path d="M626.431 164.528H627.471V158.793H626.431V164.528Z" fill="#E8F6EC"/>
<path d="M624.132 162.189H629.769V161.131H624.132V162.189Z" fill="#E8F6EC"/>
<path d="M718.59 241.174H719.63V235.44H718.59V241.174Z" fill="#E8F6EC"/>
<path d="M716.292 238.836H721.928V237.778H716.292V238.836Z" fill="#E8F6EC"/>
<path d="M691.932 341.83H692.972V336.096H691.932V341.83Z" fill="#E8F6EC"/>
<path d="M689.633 339.492H695.27V338.434H689.633V339.492Z" fill="#E8F6EC"/>
<path id='gear4' d="M484.921 265.909C475.55 263.139 470.161 253.167 472.884 243.633C475.606 234.1 485.411 228.619 494.781 231.389C504.151 234.159 509.54 244.132 506.817 253.665C504.094 263.198 494.291 268.679 484.921 265.909ZM483.165 272.055C470.457 268.299 463.15 254.775 466.843 241.847C470.535 228.92 483.83 221.487 496.537 225.243C509.243 228.999 516.551 242.524 512.858 255.451C509.166 268.378 495.872 275.811 483.165 272.055ZM531.108 272.546C532.908 269.323 534.381 265.843 535.444 262.127C536.505 258.41 537.093 254.67 537.271 250.966L527.255 249.555C527.337 246.117 526.952 242.731 526.153 239.472L535.638 235.867C533.657 228.552 530.006 221.794 524.996 216.173L516.922 222.388C514.645 219.955 512.042 217.81 509.143 216.038L513.342 206.678C510.173 204.846 506.753 203.348 503.099 202.267C499.445 201.187 495.769 200.588 492.128 200.407L490.741 210.598C487.362 210.514 484.033 210.906 480.829 211.718L477.287 202.069C470.097 204.084 463.453 207.8 457.927 212.895L464.037 221.109C461.646 223.425 459.536 226.074 457.794 229.022L448.594 224.752C446.792 227.976 445.32 231.454 444.258 235.171C443.196 238.888 442.607 242.629 442.429 246.332L452.447 247.743C452.365 251.181 452.749 254.567 453.549 257.826L444.063 261.431C446.044 268.746 449.695 275.504 454.706 281.125L462.779 274.91C465.056 277.343 467.66 279.489 470.557 281.26L466.36 290.62C469.529 292.452 472.949 293.952 476.602 295.031C480.255 296.111 483.932 296.71 487.573 296.891L488.96 286.699C492.339 286.785 495.669 286.392 498.872 285.58L502.415 295.229C509.605 293.215 516.249 289.499 521.774 284.403L515.664 276.189C518.056 273.873 520.165 271.225 521.906 268.276L531.108 272.546" fill="#C1DAC8"/>
<path id="gear3" d="M521.036 184.906C515.818 186.672 510.182 183.801 508.447 178.493C506.711 173.186 509.533 167.452 514.749 165.686C519.967 163.92 525.604 166.791 527.339 172.099C529.075 177.406 526.254 183.14 521.036 184.906V184.906ZM541.247 173.238C541.09 171.414 540.73 169.58 540.137 167.766C539.544 165.953 538.752 164.265 537.803 162.709L533.343 164.993C532.429 163.572 531.339 162.307 530.116 161.21L532.978 157.039C530.157 154.632 526.809 152.927 523.224 152.071L521.656 156.901C520.06 156.562 518.41 156.432 516.744 156.54L515.869 151.538C514.077 151.697 512.274 152.064 510.491 152.667C508.71 153.271 507.05 154.076 505.52 155.042L507.766 159.578C506.37 160.508 505.124 161.617 504.046 162.861L499.947 159.951C497.58 162.821 495.904 166.226 495.063 169.874L499.811 171.468C499.478 173.092 499.351 174.77 499.455 176.465L494.539 177.354C494.696 179.178 495.056 181.012 495.648 182.826C496.241 184.639 497.034 186.327 497.982 187.883L502.443 185.599C503.357 187.02 504.447 188.285 505.67 189.382L502.809 193.553C505.63 195.961 508.976 197.665 512.563 198.521L514.129 193.691C515.727 194.031 517.376 194.16 519.041 194.053L519.916 199.054C521.709 198.895 523.512 198.529 525.295 197.926C527.077 197.321 528.736 196.516 530.266 195.551L528.021 191.014C529.417 190.084 530.661 188.975 531.74 187.731L535.838 190.641C538.206 187.772 539.882 184.366 540.722 180.719L535.974 179.124C536.309 177.501 536.436 175.823 536.33 174.128L541.247 173.238" fill="#C1DAC8"/>
<path id="gear2" d="M264.677 156.814C256.693 159.516 248.066 155.123 245.409 147C242.753 138.876 247.071 130.1 255.056 127.398C263.041 124.695 271.667 129.089 274.324 137.212C276.981 145.335 272.662 154.11 264.677 156.814ZM295.611 138.956C295.371 136.165 294.818 133.357 293.91 130.582C293.004 127.806 291.792 125.223 290.339 122.841L283.514 126.338C282.115 124.163 280.447 122.224 278.574 120.546L282.953 114.164C278.635 110.479 273.513 107.87 268.025 106.561L265.626 113.952C263.184 113.433 260.658 113.235 258.108 113.399L256.771 105.743C254.026 105.987 251.267 106.549 248.538 107.472C245.81 108.395 243.271 109.628 240.931 111.105L244.367 118.05C242.23 119.473 240.324 121.17 238.675 123.075L232.4 118.619C228.778 123.012 226.213 128.223 224.926 133.806L232.192 136.247C231.682 138.731 231.486 141.3 231.648 143.894L224.123 145.255C224.362 148.047 224.915 150.854 225.823 153.63C226.73 156.405 227.941 158.989 229.394 161.369L236.22 157.874C237.618 160.048 239.286 161.986 241.16 163.664L236.78 170.047C241.098 173.732 246.22 176.342 251.708 177.651L254.108 170.26C256.55 170.779 259.076 170.977 261.625 170.813L262.963 178.468C265.707 178.224 268.467 177.663 271.195 176.74C273.923 175.816 276.462 174.584 278.803 173.106L275.366 166.162C277.504 164.739 279.41 163.041 281.059 161.137L287.333 165.592C290.956 161.199 293.52 155.988 294.807 150.405L287.541 147.965C288.052 145.479 288.247 142.912 288.085 140.317L295.611 138.956" fill="#C1DAC8"/>
<path id="gear1" d="M201.059 193.032C195.751 191.462 192.697 185.812 194.241 180.412C195.782 175.012 201.337 171.907 206.644 173.476C211.952 175.046 215.005 180.696 213.462 186.096C211.921 191.496 206.367 194.601 201.059 193.032ZM200.065 196.513C192.866 194.385 188.727 186.724 190.818 179.401C192.91 172.078 200.44 167.868 207.639 169.995C214.837 172.123 218.977 179.784 216.885 187.107C214.793 194.43 207.263 198.641 200.065 196.513V196.513ZM227.222 196.791C228.243 194.965 229.078 192.995 229.679 190.889C230.28 188.784 230.614 186.665 230.715 184.567L225.039 183.767C225.086 181.821 224.869 179.901 224.415 178.055L229.789 176.014C228.667 171.87 226.598 168.041 223.76 164.857L219.186 168.378C217.898 167 216.422 165.784 214.781 164.781L217.159 159.479C215.363 158.441 213.426 157.592 211.357 156.98C209.287 156.368 207.204 156.029 205.141 155.926L204.356 161.698C202.441 161.652 200.556 161.874 198.741 162.334L196.734 156.868C192.661 158.009 188.897 160.114 185.768 163L189.229 167.653C187.874 168.966 186.679 170.466 185.692 172.136L180.481 169.717C179.46 171.543 178.625 173.513 178.024 175.62C177.423 177.724 177.089 179.843 176.988 181.941L182.664 182.741C182.617 184.688 182.835 186.607 183.288 188.453L177.914 190.494C179.036 194.638 181.105 198.467 183.943 201.652L188.517 198.131C189.805 199.508 191.281 200.724 192.922 201.727L190.545 207.03C192.34 208.067 194.277 208.917 196.347 209.529C198.416 210.14 200.499 210.48 202.562 210.582L203.347 204.81C205.262 204.856 207.147 204.635 208.962 204.174L210.968 209.641C215.042 208.499 218.806 206.395 221.935 203.509L218.475 198.855C219.829 197.542 221.024 196.042 222.011 194.373L227.222 196.791Z" fill="#C1DAC8"/>
<path d="M358.084 486.895C361.251 480.247 377.763 451.15 395.172 441.537C397.384 440.317 399.718 439.183 402.224 438.944C404.731 438.704 407.465 439.512 408.982 441.558C410.365 443.421 410.518 445.966 410.12 448.266C406.958 466.468 386.58 473.437 376.628 486.895" fill="#E8F6EC"/>
<path d="M358.084 486.787C358.084 486.787 374.465 453.892 390.459 434.294C398.031 425.019 403.231 407.836 395.27 402.685C383.751 395.237 372.431 411.831 367.246 420.069C359.403 432.529 353.633 446.319 349.184 460.366C348.539 462.4 342.664 486.787 342.548 486.787H346.52H358.084" fill="#E8F6EC"/>
<path d="M389.002 411.778C373.833 431.294 361.294 460.094 352.954 486.625L353.944 486.948C362.254 460.5 374.776 431.776 389.817 412.435L389.002 411.778" fill="white"/>
<path d="M323.735 486.787C323.735 486.787 321.833 436.171 299.819 412.771C293.871 406.449 284.119 399.878 276.117 398.078C265.746 395.745 266.028 408.152 267.906 416.192C270.34 426.61 278.708 433.105 284.744 440.865C295.849 455.142 302.477 464.568 310.585 486.787" fill="#4EC292"/>
<path d="M330.353 486.787C336.297 475.723 334.206 428.422 331.226 413.606C329.155 403.308 324.904 393.26 319.092 385.037C313.824 377.585 298.082 361.16 288.818 367.835C283.459 371.696 291.575 385.6 293.716 389.775C300.659 403.312 306.163 417.784 310.465 432.67C315.442 449.89 319.205 467.987 320.551 486.097C320.569 486.327 320.583 486.557 320.599 486.787" fill="#E8F6EC"/>
<path d="M331.44 486.787C329.481 460.3 330.736 419.653 342.472 396.692C355.781 370.657 373.13 358.636 375.648 368.782C382.952 398.213 353.644 477.368 345.39 486.787" fill="#4EC292"/>
<path d="M272.912 406.963C296.444 423.642 312.75 455.345 315.773 486.837L316.808 486.735C313.744 454.953 297.351 423.016 273.507 406.095L272.912 406.963Z" fill="white"/>
<path d="M297.101 376.677C308.606 387.119 314.511 403.555 318.076 419.528C322.994 441.543 325.361 464.114 326.139 486.805L327.178 486.768C326.399 464.027 324.026 441.389 319.09 419.293C315.499 403.237 309.569 386.593 297.794 375.887L297.101 376.677Z" fill="white"/>
<path d="M367.695 379.71C353.356 413.226 341.247 449.464 339.219 486.757L340.257 486.816C342.272 449.718 354.331 413.592 368.649 380.132L367.695 379.71" fill="white"/>
<path d="M401.691 444.855C401.651 444.885 380.647 459.076 365.966 486.534L366.88 487.039C374.155 473.429 383.009 463.095 390.043 456.17C393.559 452.705 396.621 450.094 398.799 448.35C399.889 447.478 400.758 446.823 401.354 446.387C401.651 446.169 401.881 446.005 402.035 445.897C402.19 445.788 402.266 445.736 402.266 445.736L401.691 444.855" fill="white"/>
<path d="M616.252 486.702C619.362 444.869 615.897 403.841 631.562 364.2C636.007 352.949 646.138 335.201 660.149 334.595C681.788 333.657 668.538 377.885 664.618 394.436C662.097 405.078 658.338 415.665 654.433 425.843C647.508 443.888 637.096 469.118 629.226 486.702" fill="#4EC292"/>
<path d="M605.017 486.702C598.203 468.968 591.538 451.175 584.798 433.412C578.821 417.658 571.866 402.253 567.037 386.069C563.36 373.75 553.86 345.519 567.768 336.841C592.535 321.389 612.327 381.183 614.941 402.419C618.384 430.409 617.64 458.565 618.053 486.702" fill="#E8F6EC"/>
<path d="M585.336 486.702C585.336 486.702 570.863 467.893 564.336 459.072C549.753 439.369 531.776 417.97 534.459 395.822C535.077 390.725 536.913 385.051 541.948 382.035C545.025 380.192 548.848 379.68 552.345 380.02C564.194 381.167 574.809 398.672 580.139 407.646C590.578 425.221 606.744 486.702 606.744 486.702" fill="#4EC292"/>
<path d="M573.798 349.472C582.607 367.593 591.331 393.485 597.894 419.055C604.461 444.621 608.869 469.884 609.078 486.709L610.118 486.695C609.903 469.709 605.479 444.413 598.901 418.787C592.321 393.164 583.589 367.23 574.731 349.004L573.799 349.472" fill="white"/>
<path d="M546.34 391.225C554.109 406.408 565.898 430.337 575.744 450.469C580.667 460.535 585.104 469.652 588.311 476.251C589.914 479.551 591.21 482.223 592.104 484.069C593 485.914 593.492 486.933 593.494 486.935L594.427 486.468C594.426 486.466 562.813 421.126 547.263 390.736L546.34 391.225" fill="white"/>
<path d="M658.774 343.998C646.057 372.857 628.677 435.233 621.665 486.714L622.695 486.859C629.683 435.503 647.071 373.126 659.724 344.431L658.774 343.998Z" fill="white"/>
<path d="M629.837 486.702C629.837 486.702 637.07 453.918 642.077 435.308C647.522 415.071 665.333 384.099 684.055 375.298C688.364 373.273 693.559 371.881 697.728 374.192C700.276 375.606 702.011 378.229 702.951 381.022C706.138 390.489 690.548 420.385 685.188 428.775C674.69 445.204 659.654 471.308 647.734 486.702" fill="#E8F6EC"/>
<path d="M693.913 381.49C682.741 391.366 669.813 411.856 658.59 432.776C647.373 453.695 637.897 475.017 633.743 486.519L634.718 486.884C638.843 475.461 648.311 454.152 659.503 433.283C670.688 412.415 683.632 391.962 694.595 382.288L693.913 381.49" fill="white"/>
<path d="M149.513 466.305C146.678 451.016 142.029 420.7 138.502 402.096C136.795 393.093 131.855 382.096 128.721 373.556C123.001 357.971 109.179 330.891 92.0397 332.338C70.7733 334.135 87.9597 373.028 93.3759 387.711C96.8578 397.15 101.548 406.388 106.34 415.234C114.838 430.916 127.436 452.754 136.815 467.896" fill="#BDF2DC"/>
<path d="M161.789 449.807C156.599 435.998 158.001 418.435 158.019 403.821C158.05 377.518 167.028 340.541 183.865 323.28C190.805 316.164 202.288 308.253 209.748 319.13C216.813 329.429 208.645 357.425 206.072 369.454C201.032 393.01 176.897 436.639 169.925 459.447L161.789 449.807Z" fill="#4EC292"/>
<path d="M196.898 330.966C184.918 362.584 168.837 420.17 164.72 453.826L165.752 453.956C169.842 420.466 185.923 362.861 197.868 331.347L196.898 330.966" fill="white"/>
<path d="M93.3965 341.322C108.512 366.049 130.735 419.183 142.474 465.368L143.48 465.102C131.704 418.791 109.484 365.649 94.2796 340.763L93.3965 341.322Z" fill="white"/>
<path d="M150.118 432.877C156.496 422.257 164.062 387.787 165.788 375.466C168.215 358.143 168.476 339.84 164.26 322.775C161.415 311.26 148.397 276.818 132.061 292.351C124.39 299.646 125.614 339.4 126.528 350.041C128.317 370.882 138.928 408.2 142.57 428.788L150.118 432.877" fill="#E8F6EC"/>
<path d="M140.623 301.423C143.598 309.304 145.594 320.398 146.834 332.892C148.077 345.388 148.571 359.289 148.571 372.817C148.571 396.269 147.086 418.609 145.464 430.563L146.494 430.708C148.126 418.674 149.61 396.317 149.61 372.817C149.61 359.263 149.116 345.331 147.869 332.787C146.621 320.239 144.626 309.083 141.593 301.043L140.623 301.423" fill="white"/>
<path d="M50.438 487.316H703.377V486.258H50.438V487.316Z" fill="#6886CC"/>
<path d="M313.964 187.716C317.154 184.512 324.9 173.688 325.78 173.954C326.66 174.221 323.984 178.065 324.747 178.146C325.51 178.229 330.02 172.597 330.829 173.102C331.925 173.786 327.002 179.302 327.002 179.302C327.002 179.302 332.691 173.534 333.472 174.407C334.027 175.026 329.885 179.632 328.518 181.593C330.266 179.658 333.459 176.865 334.022 177.52C334.579 178.168 331.826 181.365 329.843 183.928C331.227 182.446 333.888 179.888 334.435 180.467C334.981 181.046 328.317 191.368 322.213 198.9" fill="#F6B6B7"/>
<path d="M273.334 227.253C300.486 203.652 318.704 182.073 318.704 182.073L328.902 189.002C328.902 189.002 311.787 215.995 289.386 239.223L273.334 227.253Z" fill="#F6B6B7"/>
<path d="M265.224 235.144C270.833 227.978 280.096 221.047 280.096 221.047L296.542 234.575L282.108 251.802" fill="#3143A0"/>
<path d="M293.559 357.859L284.852 474.502L295.153 481.174C295.153 481.174 266.841 482.673 265.921 481.73C265 480.786 267.083 474.326 267.083 474.326L262.356 357.582L293.559 357.859" fill="#F6B6B7"/>
<path d="M270.43 481.648L266.215 477.431L266.811 475.216L273.29 481.659L276.409 481.67L287.398 476.152L299.328 483.748C300.707 484.626 300.091 486.792 298.464 486.787L282.43 486.728L277.312 483.105L275.859 483.1L275.846 486.702L265.404 486.663L265.421 481.63L270.43 481.648Z" fill="#273148"/>
<path d="M270.691 357.237L245.01 474.502L255.313 481.174C255.313 481.174 227.001 482.673 226.08 481.73C225.16 480.786 227.241 474.326 227.241 474.326L234.747 357.237H270.691Z" fill="#F6B6B7"/>
<path d="M230.59 481.648L226.374 477.431L226.971 475.216L233.449 481.659L236.569 481.67L247.557 476.152L259.487 483.748C260.866 484.626 260.25 486.792 258.624 486.787L242.588 486.728L237.471 483.105L236.018 483.1L236.006 486.702L225.563 486.663L225.581 481.63L230.59 481.648" fill="#273148"/>
<path d="M243.692 296.747C229.564 322.041 229.592 369.097 229.592 369.097H295.081C295.081 369.097 294.179 327.766 286.865 304.479L243.692 296.747Z" fill="#1F244E"/>
<path d="M265.186 299.03L266.818 369.107L267.598 369.088L265.966 299.011" fill="#293A7B"/>
<path d="M279.705 301.821L279.67 301.906C279.286 302.798 275.799 310.346 265.478 313.072L265.674 313.839C271.344 312.343 275.037 309.42 277.304 306.87C279.571 304.32 280.417 302.144 280.43 302.113L279.705 301.821Z" fill="#293A7B"/>
<path d="M337.973 272.153C342.277 273.427 355.343 275.039 355.543 275.95C355.742 276.863 351.138 276.356 351.44 277.074C351.742 277.792 358.773 279.056 358.733 280.021C358.679 281.328 351.547 279.641 351.547 279.641C351.547 279.641 359.269 281.886 358.9 283.005C358.639 283.799 352.668 282.362 350.319 282.104C352.829 282.712 356.783 284.19 356.495 285.009C356.209 285.82 352.124 284.93 348.959 284.417C350.904 284.926 354.398 286.043 354.166 286.812C353.935 287.578 343.852 286.118 334.413 284.362" fill="#F6B6B7"/>
<path d="M260.931 228.383C260.931 228.383 262.009 231.198 267.888 231.198C271.996 231.198 273.542 229.009 273.542 229.009C273.542 229.009 275.055 230.388 291.234 251.99C294.659 256.564 293.92 266.431 288.195 274.965C286.839 283.529 286.334 293.513 286.865 304.479H240.04C240.04 304.479 239.223 270.254 242.462 251.588C244.377 240.548 252.515 231.771 260.931 228.383" fill="#654DF7"/>
<path d="M291.863 243.177C323.063 268.081 344.699 273.486 344.699 273.486L342.154 285.688C342.154 285.688 304.681 280.852 280.067 259.807" fill="#F6B6B7"/>
<path fill-rule="evenodd" clip-rule="evenodd" d="M273.743 229.833C281.747 231.203 294.032 243.188 294.032 243.188L280.994 262.657C280.994 262.657 275.46 258.758 267.957 252.2" fill="#9B8BFB"/>
<path d="M281.197 261.586C276.328 258.57 272.802 255.959 270.496 254.103C269.342 253.175 268.494 252.437 267.935 251.931C267.656 251.679 267.449 251.485 267.312 251.353C267.176 251.223 267.113 251.159 267.112 251.159L266.562 251.722C266.582 251.742 270.998 256.198 280.792 262.263L281.197 261.586" fill="#293A7B"/>
<path fill-rule="evenodd" clip-rule="evenodd" d="M277.238 207.287C280.493 212.761 281.84 218.235 277.279 221.042C272.718 223.849 265.384 225.244 260.721 217.451C257.451 211.986 258.524 205.265 263.085 202.458C267.646 199.651 273.983 201.813 277.238 207.287" fill="#F6B6B7"/>
<path d="M273.447 208.687C273.598 209.242 274.029 209.897 274.568 209.877C274.721 209.871 274.835 209.776 274.884 209.632C275.199 208.686 273.132 207.527 273.447 208.687" fill="#161A34"/>
<path d="M271.5 208.368C272.298 207.228 273.328 206.777 274.411 206.641C274.554 206.624 274.656 206.492 274.638 206.347C274.621 206.202 274.491 206.098 274.349 206.116C273.165 206.257 271.96 206.789 271.076 208.062C270.994 208.182 271.021 208.347 271.138 208.431C271.256 208.516 271.418 208.487 271.501 208.368" fill="#161A34"/>
<path d="M278.478 213.527L275.46 215.061C275.46 215.061 276.525 217.709 278.155 217.214C279.518 216.8 278.478 213.527 278.478 213.527Z" fill="white"/>
<path fill-rule="evenodd" clip-rule="evenodd" d="M273.743 229.833C273.743 229.833 271.136 231.282 267.887 231.198C263.177 231.079 260.931 229.163 260.931 229.163L264.037 215.659L275.46 216.507L273.743 229.833" fill="#F6B6B7"/>
<path fill-rule="evenodd" clip-rule="evenodd" d="M276.138 207.536C276.138 207.536 280.039 210.19 280.176 210.896C280.314 211.602 278.664 212.624 278.664 212.624" fill="#F6B6B7"/>
<path d="M265.224 198.688C264.803 198.905 263.348 198.505 262.82 198.505C262.078 198.506 261.335 198.56 260.605 198.697C256.256 199.503 253.008 203.165 250.96 206.932C249.616 209.406 248.485 212.154 246.038 213.724C240.659 217.174 233.599 215.939 227.572 218.003C221.439 220.103 216.741 226.434 218.387 233.19C218.924 235.402 220.066 237.413 220.738 239.587C222.172 244.225 221.501 249.623 224.24 253.608C224.974 254.677 225.922 255.58 226.944 256.369C231.523 259.907 237.752 261.126 243.296 259.566C248.838 258.006 253.566 253.704 255.707 248.275C258.141 242.102 257.38 234.747 260.931 229.163C262.589 226.554 265.065 224.564 266.712 221.948C268.217 219.557 269.01 215.06 269.19 212.181C269.231 211.517 268.061 205.987 268.412 205.987C271.228 205.987 274.836 204.205 276.501 202.512C274.38 197.774 268.963 196.761 265.224 198.688" fill="#161A34"/>
<path d="M268.265 212.902C268.265 212.902 266.629 211.749 265.554 213.384C264.164 215.497 267.511 218.166 269.122 218.289C270.732 218.413 270.691 216.633 270.691 216.633" fill="#F6B6B7"/>
<path d="M517.066 317.708H618.893V179.371H517.066V317.708Z" fill="#DDE7F7"/>
<path d="M618.893 317.708V317.179H517.586V179.9H618.373V317.708H618.893V317.179V317.708H619.413V178.842H516.546V318.237H619.413V317.708H618.893Z" fill="#6886CC"/>
<path d="M532.275 317.708H634.101V179.371H532.275V317.708Z" fill="white"/>
<path d="M634.102 317.708V317.179H532.795V179.9H633.582V317.708H634.102V317.179V317.708H634.622V178.842H531.755V318.237H634.622V317.708H634.102Z" fill="#6886CC"/>
<path d="M617.244 208.218H549.956C547.891 208.218 546.217 206.515 546.217 204.414V193.938C546.217 191.838 547.891 190.134 549.956 190.134H617.244C619.308 190.134 620.983 191.838 620.983 193.938V204.414C620.983 206.515 619.308 208.218 617.244 208.218Z" fill="#F1F5FC"/>
<path d="M585.509 306.297H549.956C547.891 306.297 546.217 304.594 546.217 302.494V259.262C546.217 257.161 547.891 255.458 549.956 255.458H585.509C587.574 255.458 589.247 257.161 589.247 259.262V302.494C589.247 304.594 587.574 306.297 585.509 306.297Z" fill="#F1F5FC"/>
<path d="M551.794 226.21C551.794 226.21 551.353 226.21 549.526 226.21C547.698 226.21 546.217 224.233 546.217 221.795C546.217 219.357 547.698 217.381 549.526 217.381C549.872 217.381 551.794 217.381 551.794 217.381V226.21Z" fill="#4EC292"/>
<path d="M555.103 221.795C555.103 224.233 553.622 226.21 551.794 226.21C549.967 226.21 548.486 224.233 548.486 221.795C548.486 219.357 549.967 217.381 551.794 217.381C553.622 217.381 555.103 219.357 555.103 221.795Z" fill="#E8F6EC"/>
<path d="M573.755 226.21C573.755 226.21 573.314 226.21 571.486 226.21C569.658 226.21 568.177 224.233 568.177 221.795C568.177 219.357 569.658 217.381 571.486 217.381C571.833 217.381 573.755 217.381 573.755 217.381V226.21Z" fill="#4EC292"/>
<path d="M577.063 221.795C577.063 224.233 575.582 226.21 573.755 226.21C571.927 226.21 570.446 224.233 570.446 221.795C570.446 219.357 571.927 217.381 573.755 217.381C575.582 217.381 577.063 219.357 577.063 221.795Z" fill="#E8F6EC"/>
<path d="M595.715 226.21C595.715 226.21 595.273 226.21 593.446 226.21C591.619 226.21 590.137 224.233 590.137 221.795C590.137 219.357 591.619 217.381 593.446 217.381C593.792 217.381 595.715 217.381 595.715 217.381V226.21Z" fill="#4EC292"/>
<path d="M599.022 221.795C599.022 224.233 597.542 226.21 595.715 226.21C593.887 226.21 592.406 224.233 592.406 221.795C592.406 219.357 593.887 217.381 595.715 217.381C597.542 217.381 599.022 219.357 599.022 221.795Z" fill="#E8F6EC"/>
<path d="M617.675 226.21C617.675 226.21 617.233 226.21 615.405 226.21C613.578 226.21 612.097 224.233 612.097 221.795C612.097 219.357 613.578 217.381 615.405 217.381C615.752 217.381 617.675 217.381 617.675 217.381V226.21Z" fill="#4EC292"/>
<path d="M620.983 221.795C620.983 224.233 619.502 226.21 617.675 226.21C615.846 226.21 614.365 224.233 614.365 221.795C614.365 219.357 615.846 217.381 617.675 217.381C619.502 217.381 620.983 219.357 620.983 221.795Z" fill="#E8F6EC"/>
<path d="M551.794 247.592C551.794 247.592 551.353 247.592 549.526 247.592C547.698 247.592 546.217 245.615 546.217 243.177C546.217 240.74 547.698 238.763 549.526 238.763C549.872 238.763 551.794 238.763 551.794 238.763V247.592Z" fill="#4EC292"/>
<path d="M555.103 243.177C555.103 245.615 553.622 247.592 551.794 247.592C549.967 247.592 548.486 245.615 548.486 243.177C548.486 240.74 549.967 238.763 551.794 238.763C553.622 238.763 555.103 240.74 555.103 243.177Z" fill="#E8F6EC"/>
<path d="M573.755 247.592C573.755 247.592 573.314 247.592 571.486 247.592C569.658 247.592 568.177 245.615 568.177 243.177C568.177 240.74 569.658 238.763 571.486 238.763C571.833 238.763 573.755 238.763 573.755 238.763V247.592Z" fill="#4EC292"/>
<path d="M577.063 243.177C577.063 245.615 575.582 247.592 573.755 247.592C571.927 247.592 570.446 245.615 570.446 243.177C570.446 240.74 571.927 238.763 573.755 238.763C575.582 238.763 577.063 240.74 577.063 243.177Z" fill="#E8F6EC"/>
<path d="M595.715 247.592C595.715 247.592 595.273 247.592 593.446 247.592C591.619 247.592 590.137 245.615 590.137 243.177C590.137 240.74 591.619 238.763 593.446 238.763C593.792 238.763 595.715 238.763 595.715 238.763V247.592Z" fill="#4EC292"/>
<path d="M599.022 243.177C599.022 245.615 597.542 247.592 595.715 247.592C593.887 247.592 592.406 245.615 592.406 243.177C592.406 240.74 593.887 238.763 595.715 238.763C597.542 238.763 599.022 240.74 599.022 243.177Z" fill="#E8F6EC"/>
<path d="M617.675 247.592C617.675 247.592 617.233 247.592 615.405 247.592C613.578 247.592 612.097 245.615 612.097 243.177C612.097 240.74 613.578 238.763 615.405 238.763C615.752 238.763 617.675 238.763 617.675 238.763V247.592Z" fill="#4EC292"/>
<path d="M620.983 243.177C620.983 245.615 619.502 247.592 617.675 247.592C615.846 247.592 614.365 245.615 614.365 243.177C614.365 240.74 615.846 238.763 617.675 238.763C619.502 238.763 620.983 240.74 620.983 243.177Z" fill="#E8F6EC"/>
<path d="M130.395 486.786H303.204V352.077H173.879L130.395 403.807V486.786Z" fill="white"/>
<path d="M130.395 486.787V487.316H303.724V351.548H173.639L129.875 403.611V487.316H130.395V486.787H130.915V404.003L174.118 352.606H302.684V486.258H130.395V486.787H130.915H130.395Z" fill="#6886CC"/>
<path d="M254.148 486.787H317.82V352.077H296.753L254.148 403.807V486.787Z" fill="#DDE7F7"/>
<path d="M254.148 486.787V487.316H318.34V351.548H296.51L253.628 403.614V487.316H254.148V486.787H254.668V404L296.996 352.606H317.3V486.258H254.148V486.787H254.668H254.148Z" fill="#6886CC"/>
<path d="M130.395 403.807H254.148V486.787H130.395V403.807Z" fill="#DDE7F7"/>
<path d="M130.395 403.807V404.336H253.628V486.258H130.915V403.807H130.395V404.336V403.807H129.875V487.316H254.668V403.278H129.875V403.807H130.395Z" fill="#6886CC"/>
<path d="M265.22 367.183C266.404 368.287 268.828 367.545 270.633 365.524C272.437 363.506 272.94 360.975 271.755 359.872C270.951 359.123 269.301 357.585 269.301 357.585L262.764 364.898C262.764 364.898 264.034 366.08 265.22 367.183" fill="#4EC292"/>
<path d="M262.919 365.042C264.104 366.144 266.527 365.403 268.333 363.383C270.138 361.364 270.64 358.833 269.456 357.729C268.271 356.627 265.848 357.368 264.043 359.389C262.237 361.408 261.735 363.938 262.919 365.042Z" fill="#E8F6EC"/>
<path d="M245.956 367.183C247.14 368.287 249.565 367.545 251.369 365.524C253.174 363.506 253.677 360.975 252.492 359.872C251.688 359.123 250.038 357.585 250.038 357.585L243.501 364.898C243.501 364.898 244.771 366.08 245.956 367.183" fill="#4EC292"/>
<path d="M243.656 365.042C244.841 366.144 247.264 365.403 249.07 363.383C250.874 361.364 251.376 358.833 250.193 357.729C249.008 356.627 246.585 357.368 244.78 359.389C242.974 361.408 242.472 363.938 243.656 365.042Z" fill="#E8F6EC"/>
<path d="M206.306 367.183C207.491 368.287 209.915 367.545 211.72 365.524C213.525 363.506 214.027 360.975 212.842 359.872C212.038 359.123 210.388 357.585 210.388 357.585L203.852 364.898C203.852 364.898 205.121 366.08 206.306 367.183Z" fill="#4EC292"/>
<path d="M204.007 365.042C205.191 366.144 207.614 365.403 209.42 363.383C211.225 361.364 211.728 358.833 210.543 357.729C209.358 356.627 206.935 357.368 205.13 359.389C203.324 361.408 202.822 363.938 204.007 365.042Z" fill="#E8F6EC"/>
<path d="M185.88 367.183C187.065 368.287 189.489 367.545 191.294 365.524C193.098 363.506 193.601 360.975 192.417 359.872C191.613 359.123 189.961 357.585 189.961 357.585L183.426 364.898C183.426 364.898 184.696 366.08 185.88 367.183Z" fill="#4EC292"/>
<path d="M183.581 365.042C184.765 366.144 187.189 365.403 188.994 363.383C190.799 361.364 191.301 358.833 190.116 357.729C188.933 356.627 186.509 357.368 184.704 359.389C182.899 361.408 182.395 363.938 183.581 365.042Z" fill="#E8F6EC"/>
<path d="M252.673 394.379H147.118L154.976 385.328H259.54L252.673 394.379" fill="#F1F5FC"/>
<path d="M367.793 331.448V443.95C367.793 446.527 366.768 448.854 365.109 450.543C363.448 452.231 361.16 453.274 358.627 453.275H297.107C294.575 453.274 292.287 452.231 290.627 450.543C288.967 448.854 287.943 446.527 287.943 443.95V440.725H286.903V443.95C286.903 449.684 291.472 454.332 297.107 454.333H358.627C364.264 454.332 368.833 449.684 368.833 443.95V331.448H367.793" fill="#6886CC"/>
<path d="M383.039 336.611V465.143C383.039 467.774 381.993 470.15 380.299 471.873C378.604 473.597 376.268 474.661 373.682 474.662H275.872C273.34 474.661 271.052 473.619 269.392 471.932C267.732 470.242 266.708 467.914 266.708 465.338V440.725H265.668V465.338C265.668 471.072 270.237 475.719 275.872 475.72H373.682C379.424 475.719 384.079 470.984 384.079 465.143V336.611H383.039Z" fill="#6886CC"/>
<path d="M410.716 334.459V409.026C410.716 414.759 415.285 419.407 420.92 419.407H497.319C502.954 419.407 507.524 414.759 507.524 409.026V281.285C507.524 278.709 508.549 276.382 510.208 274.693C511.868 273.004 514.156 271.962 516.689 271.962H548.189V270.904H516.689C511.053 270.904 506.484 275.551 506.484 281.285V409.026C506.484 411.602 505.459 413.93 503.8 415.619C502.139 417.307 499.851 418.349 497.319 418.349H420.92C418.388 418.349 416.1 417.307 414.44 415.619C412.78 413.93 411.756 411.602 411.756 409.026V334.459H410.716" fill="#6886CC"/>
<path d="M398.433 336.611V441.122C398.434 446.856 403.003 451.505 408.639 451.505H548.905C554.541 451.505 559.109 446.856 559.109 441.122V295.825H558.069V441.122C558.069 443.699 557.045 446.026 555.385 447.716C553.725 449.403 551.437 450.447 548.905 450.447H408.639C406.106 450.447 403.818 449.403 402.159 447.716C400.499 446.026 399.474 443.699 399.473 441.122V336.611H398.433" fill="#6886CC"/>
<path d="M298.869 173.072C298.869 121.871 339.67 80.3637 390 80.3637C440.33 80.3637 481.131 121.871 481.131 173.072C481.131 193.482 474.642 212.347 463.657 227.661C450.649 247.602 416.85 270.116 416.85 283.604V299.014C416.85 302.09 414.398 304.583 411.375 304.583H396.73H383.271H368.625C365.602 304.583 363.151 302.09 363.151 299.014V283.604C363.151 270.116 329.351 247.602 316.343 227.661C305.357 212.347 298.869 193.482 298.869 173.072Z" fill="#F8D208"/>
<path d="M348.934 176.066C346.83 176.066 344.872 176.594 343.151 177.641C338.52 180.459 335.9 188.491 337.058 196.328C339.13 210.347 350.718 225.199 376.61 228.995C375.134 213.517 372.605 199.353 368.374 190.943C364.762 183.765 359.014 178.433 352.998 176.677C351.6 176.268 350.239 176.066 348.934 176.066ZM431.067 176.066C429.761 176.066 428.4 176.268 427.002 176.677C420.986 178.433 415.237 183.765 411.626 190.943C407.395 199.353 404.866 213.517 403.389 228.995C429.282 225.199 440.871 210.347 442.942 196.328C444.1 188.491 441.481 180.459 436.85 177.641C435.128 176.594 433.172 176.066 431.067 176.066M400.348 303.048C400.242 300.724 398.61 263.509 401.54 230.894C397.951 231.327 394.107 231.556 390 231.556C385.892 231.556 382.05 231.327 378.461 230.894C381.39 263.509 379.758 300.724 379.651 303.048L378.044 302.97C378.07 302.398 379.76 263.906 376.766 230.672C349.738 226.849 337.639 211.271 335.467 196.57C334.198 187.978 337.082 179.426 342.325 176.236C345.507 174.301 349.351 173.909 353.442 175.103C359.879 176.982 365.996 182.625 369.806 190.197C374.206 198.942 376.807 213.462 378.306 229.225C381.932 229.678 385.825 229.92 390 229.92C394.177 229.92 398.069 229.678 401.693 229.225C403.194 213.462 405.794 198.942 410.195 190.197C414.004 182.625 420.122 176.982 426.558 175.103C430.65 173.91 434.494 174.301 437.676 176.236C442.918 179.426 445.803 187.978 444.534 196.57C442.361 211.271 430.263 226.849 403.234 230.672C400.24 263.906 401.93 302.398 401.956 302.97L400.348 303.048" fill="white"/>
<path d="M465.959 178.392C463.072 178.392 460.731 176.01 460.731 173.072C460.731 140.085 438.807 111.399 407.418 103.315C404.618 102.594 402.923 99.7007 403.631 96.8526C404.341 94.0034 407.183 92.2778 409.984 93.0014C446.02 102.282 471.187 135.208 471.187 173.072C471.187 176.01 468.846 178.392 465.959 178.392" fill="#FCF181"/>
<path d="M388.245 95.6528C388.245 98.5909 390.586 100.972 393.473 100.972C396.361 100.972 398.701 98.5909 398.701 95.6528C398.701 92.7147 396.361 90.3342 393.473 90.3342C390.586 90.3342 388.245 92.7147 388.245 95.6528" fill="#FCF181"/>
<path d="M446.836 246.953C453.37 240.509 459.55 233.957 463.657 227.661C463.678 227.632 463.697 227.603 463.718 227.575C463.697 227.603 463.678 227.632 463.657 227.661C459.55 233.957 453.37 240.509 446.836 246.953Z" fill="#E2CB82"/>
<path d="M363.151 283.604C363.151 270.116 329.351 247.602 316.343 227.661C316.323 227.633 316.302 227.605 316.283 227.576C316.302 227.605 316.323 227.633 316.343 227.661C329.351 247.602 363.151 270.116 363.151 283.604Z" fill="#FCDA83"/>
<path d="M463.74 227.545C463.754 227.526 463.767 227.507 463.781 227.488C463.767 227.507 463.754 227.526 463.74 227.545Z" fill="#E2CB82"/>
<path d="M316.253 227.531C316.244 227.518 316.233 227.503 316.222 227.49C316.233 227.503 316.243 227.518 316.253 227.531Z" fill="#FCDA83"/>
<path d="M463.808 227.45C463.82 227.435 463.831 227.42 463.842 227.403C463.831 227.418 463.819 227.435 463.808 227.45Z" fill="#E2CB82"/>
<path d="M316.183 227.436C316.177 227.428 316.17 227.418 316.164 227.41C316.17 227.418 316.177 227.428 316.183 227.436Z" fill="#FCDA83"/>
<path d="M463.872 227.36C463.882 227.346 463.891 227.332 463.901 227.319C463.892 227.332 463.882 227.347 463.872 227.36Z" fill="#E2CB82"/>
<path d="M316.12 227.345C316.116 227.339 316.111 227.331 316.106 227.325C316.111 227.331 316.116 227.338 316.12 227.345Z" fill="#FCDA83"/>
<path d="M463.937 227.269C463.945 227.259 463.952 227.248 463.96 227.237C463.952 227.247 463.945 227.259 463.937 227.269Z" fill="#E2CB82"/>
<path d="M316.057 227.256C316.054 227.254 316.051 227.25 316.049 227.246C316.051 227.25 316.054 227.254 316.057 227.256Z" fill="#FCDA83"/>
<path d="M463.998 227.182C464.004 227.174 464.011 227.165 464.016 227.157C464.011 227.165 464.004 227.174 463.998 227.182ZM464.062 227.092C464.065 227.088 464.068 227.083 464.07 227.079C464.068 227.083 464.065 227.088 464.062 227.092Z" fill="#E2CB82"/>
<path d="M411.375 304.583H368.625C365.602 304.583 363.151 302.09 363.151 299.014V283.604C363.151 270.116 329.351 247.602 316.343 227.661C316.323 227.633 316.302 227.604 316.283 227.576C316.271 227.561 316.262 227.547 316.25 227.531C316.241 227.519 316.232 227.505 316.222 227.492C316.21 227.473 316.196 227.455 316.183 227.436C316.177 227.428 316.17 227.418 316.164 227.41C316.149 227.388 316.134 227.367 316.117 227.345C316.114 227.339 316.11 227.334 316.106 227.328C316.089 227.304 316.072 227.281 316.055 227.256C316.053 227.254 316.051 227.251 316.049 227.248C306.227 213.397 300.085 196.674 299.045 178.555C304.751 212.086 330.122 249.935 378.213 255.282C379.035 280.415 378.064 302.537 378.044 302.97L379.651 303.048C379.731 301.302 380.673 279.852 379.893 255.454C383.158 255.763 386.528 255.923 390 255.923C393.467 255.923 396.837 255.771 400.107 255.476C399.328 279.862 400.268 301.302 400.348 303.048L401.956 302.97C401.936 302.537 400.965 280.431 401.786 255.311C450.025 250.194 476.292 213.798 480.955 178.555C479.918 196.6 473.823 213.261 464.07 227.08C464.068 227.084 464.065 227.088 464.061 227.092C464.047 227.114 464.031 227.136 464.016 227.157C464.011 227.165 464.004 227.174 463.998 227.182C463.985 227.2 463.972 227.219 463.959 227.238C463.951 227.249 463.944 227.26 463.937 227.269C463.924 227.287 463.912 227.304 463.899 227.321C463.89 227.334 463.882 227.346 463.872 227.36C463.861 227.375 463.85 227.39 463.84 227.405C463.83 227.42 463.819 227.435 463.808 227.45C463.798 227.464 463.789 227.475 463.78 227.489C463.766 227.508 463.754 227.526 463.74 227.545C463.733 227.555 463.726 227.565 463.718 227.575C463.697 227.603 463.678 227.632 463.657 227.661C459.55 233.957 453.37 240.509 446.836 246.953C432.675 260.919 416.85 274.374 416.85 283.604V299.014C416.85 302.09 414.398 304.583 411.375 304.583" fill="#F9AF0B"/>
<path d="M400.348 303.048C400.268 301.302 399.328 279.862 400.107 255.476C400.668 255.426 401.231 255.371 401.786 255.311C400.965 280.431 401.936 302.537 401.956 302.97L400.348 303.048ZM379.651 303.048L378.044 302.97C378.064 302.537 379.035 280.415 378.213 255.282C378.769 255.344 379.33 255.401 379.893 255.454C380.673 279.852 379.731 301.302 379.651 303.048Z" fill="#FCDA83"/>
<path d="M419.004 290.184H360.997V318.308C360.997 322.901 362.282 327.398 364.701 331.276C369.274 338.606 377.215 343.045 385.749 343.045H394.253C402.786 343.045 410.726 338.606 415.299 331.276C417.718 327.398 419.004 322.901 419.004 318.308V290.184" fill="#273148"/>
<path d="M360.992 309.15C361.159 309.155 361.325 309.15 361.495 309.132L419.501 303.015C421.481 302.806 422.863 300.995 422.588 298.971C422.314 296.947 420.483 295.473 418.506 295.685L360.5 301.802C358.52 302.011 357.137 303.821 357.413 305.845C357.662 307.696 359.214 309.086 360.992 309.15Z" fill="#49C09C"/>
<path d="M360.992 322.021C361.159 322.027 361.325 322.021 361.495 322.003L419.501 315.886C421.481 315.678 422.863 313.867 422.588 311.842C422.314 309.819 420.483 308.348 418.506 308.556L360.5 314.674C358.52 314.882 357.137 316.692 357.413 318.716C357.662 320.569 359.214 321.958 360.992 322.021" fill="#49C09C"/>
<path d="M363.31 334.762C363.475 334.768 363.642 334.762 363.811 334.745L418.794 328.945C420.774 328.736 422.156 326.926 421.881 324.902C421.608 322.878 419.773 321.404 417.798 321.615L362.817 327.414C360.836 327.622 359.453 329.433 359.729 331.458C359.979 333.309 361.531 334.699 363.31 334.762" fill="#49C09C"/>
<path d="M388.44 41.0072V70.1403C388.44 71.0163 389.139 71.7273 390 71.7273C390.861 71.7273 391.56 71.0163 391.56 70.1403V41.0072C391.56 40.1311 390.861 39.4202 390 39.4202C389.139 39.4202 388.44 40.1311 388.44 41.0072Z" fill="#FAB92C"/>
<path d="M441.643 52.6112L430.077 79.2622Z" fill="#FBC941"/>
<path d="M440.216 51.97L428.651 78.621C428.302 79.423 428.659 80.3604 429.447 80.7137C430.236 81.0682 431.157 80.7053 431.504 79.9033L443.07 53.2512C443.419 52.4503 443.062 51.5129 442.274 51.1585C441.485 50.8051 440.565 51.168 440.216 51.97Z" fill="#FAB92C"/>
<path d="M485.17 84.8443L464.01 104.473Z" fill="#FBC941"/>
<path d="M484.119 83.6711L462.958 103.3C462.322 103.891 462.276 104.895 462.857 105.542C463.437 106.19 464.424 106.236 465.061 105.646L486.221 86.0166C486.858 85.4263 486.903 84.4222 486.323 83.7748C485.742 83.1273 484.755 83.0807 484.119 83.6711" fill="#FAB92C"/>
<path d="M338.357 52.6112L349.923 79.2622Z" fill="#FBC941"/>
<path d="M336.93 53.2514L348.496 79.9035C348.843 80.7044 349.764 81.0683 350.553 80.7139C351.341 80.3605 351.698 79.4231 351.349 78.6211L339.784 51.9701C339.436 51.1682 338.515 50.8053 337.726 51.1587C336.939 51.5131 336.581 52.4505 336.93 53.2514Z" fill="#FAB92C"/>
<path d="M294.83 84.8443L315.99 104.473Z" fill="#FBC941"/>
<path d="M293.778 86.0166L314.939 105.646C315.576 106.236 316.563 106.19 317.143 105.542C317.723 104.895 317.678 103.891 317.042 103.3L295.88 83.6711C295.244 83.0807 294.257 83.1273 293.676 83.7748C293.096 84.4233 293.142 85.4263 293.778 86.0166" fill="#FAB92C"/>
<path d="M268.16 440.876C268.16 441.984 267.277 442.883 266.188 442.883C265.098 442.883 264.215 441.984 264.215 440.876C264.215 439.767 265.098 438.869 266.188 438.869C267.277 438.869 268.16 439.767 268.16 440.876Z" fill="#6886CC"/>
<path d="M289.396 440.876C289.396 441.984 288.513 442.883 287.423 442.883C286.333 442.883 285.45 441.984 285.45 440.876C285.45 439.767 286.333 438.869 287.423 438.869C288.513 438.869 289.396 439.767 289.396 440.876Z" fill="#6886CC"/>
<path d="M560.563 295.825C560.563 296.934 559.679 297.833 558.589 297.833C557.5 297.833 556.617 296.934 556.617 295.825C556.617 294.719 557.5 293.819 558.589 293.819C559.679 293.819 560.563 294.719 560.563 295.825Z" fill="#6886CC"/>
<path d="M571.678 295.825C571.678 296.934 570.795 297.833 569.705 297.833C568.616 297.833 567.732 296.934 567.732 295.825C567.732 294.719 568.616 293.819 569.705 293.819C570.795 293.819 571.678 294.719 571.678 295.825Z" fill="#6886CC"/>
<path d="M582.793 295.825C582.793 296.934 581.91 297.833 580.82 297.833C579.731 297.833 578.847 296.934 578.847 295.825C578.847 294.719 579.731 293.819 580.82 293.819C581.91 293.819 582.793 294.719 582.793 295.825Z" fill="#6886CC"/>
<path d="M550.163 271.433C550.163 272.542 549.279 273.439 548.189 273.439C547.1 273.439 546.217 272.542 546.217 271.433C546.217 270.324 547.1 269.425 548.189 269.425C549.279 269.425 550.163 270.324 550.163 271.433Z" fill="#6886CC"/>
<path d="M446.725 388.925C446.725 411.792 464.946 430.328 487.424 430.328C509.902 430.328 528.125 411.792 528.125 388.925C528.125 366.057 509.902 347.52 487.424 347.52C464.946 347.52 446.725 366.057 446.725 388.925Z" fill="#ED6C6C"/>
<path d="M457.98 388.925C457.98 405.467 471.163 418.878 487.424 418.878C503.686 418.878 516.869 405.467 516.869 388.925C516.869 372.381 503.686 358.97 487.424 358.97C471.163 358.97 457.98 372.381 457.98 388.925Z" fill="white"/>
<path d="M467.199 388.925C467.199 400.288 476.255 409.499 487.424 409.499C498.594 409.499 507.649 400.288 507.649 388.925C507.649 377.561 498.594 368.349 487.424 368.349C476.255 368.349 467.199 377.561 467.199 388.925Z" fill="#ED6C6C"/>
<path d="M476.829 388.925C476.829 394.876 481.573 399.703 487.424 399.703C493.276 399.703 498.019 394.876 498.019 388.925C498.019 382.972 493.276 378.146 487.424 378.146C481.573 378.146 476.829 382.972 476.829 388.925Z" fill="white"/>
<path d="M485.785 390.593H492.437L485.785 383.824V390.593Z" fill="#1A3453"/>
<path d="M528.923 346.708H536.535V344.755H530.842V338.963H528.923V346.708Z" fill="#1A3453"/>
<path d="M532.408 343.164H540.02V341.211H534.326V335.419H532.408V343.164Z" fill="#1A3453"/>
<path d="M488.33 389.382L534.361 342.555L533.004 341.175L486.973 388.002L488.33 389.382" fill="#1A3453"/>
<path d="M174.414 315.048L169.394 324.747C169.394 324.747 165.969 324.747 161.245 322.374C156.553 320.019 155.187 316.773 155.187 316.773L163.674 305.351" fill="#F6B6B7"/>
<path d="M185.088 296.73C189.756 299.528 182.045 317.251 177.832 318.373C173.619 319.494 165.253 311.12 162.76 304.025C160.267 296.93 168.289 293.05 173.006 291.608C177.723 290.167 185.088 296.73 185.088 296.73" fill="#F6B6B7"/>
<path d="M181.625 305.321C181.466 305.603 181.318 305.893 181.182 306.187C181.014 306.55 181.545 306.869 181.713 306.504C181.86 306.185 181.995 305.861 182.115 305.532C182.222 305.237 181.773 305.059 181.625 305.321" fill="#243169"/>
<path d="M184.535 303.373C184.502 303.314 183.636 302.063 181.585 302.065C181.229 302.065 180.839 302.102 180.414 302.188C180.203 302.232 180.066 302.44 180.108 302.656C180.15 302.871 180.356 303.009 180.567 302.967C180.945 302.891 181.283 302.859 181.585 302.859C182.449 302.86 183.022 303.114 183.389 303.358C183.572 303.481 183.701 303.603 183.782 303.689L183.868 303.79L183.886 303.813C184.005 303.996 184.248 304.045 184.426 303.923C184.605 303.802 184.654 303.555 184.535 303.373" fill="#243169"/>
<path d="M177.52 312.218L180.49 314.375C180.49 314.375 179.329 316.659 178.268 315.771C177.208 314.882 177.52 312.218 177.52 312.218Z" fill="white"/>
<path d="M189.28 300.613C187.159 299.919 184.829 298.605 183.223 297.785C181.077 298.236 178.848 300.284 178.791 302.603C178.778 303.124 178.726 303.834 178.217 303.906C177.867 303.957 177.578 303.608 177.479 303.262C177.381 302.916 177.394 302.538 177.254 302.208C176.972 301.536 176.102 301.267 175.422 301.505C174.743 301.742 174.255 302.367 173.977 303.041C173.268 304.764 172.636 306.849 174.253 308.296C174.505 308.519 174.799 308.714 174.961 309.012C175.313 309.661 174.898 310.448 174.483 311.054C173.196 312.935 171.262 315.048 167.468 315.048C164.8 315.048 160.369 311.47 160.077 309.682C160.051 309.522 157.498 298.566 162.236 291.598C164.777 287.86 169.251 285.137 173.916 285.535C176.798 285.78 179.314 287.507 180.725 288.626C188.505 290.08 190.173 298.238 189.28 300.613" fill="#202131"/>
<path d="M184.786 307.083C184.786 307.083 185.475 312.397 184.445 312.977C183.415 313.559 181.243 312.045 181.243 312.045" fill="#F6B6B7"/>
<path d="M186.93 450.942L183.122 475.956L182.924 483.488L211.955 483.338C212.664 483.334 213.235 482.746 213.232 482.026C213.229 481.485 212.899 481.003 212.403 480.811L199.883 474.954L204.835 448.969" fill="#F6B6B7"/>
<path d="M214.502 483.02C214.206 482.074 213.661 481.012 213.112 480.771L199.836 474.954C192.518 477.973 183.045 475.665 183.045 475.665L181.356 485.834C181.357 486.171 181.628 486.441 181.958 486.44L214.28 486.272C214.931 486.268 214.512 483.049 214.502 483.02Z" fill="#49C09C"/>
<path d="M202.4 475.295C201.637 476.306 200.993 477.408 200.481 478.571L201.193 478.895C201.68 477.789 202.294 476.739 203.019 475.778L202.4 475.295" fill="#293A7B"/>
<path d="M204.065 476.32C203.28 477.423 202.949 478.097 202.489 479.105L203.196 479.439C203.656 478.435 203.94 477.854 204.697 476.784L204.065 476.32Z" fill="#293A7B"/>
<path d="M205.481 477.059C204.929 477.813 204.413 478.814 204.005 479.605L204.696 479.973C205.1 479.186 205.61 478.207 206.106 477.533L205.481 477.059Z" fill="#293A7B"/>
<path d="M181.529 484.641L214.641 484.469L214.636 483.676L181.525 483.848" fill="#293A7B"/>
<path d="M182.439 479.669C182.439 479.669 182.55 479.671 182.757 479.684C183.484 479.73 185.336 479.915 187.04 480.586C187.892 480.92 188.703 481.374 189.322 481.974C189.942 482.575 190.374 483.308 190.508 484.256L191.28 484.144C191.1 482.843 190.419 481.84 189.539 481.112C188.217 480.015 186.453 479.473 185.018 479.185C183.582 478.898 182.469 478.876 182.455 478.875L182.439 479.669" fill="#293A7B"/>
<path d="M210.072 479.35C210.07 479.354 209.531 480.133 208.935 481.097C208.339 482.067 207.691 483.193 207.45 483.995L208.197 484.223C208.378 483.596 209.014 482.456 209.595 481.519C209.888 481.047 210.166 480.618 210.372 480.308C210.578 479.998 210.709 479.807 210.709 479.807L210.072 479.35" fill="#293A7B"/>
<path d="M96.8127 457.497L72.5892 454.562L65.1848 454.359L65.3327 483.893C65.3368 484.615 65.9145 485.197 66.6229 485.193C67.1544 485.189 67.6288 484.854 67.817 484.349L73.5743 471.612L98.6777 474.488" fill="#F6B6B7"/>
<path d="M65.6456 486.484C66.5752 486.183 67.62 485.628 67.8565 485.071L73.574 471.564C70.608 464.12 72.8749 454.483 72.8749 454.483L62.8794 452.765C62.5488 452.766 62.2823 453.041 62.2839 453.377L62.4489 486.259C62.4525 486.92 65.616 486.494 65.6456 486.484" fill="#49C09C"/>
<path d="M73.2393 474.173C72.2456 473.397 71.1617 472.741 70.0177 472.222L69.7 472.946C70.7879 473.44 71.8194 474.064 72.7643 474.802L73.2393 474.173" fill="#293A7B"/>
<path d="M72.2309 475.866C71.1478 475.068 70.4856 474.731 69.4948 474.262L69.1658 474.983C70.1534 475.45 70.7237 475.738 71.7739 476.51L72.2309 475.866" fill="#293A7B"/>
<path d="M71.5059 477.306C70.764 476.746 69.7805 476.222 69.0017 475.806L68.6401 476.51C69.414 476.921 70.3757 477.439 71.0402 477.943L71.5059 477.307" fill="#293A7B"/>
<path d="M64.0515 452.94L64.2213 486.626L65.0013 486.622L64.8315 452.936" fill="#293A7B"/>
<path d="M68.9403 453.866C68.9403 453.866 68.9382 453.978 68.9248 454.19C68.8802 454.929 68.6977 456.814 68.0384 458.547C67.7102 459.413 67.2633 460.238 66.6742 460.868C66.0827 461.498 65.3624 461.938 64.4304 462.075L64.541 462.86C65.8203 462.677 66.8049 461.984 67.5216 461.089C68.5994 459.744 69.1319 457.95 69.416 456.49C69.6971 455.029 69.7194 453.897 69.7203 453.882L68.9403 453.866" fill="#293A7B"/>
<path d="M69.2528 481.978C69.249 481.975 68.4829 481.427 67.536 480.822C66.5825 480.215 65.4754 479.555 64.6873 479.31L64.4626 480.071C65.0798 480.255 66.1993 480.901 67.1212 481.494C67.585 481.79 68.0068 482.074 68.3119 482.283C68.6165 482.492 68.803 482.627 68.8034 482.627L69.2528 481.978Z" fill="#293A7B"/>
<path d="M111.221 388.834C106.016 402.992 114.511 423.546 114.511 423.546L118.99 456.653L76.5137 454.751L76.9341 483.488C76.9341 483.488 122.494 486.787 133.515 486.787C144.535 486.787 148.795 484.277 152.029 477.709C156.848 467.923 149.922 413.818 149.922 412.921L142.361 378.167" fill="#212228"/>
<path d="M81.2217 454.983L81.541 483.849L82.321 483.839L82.0017 454.975" fill="#40444D"/>
<path d="M125.954 396.489C125.954 396.489 121.133 421.556 145.61 426.942C156.549 429.35 184.363 430.141 184.363 430.141L179.613 468.866H207.388C207.388 468.866 213.142 439.688 214.874 420.171C216.027 407.186 210.537 401.38 200.218 400.079C191.482 398.976 165.211 397.238 165.211 397.238L160.795 391.599" fill="#212228"/>
<path d="M151.117 427.443H151.094C151.021 427.444 145.918 427.428 140.262 424.533C134.605 421.633 128.383 415.9 125.95 404.336L125.188 404.501C127.656 416.294 134.086 422.271 139.912 425.242C145.737 428.219 150.948 428.234 151.094 428.236V427.874L151.077 428.235L151.094 428.236V427.874L151.077 428.235L151.117 427.443" fill="#40444D"/>
<path d="M136.366 402.595C136.383 402.598 140.131 403.327 145.493 403.327C146.689 403.327 147.965 403.291 149.299 403.202L149.248 402.409C147.933 402.497 146.673 402.533 145.493 402.533C142.846 402.533 140.597 402.353 139.012 402.173C138.218 402.082 137.592 401.993 137.165 401.926C136.736 401.858 136.514 401.815 136.513 401.815L136.366 402.595Z" fill="#40444D"/>
<path d="M109.431 399.265C109.449 399.267 114.813 400.84 118.478 400.846L118.602 400.845L118.595 400.051L118.478 400.052C116.747 400.053 114.526 399.667 112.752 399.278C111.863 399.084 111.086 398.889 110.53 398.745C109.975 398.599 109.646 398.502 109.645 398.502L109.431 399.265" fill="#40444D"/>
<path d="M181.449 464.222H208.415V463.428H181.449V464.222Z" fill="#40444D"/>
<path d="M239.115 381.512H236.904V356.928H239.115V381.512" fill="#6886CC"/>
<path d="M242.085 354.44C242.085 356.729 240.261 358.586 238.009 358.586C235.759 358.586 233.935 356.729 233.935 354.44C233.935 352.15 235.759 350.293 238.009 350.293C240.261 350.293 242.085 352.15 242.085 354.44Z" fill="#6886CC"/>
<path d="M217.555 361.497L225.756 362.113C225.756 362.113 232.058 359.95 234.569 359.895C236.108 359.861 236.904 360.687 236.904 360.687C236.904 360.687 236.904 361.529 236.904 363.207C236.904 364.886 239.115 365.626 239.115 364.486V363.099C239.141 363.192 243.655 365.375 241.01 367.453C242.251 367.714 242.911 369.489 240.555 370.706C241.302 371.226 242.167 372.665 240.44 373.82C241.206 375.005 239.647 376.313 238.409 376.585C236.064 377.101 217.306 376.701 217.306 376.701" fill="#F6B6B7"/>
<path d="M169.709 323.837C183.178 342.791 175.943 348.935 166.263 397.286C133.93 397.286 109.185 391.599 109.185 391.599C109.185 391.599 116.885 366.222 131.156 337.983C137.96 324.518 149.273 317.814 155.676 316.102" fill="#FA7228"/>
<path d="M149.273 345.148C149.273 345.148 170.087 378.31 179.978 379.781C195.683 382.116 221.654 381.461 221.654 381.461L223.204 358.131C223.204 358.131 189.82 356.414 188.442 355.617C183.97 353.03 169.709 323.837 169.709 323.837" fill="#FA7228"/>
<path d="M171.684 373.425C171.684 373.424 171.499 373.269 171.153 372.958C168.725 370.786 158.518 361.164 151.443 347.225L150.75 347.589C158.922 363.681 171.165 374.016 171.186 374.036L171.684 373.425Z" fill="#293A7B"/>
<path d="M218.001 357.84L216.034 381.512L216.811 381.578L218.778 357.907" fill="#293A7B"/>
<path d="M660.073 321.263C659.568 325.795 655.99 338.68 656.739 339.218C657.489 339.758 658.807 335.242 659.341 335.802C659.875 336.362 658.311 343.448 659.201 343.783C660.407 344.237 661.628 336.892 661.628 336.892C661.628 336.892 660.685 345.005 661.843 345.091C662.665 345.151 663.663 338.994 664.335 336.688C663.919 339.281 663.735 343.562 664.588 343.608C665.435 343.652 666.202 339.473 666.959 336.304C666.668 338.327 666.335 342.037 667.121 342.115C667.906 342.195 670.47 332.168 672.518 322.631" fill="#F6B6B7"/>
<path d="M674.573 259.097C674.573 259.097 681.782 272.123 682.824 280.118C685.387 299.814 669.323 333.177 669.323 333.177C669.323 333.177 657.649 329.938 657.649 328.447C657.649 326.957 665.786 291.9 665.786 291.9L654.117 264.5" fill="#F6B6B7"/>
<path d="M639.522 216.321L641.088 231.009C641.088 231.009 632.431 238.475 624.772 230.111L625.709 220.443L639.522 216.321Z" fill="#F6B6B7"/>
<path d="M627.446 201.607C627.446 201.607 618.074 214.735 621.901 219.656C624.726 223.286 632.136 223.7 634.425 222.272C634.918 219.583 640.992 210.697 640.017 208.72C636.296 201.164 627.446 201.607 627.446 201.607Z" fill="#F6B6B7"/>
<path d="M642.031 203.878C641.728 198.915 636.917 197.462 627.684 198.023C626.448 198.097 624.248 197.243 623.676 198.36C622.926 199.83 622.793 202.802 624.242 204.14C625.211 205.033 625.859 205.227 627.131 205.528C628.805 205.926 630.509 207.547 629.619 209.33C629.386 209.796 628.833 210.589 629.182 210.974C629.36 211.168 629.956 211.383 630.185 211.508C630.851 211.87 630.808 212.897 630.394 213.538C629.98 214.179 630.166 214.889 629.748 215.528C628.761 217.041 629.932 219.83 631.468 220.756C632.827 221.575 637.283 222.942 640.544 221.22C643.374 219.729 645.074 215.668 645.096 208.366C645.105 205.566 643.058 203.687 642.031 203.878" fill="#202131"/>
<path d="M628.465 211.376C629.987 209.413 631.219 209.725 631.891 210.803C632.788 212.24 630.99 215.227 630.153 215.737C628.455 216.77 627.081 216.661 626.95 215.26" fill="#F6B6B7"/>
<path d="M624.711 208.37C624.275 208.739 623.868 209.408 624.108 209.9C624.176 210.038 624.308 210.105 624.456 210.09C625.434 209.993 625.62 207.6 624.711 208.37Z" fill="#273148"/>
<path d="M624.702 206.924C624.971 207.02 625.347 207.204 625.679 207.445C626.014 207.686 626.302 207.986 626.438 208.284L627.144 207.947C626.918 207.463 626.532 207.09 626.131 206.798C625.727 206.507 625.303 206.3 624.963 206.176L624.702 206.924" fill="#273148"/>
<path d="M624.815 215.372L622.676 214.207C622.676 214.207 621.27 216.882 622.266 217.446C623.369 218.07 624.815 215.372 624.815 215.372" fill="white"/>
<path d="M592.536 486.787L626.343 486.759L626.341 485.22L592.535 485.246L592.536 486.787" fill="#3143A0"/>
<path d="M621.531 472.523L624.455 473.224C624.455 473.224 625.575 477.111 626.005 479.818C626.434 482.524 626.341 485.22 626.341 485.22L592.535 485.246C592.535 485.246 593.419 482.265 601.485 477.459C604.663 475.564 606.281 473.397 606.281 473.397L621.531 472.523" fill="#212228"/>
<path d="M625.012 460.149L624.456 473.224C624.456 473.224 623.037 474.971 617.296 474.976C611.554 474.978 606.282 473.397 606.282 473.397L605.148 455.756" fill="#F2A581"/>
<path d="M640.687 486.787L674.495 486.759L674.493 485.22L640.687 485.246V486.787" fill="#3143A0"/>
<path d="M669.683 472.523L672.608 473.224C672.608 473.224 673.727 477.111 674.157 479.818C674.587 482.524 674.493 485.22 674.493 485.22L640.687 485.246C640.687 485.246 641.571 482.265 649.636 477.459C652.815 475.564 654.434 473.397 654.434 473.397L669.683 472.523" fill="#212228"/>
<path d="M671.469 459.616L672.608 473.224C672.608 473.224 671.189 474.971 665.448 474.976C659.706 474.978 654.434 473.397 654.434 473.397L651.828 455.756" fill="#F2A581"/>
<path d="M666.015 324.302C666.015 324.302 671.289 335.473 667.052 356.846C669.208 404.568 674.817 468.72 674.817 468.72L642.608 468.605C642.608 468.605 636.04 399.645 632.136 365.279C627.787 326.998 625.066 280.118 625.066 280.118" fill="#399B77"/>
<path d="M648.196 468.567C648.196 468.566 641.628 399.607 637.724 365.233L636.949 365.324C638.9 382.503 641.518 408.334 643.648 429.869C644.713 440.637 645.655 450.33 646.332 457.332C646.67 460.833 646.942 463.661 647.13 465.613C647.317 467.566 647.419 468.64 647.419 468.643L648.196 468.567" fill="#243267"/>
<path d="M604.511 326.441C604.511 326.441 601.088 376.75 601.088 400.892C601.088 425.037 599.563 468.72 599.563 468.72H632.121L644.234 354.528C654.155 342.44 653.431 316.208 651.04 305.994L618.757 297.026L604.511 326.441" fill="#399B77"/>
<path d="M637.969 417.276L644.622 354.571L644.234 354.529L644.524 354.793C652.953 345.222 652.941 333.22 652.945 333.177H652.165C652.165 333.178 652.165 333.351 652.15 333.688C652.041 336.054 651.131 346.121 643.944 354.263L643.86 354.358L637.195 417.191L637.969 417.276" fill="#243267"/>
<path d="M610.916 321.368L603.21 468.7L603.989 468.742L611.695 321.409" fill="#243267"/>
<path d="M632.681 335.06L648.494 335.383L648.51 334.589L632.697 334.267" fill="#243267"/>
<path d="M659.781 334.553L665.793 334.427L665.778 333.633L659.766 333.76" fill="#243267"/>
<path d="M577.063 249.809C572.649 244.728 560.803 225.41 559.472 225.715C558.141 226.019 561.727 231.997 560.587 232.039C559.449 232.082 553.319 223.264 552.067 223.93C550.373 224.832 557.127 233.521 557.127 233.521C557.127 233.521 554.482 229.829 553.235 231.045C552.351 231.906 552.818 233.713 554.649 236.763C553.422 235.202 552.262 234.926 551.362 235.839C550.471 236.745 551.353 238.41 552.452 240.092C551.586 238.989 550.32 238.435 549.996 239.584C549.571 241.088 553.154 248.885 561.631 261.601" fill="#F6B6B7"/>
<path d="M640.928 229.513C640.928 229.513 659.583 230.31 665.178 251.908C667.7 261.646 669.323 328.423 669.323 328.423L601.158 327.959C601.158 327.959 602.066 267.589 603.591 254.518C606.377 230.63 624.866 229.141 624.866 229.141C624.866 229.141 625.709 231.253 632.934 231.253C640.159 231.253 640.928 229.513 640.928 229.513" fill="#D8C7BA"/>
<path d="M640.928 229.513C663.069 229.513 676.702 260.453 676.702 260.453L662.779 267.565" fill="#D8C7BA"/>
<path d="M611.68 273.413C611.68 273.413 599.865 290.708 590.326 291.647C577.504 292.91 554.692 249.483 554.692 249.483L569.081 239.596L588.79 264.812L595.511 254.592" fill="#F6B6B7"/>
<path d="M624.866 229.141C605.803 230.207 591.851 259.097 591.851 259.097L614.172 275.396L626.84 258.584" fill="#D8C7BA"/>
<path d="M613.695 275.063L624.492 260.777L623.873 260.294L613.077 274.58" fill="#7E6064"/>
<path d="M667.438 265.33C666.192 256.185 663.148 248.41 663.142 248.393L662.418 248.686C662.418 248.687 662.463 248.804 662.548 249.031C663.139 250.623 665.59 257.534 666.665 265.438L667.438 265.33" fill="#7E6064"/>
<path d="M623.904 209.474C623.904 209.474 620.835 210.975 620.988 211.547C621.142 212.119 622.064 213.504 622.064 213.504" fill="#F6B6B7"/>
<path d="M599.563 461.938H632.688V461.144H599.563V461.938Z" fill="#243267"/>
<path d="M641.93 462.223H674.148V461.43H641.93V462.223Z" fill="#243267"/>
</svg>
