<svg width="504" height="504" viewBox="0 0 504 504" fill="none" xmlns="http://www.w3.org/2000/svg">
<g clip-path="url(#clip0_63_691)">
<circle cx="258" cy="258" r="246" fill="#19A941" fill-opacity="0.1"/>
<path d="M176.171 460.109C176.171 462.341 143.749 464.15 103.753 464.15C63.7588 464.15 31.3367 462.341 31.3367 460.109C31.3367 457.878 63.7588 456.068 103.753 456.068C143.749 456.068 176.171 457.878 176.171 460.109Z" fill="#B38D3E"/>
<path d="M134.601 314.546V453.436H100.291L104.017 348.735L91.2119 453.436H56.9182L83.2904 314.546H134.601Z" fill="#399B77"/>
<path d="M91.4426 227.272L90.7071 227.536C83.546 230.106 78.3674 236.392 77.2145 243.912L71.6658 280.097L87.0256 274.559L91.4426 227.272Z" fill="#C5C6C9"/>
<path d="M76.2289 250.339L71.6658 280.097L87.0256 274.559L89.0825 252.54L76.2289 250.339Z" fill="#C4787D"/>
<path d="M114.614 222.867L134.601 231.708V314.546H83.2905L91.4427 227.272L114.614 222.867Z" fill="white"/>
<path d="M103.347 197.498C103.347 197.498 103.135 194.942 104.683 193.302C106.231 191.663 112.607 189.022 118.528 192.574C124.448 196.127 127.454 201.41 124.63 211.611C122.261 218.259 118.402 219.995 118.402 219.995L110.44 208.787L103.347 197.498Z" fill="#20606F"/>
<path d="M110.081 241.083L98.2846 284.739C96.6875 290.649 92.5051 295.52 86.9048 297.994L84.7471 298.947L88.9751 253.684L110.081 241.083Z" fill="#979A9F"/>
<path d="M134.601 291.277C134.601 291.277 119.25 292.556 119.25 314.546H134.601V291.277Z" fill="#979A9F"/>
<path d="M103.418 197.085C103.418 197.085 101.448 208.288 101.603 215.681C101.624 216.67 102.409 217.47 103.395 217.537L110.054 217.997L108.816 225.323C108.407 227.743 110.272 229.95 112.727 229.95H113.911C115.971 229.95 117.689 228.373 117.863 226.32L119.286 209.605C119.286 209.605 104.86 203.869 103.418 197.085Z" fill="#F18C8D"/>
<path d="M122.353 209.424C122.353 211.336 120.803 212.886 118.892 212.886C116.98 212.886 115.43 211.336 115.43 209.424C115.43 207.513 116.98 205.963 118.892 205.963C120.803 205.963 122.353 207.513 122.353 209.424Z" fill="#F18C8D"/>
<path d="M105.591 207.237C105.501 208.213 105.144 208.98 104.794 208.947C104.443 208.915 104.231 208.097 104.321 207.12C104.411 206.143 104.767 205.377 105.118 205.41C105.469 205.441 105.681 206.26 105.591 207.237Z" fill="#20606F"/>
<path d="M104.399 204.193L104.389 204.137L104.399 204.193L104.389 204.137L104.399 204.193C104.415 204.191 104.558 204.17 104.76 204.17C104.992 204.169 105.3 204.198 105.581 204.291C105.864 204.386 106.109 204.534 106.293 204.778C106.494 205.046 106.873 205.1 107.141 204.899C107.408 204.699 107.463 204.319 107.262 204.051C106.899 203.567 106.413 203.289 105.961 203.141C105.508 202.992 105.081 202.96 104.76 202.959C104.44 202.959 104.226 202.993 104.202 202.997C103.871 203.052 103.649 203.364 103.703 203.694C103.757 204.024 104.069 204.247 104.399 204.193Z" fill="#20606F"/>
<path d="M110.054 217.997H113.804C113.804 217.997 111.406 225.243 108.711 225.947C110.054 217.997 110.054 217.997 110.054 217.997Z" fill="#3F2B24"/>
<path d="M134.601 231.708L138.797 233.769C144.712 236.674 149.416 241.568 152.088 247.592L168.885 285.469C172.092 292.698 168.63 301.142 161.272 304.04L134.601 314.546H130.643C127.577 314.546 125.091 312.061 125.091 308.994V300.005C125.091 297.705 126.51 295.642 128.658 294.82L145.889 288.225L132.147 258.647C132.147 258.647 128.024 234.121 134.601 231.708Z" fill="#F18C8D"/>
<path d="M100.291 453.436C100.291 453.436 97.1993 452.957 95.7598 458.71C131.245 458.71 134.601 458.71 134.601 458.71V453.436H100.291Z" fill="#3F2B24"/>
<path d="M56.7763 453.436C56.7763 453.436 53.6846 452.957 52.2446 458.71C87.7294 458.71 91.0861 458.71 91.0861 458.71V453.436H56.7763Z" fill="#3F2B24"/>
<path d="M152.088 247.592C149.416 241.568 144.712 236.674 138.797 233.769L134.601 231.708C128.024 234.121 132.147 258.647 132.147 258.647L136.905 268.888C141.963 265.824 149.734 261.962 158.013 260.953L152.088 247.592Z" fill="#C5C6C9"/>
<path d="M158.013 294.928C158.013 298.484 159.837 301.613 162.598 303.437C169.035 300.097 171.892 292.248 168.885 285.469L168.566 284.747C168.447 284.743 168.331 284.73 168.211 284.73C162.579 284.73 158.013 289.295 158.013 294.928Z" fill="#E66466"/>
<path d="M134.601 453.436H122.617V323.647L134.601 326.42V453.436Z" fill="#49C09C"/>
<path d="M91.3452 452.343L103.63 351.89C103.661 351.932 103.694 351.979 103.724 352.023L91.3452 452.343Z" fill="#2F7835"/>
<path d="M103.724 352.023C103.694 351.98 103.661 351.932 103.63 351.89L103.817 350.364C103.915 350.146 103.967 350.034 103.97 350.029L103.724 352.023Z" fill="#328549"/>
<path d="M91.2116 453.427C91.2116 453.427 91.2115 453.427 80.3735 453.427C86.4188 390.355 102.099 354.176 103.817 350.364L103.63 351.89L91.345 452.343L91.2116 453.427ZM103.97 350.029C103.97 350.028 103.97 350.028 103.97 350.028V350.029Z" fill="#225737"/>
<path d="M122.617 323.647L103.97 319.331V314.547H95.7598C95.7598 314.547 95.7212 315.629 95.7283 317.424L83.2905 314.547H122.617V323.647Z" fill="#225737"/>
<path d="M134.601 326.42L122.617 323.647V314.546H130.643H134.601V326.42Z" fill="#2A7450"/>
<path d="M103.97 350.028C103.936 350.002 103.901 349.975 103.868 349.947L103.97 349.111V350.026V350.028Z" fill="#328549"/>
<path d="M103.97 350.028V350.026V350.028ZM103.868 349.947C96.551 344.037 95.7576 324.768 95.728 317.424L103.97 319.331V349.111L103.868 349.947Z" fill="#225737"/>
<path d="M103.97 319.331L95.7279 317.424C95.7208 315.629 95.7594 314.546 95.7594 314.546H103.97V319.331Z" fill="#143018"/>
<path d="M65.5552 407.951L71.2409 378.005L65.5552 407.951Z" fill="#8BA241"/>
<path d="M67.5251 408.092C66.8557 408.092 66.2013 408.033 65.5552 407.95L71.2409 378.005C77.8803 379.667 82.805 385.657 82.805 392.811C82.805 401.25 75.9639 408.092 67.5251 408.092Z" fill="#307F5F"/>
<path d="M102.522 390.71L102.989 377.581H102.99L102.522 390.71Z" fill="#8BA241"/>
<path d="M103.97 408.092C103.269 408.092 102.585 408.028 101.91 407.936L102.523 390.71L102.99 377.581C103.316 377.559 103.639 377.531 103.97 377.531C112.409 377.531 119.25 384.372 119.25 392.811C119.25 401.25 112.409 408.092 103.97 408.092Z" fill="#307F5F"/>
<path d="M134.601 314.546H130.643C130.35 314.546 130.061 314.524 129.78 314.48C127.124 314.066 125.091 311.767 125.091 308.994V300.005C125.091 297.705 126.51 295.642 128.658 294.82C128.658 294.82 134.601 296.203 134.601 314.546Z" fill="#F6B6B7"/>
<path d="M169.087 285.945C169.085 285.939 169.082 285.933 169.08 285.927C169.079 285.926 169.079 285.926 169.079 285.925C169.077 285.919 169.074 285.913 169.072 285.908C169.072 285.907 169.071 285.906 169.071 285.905C169.068 285.899 169.066 285.893 169.064 285.887C169.063 285.887 169.063 285.886 169.063 285.886C169.061 285.88 169.058 285.874 169.056 285.867C169.055 285.867 169.055 285.866 169.055 285.865C169.036 285.819 169.017 285.774 168.998 285.729C168.997 285.728 168.997 285.727 168.997 285.727C168.995 285.722 168.993 285.716 168.99 285.71C168.99 285.709 168.989 285.707 168.988 285.705C168.986 285.7 168.984 285.696 168.982 285.691C168.981 285.689 168.98 285.687 168.98 285.685C168.978 285.68 168.976 285.676 168.974 285.671C168.973 285.669 168.972 285.666 168.971 285.664C168.969 285.66 168.967 285.656 168.965 285.651C168.964 285.649 168.963 285.646 168.962 285.644C168.96 285.64 168.959 285.636 168.957 285.631C168.956 285.629 168.954 285.626 168.953 285.623C168.952 285.619 168.95 285.615 168.948 285.611C168.947 285.609 168.946 285.606 168.945 285.603C168.943 285.599 168.941 285.595 168.939 285.589C168.938 285.587 168.937 285.585 168.936 285.583C168.934 285.578 168.932 285.574 168.93 285.569C168.929 285.567 168.928 285.565 168.928 285.563C168.926 285.558 168.924 285.554 168.922 285.549C168.92 285.546 168.919 285.544 168.918 285.541C168.916 285.537 168.915 285.533 168.913 285.529C168.912 285.526 168.91 285.523 168.909 285.52C168.908 285.517 168.906 285.512 168.904 285.509C168.903 285.506 168.9 285.503 168.899 285.5C168.897 285.496 168.896 285.492 168.894 285.488C168.891 285.482 168.888 285.475 168.885 285.469L168.566 284.747L158.013 260.953L152.088 247.592L168.885 285.468C168.956 285.627 169.023 285.786 169.087 285.945ZM152.065 247.541C152.064 247.537 152.062 247.534 152.061 247.53C152.062 247.533 152.064 247.537 152.065 247.541ZM152.037 247.478C152.037 247.478 152.037 247.477 152.036 247.476C152.037 247.477 152.037 247.477 152.037 247.478Z" fill="#F6E0A7"/>
<path d="M159.374 289.835C155.723 284.53 151.877 277.438 147.587 270.015C146.613 268.331 145.795 266.519 145.108 264.63C149.005 262.943 153.431 261.511 158.013 260.953L168.566 284.747C168.447 284.743 168.331 284.73 168.211 284.73C164.433 284.73 161.136 286.783 159.374 289.835ZM169.087 285.945C169.085 285.939 169.082 285.933 169.08 285.927C169.082 285.933 169.085 285.939 169.087 285.945ZM169.079 285.925C169.077 285.919 169.074 285.913 169.072 285.908C169.074 285.913 169.077 285.919 169.079 285.925ZM169.071 285.905C169.068 285.899 169.066 285.893 169.064 285.887C169.066 285.893 169.068 285.899 169.071 285.905ZM169.063 285.886C169.06 285.88 169.057 285.874 169.055 285.867C169.057 285.874 169.06 285.88 169.063 285.886ZM169.054 285.865C169.035 285.819 169.017 285.774 168.998 285.729C169.017 285.774 169.035 285.819 169.054 285.865ZM168.997 285.727C168.995 285.722 168.993 285.717 168.99 285.71C168.993 285.717 168.995 285.722 168.997 285.727ZM168.988 285.705C168.986 285.7 168.984 285.696 168.982 285.691C168.984 285.696 168.986 285.7 168.988 285.705ZM168.98 285.685C168.977 285.68 168.976 285.676 168.974 285.671C168.976 285.676 168.978 285.68 168.98 285.685ZM168.971 285.664C168.969 285.66 168.967 285.656 168.965 285.651C168.967 285.656 168.969 285.66 168.971 285.664ZM168.962 285.644C168.96 285.64 168.959 285.635 168.957 285.631C168.959 285.636 168.96 285.64 168.962 285.644ZM168.953 285.623C168.952 285.619 168.95 285.615 168.948 285.611C168.95 285.615 168.952 285.619 168.953 285.623ZM168.945 285.603C168.943 285.599 168.941 285.595 168.939 285.589C168.941 285.595 168.943 285.599 168.945 285.603ZM168.936 285.583C168.933 285.578 168.931 285.574 168.929 285.569C168.931 285.574 168.933 285.578 168.936 285.583ZM168.927 285.563C168.925 285.559 168.923 285.553 168.921 285.549C168.923 285.554 168.925 285.558 168.927 285.563ZM168.917 285.541C168.915 285.537 168.914 285.533 168.912 285.529C168.914 285.533 168.915 285.537 168.917 285.541ZM168.908 285.52C168.906 285.517 168.905 285.513 168.903 285.509C168.905 285.512 168.907 285.517 168.908 285.52ZM168.899 285.5C168.897 285.496 168.896 285.493 168.894 285.488C168.896 285.492 168.897 285.496 168.899 285.5Z" fill="#F6B6B7"/>
<path d="M145.109 264.63C141.484 254.649 141.556 242.514 141.992 235.64C146.363 238.558 149.864 242.639 152.036 247.476C152.037 247.477 152.037 247.478 152.037 247.478C152.045 247.496 152.053 247.513 152.061 247.53C152.062 247.534 152.064 247.537 152.065 247.54C152.073 247.558 152.08 247.575 152.088 247.592L158.013 260.953C153.432 261.511 149.006 262.943 145.109 264.63Z" fill="#DDDDDD"/>
<path d="M169.103 285.984C169.101 285.981 169.1 285.979 169.099 285.976C169.1 285.979 169.101 285.981 169.103 285.984Z" fill="#F6B6B7"/>
<path d="M169.092 285.958C169.091 285.956 169.089 285.952 169.088 285.949V285.948C169.089 285.952 169.091 285.956 169.092 285.958Z" fill="#F6E0A7"/>
<path d="M169.094 285.964C169.092 285.959 169.09 285.954 169.088 285.949C169.089 285.952 169.091 285.956 169.092 285.959C169.093 285.961 169.094 285.963 169.094 285.964Z" fill="#F6B6B7"/>
<path d="M167.978 298.429C165.149 297.244 162.324 294.123 159.374 289.835C161.136 286.783 164.433 284.73 168.211 284.73C168.331 284.73 168.447 284.743 168.566 284.747L168.886 285.469C168.889 285.475 168.892 285.482 168.895 285.488C168.897 285.493 168.898 285.496 168.9 285.5C168.901 285.503 168.903 285.506 168.904 285.509C168.906 285.513 168.907 285.517 168.909 285.52C168.91 285.523 168.912 285.526 168.913 285.529C168.915 285.533 168.916 285.537 168.918 285.541C168.919 285.544 168.92 285.546 168.922 285.549C168.924 285.553 168.926 285.559 168.928 285.563C168.928 285.565 168.929 285.567 168.93 285.569C168.932 285.574 168.934 285.578 168.936 285.583C168.937 285.586 168.938 285.588 168.939 285.59C168.941 285.595 168.943 285.599 168.945 285.603C168.946 285.606 168.947 285.609 168.948 285.611C168.95 285.615 168.952 285.619 168.953 285.623C168.954 285.626 168.956 285.629 168.957 285.631C168.959 285.635 168.96 285.64 168.962 285.644C168.963 285.646 168.964 285.649 168.965 285.651C168.967 285.656 168.969 285.66 168.971 285.664C168.972 285.666 168.973 285.669 168.974 285.671C168.976 285.676 168.977 285.68 168.98 285.685C168.98 285.687 168.981 285.689 168.982 285.691C168.984 285.696 168.986 285.7 168.988 285.705C168.989 285.707 168.99 285.709 168.99 285.71C168.993 285.717 168.995 285.722 168.997 285.727C168.997 285.727 168.997 285.728 168.998 285.729C169.018 285.774 169.036 285.819 169.055 285.865C169.055 285.866 169.055 285.867 169.056 285.867C169.058 285.874 169.061 285.88 169.063 285.886C169.063 285.886 169.063 285.887 169.064 285.887C169.066 285.893 169.068 285.899 169.071 285.905C169.071 285.906 169.072 285.907 169.072 285.908C169.074 285.913 169.077 285.919 169.079 285.925C169.079 285.926 169.079 285.926 169.08 285.927C169.082 285.933 169.085 285.939 169.087 285.945C169.087 285.946 169.088 285.947 169.088 285.947V285.948C169.09 285.953 169.092 285.958 169.094 285.964C169.096 285.969 169.098 285.973 169.099 285.977C169.1 285.98 169.101 285.982 169.102 285.984C170.785 290.221 170.22 294.809 167.978 298.429Z" fill="#EF968A"/>
<path d="M101.598 214.184C101.658 209.777 102.306 204.477 102.812 200.958C102.306 204.478 101.658 209.779 101.599 214.184C101.598 214.184 101.599 214.184 101.598 214.184ZM105.338 200.666C104.647 199.846 104.093 198.994 103.739 198.12L103.76 198.156C104.113 199.009 104.65 199.842 105.324 200.643L105.338 200.666Z" fill="#C48257"/>
<path d="M112.041 205.979C109.591 204.513 107.045 202.69 105.338 200.666L105.324 200.643C105.324 200.643 105.324 200.644 105.325 200.644L103.76 198.155V198.156L103.739 198.12C103.6 197.779 103.492 197.433 103.418 197.085C103.418 197.085 103.393 197.229 103.348 197.497C103.344 197.456 103.147 194.929 104.683 193.302C105.506 192.43 107.702 191.283 110.463 190.927C110.724 191.865 112.603 198.93 112.041 205.979Z" fill="#99261F"/>
<path d="M107.01 217.788L104.306 217.6L104.554 215.238C104.62 214.61 104.31 214.002 103.762 213.686L103.738 213.672C103.485 213.527 103.211 213.457 102.941 213.457C102.413 213.457 101.9 213.72 101.599 214.184C101.658 209.779 102.306 204.478 102.812 200.958C103.044 199.342 103.246 198.102 103.348 197.498C103.392 197.229 103.418 197.085 103.418 197.085C103.492 197.433 103.6 197.779 103.739 198.12C104.093 198.994 104.647 199.846 105.338 200.666C107.044 202.69 109.591 204.513 112.041 205.979C111.686 210.441 110.353 214.898 107.01 217.788ZM105.097 205.409C104.753 205.409 104.408 206.163 104.321 207.12C104.231 208.097 104.443 208.915 104.793 208.947C104.801 208.947 104.808 208.948 104.815 208.948C105.158 208.948 105.503 208.193 105.591 207.237C105.681 206.26 105.469 205.442 105.118 205.41C105.111 205.409 105.104 205.409 105.097 205.409ZM104.768 204.171C104.999 204.171 105.303 204.199 105.581 204.291C105.864 204.386 106.109 204.534 106.292 204.778C106.411 204.937 106.594 205.02 106.778 205.02C106.904 205.02 107.032 204.981 107.141 204.899C107.408 204.699 107.463 204.319 107.262 204.052C106.899 203.567 106.412 203.29 105.961 203.141C105.508 202.992 105.081 202.96 104.76 202.959C104.44 202.959 104.226 202.993 104.202 202.997C103.871 203.052 103.648 203.364 103.703 203.694C103.751 203.99 104.008 204.201 104.3 204.201C104.333 204.201 104.365 204.199 104.398 204.193C104.418 204.19 104.56 204.171 104.758 204.171C104.759 204.171 104.759 204.171 104.76 204.171C104.763 204.171 104.765 204.171 104.768 204.171Z" fill="#BF5C65"/>
<path d="M104.815 208.948C104.808 208.948 104.801 208.947 104.794 208.947C104.443 208.915 104.231 208.096 104.321 207.12C104.409 206.163 104.753 205.409 105.097 205.409C105.104 205.409 105.111 205.409 105.118 205.41C105.469 205.441 105.681 206.26 105.591 207.237C105.503 208.193 105.159 208.948 104.815 208.948Z" fill="#99261F"/>
<path d="M106.778 205.02C106.594 205.02 106.411 204.936 106.293 204.778C106.109 204.534 105.864 204.386 105.581 204.291C105.303 204.199 104.999 204.17 104.768 204.17C104.765 204.17 104.763 204.17 104.76 204.17C104.759 204.17 104.759 204.17 104.758 204.17C104.56 204.17 104.419 204.189 104.399 204.192C104.365 204.199 104.333 204.201 104.3 204.201C104.008 204.201 103.751 203.99 103.703 203.694C103.649 203.364 103.871 203.051 104.202 202.997C104.226 202.993 104.44 202.959 104.76 202.959C105.081 202.96 105.508 202.992 105.961 203.141C106.413 203.289 106.899 203.566 107.262 204.051C107.463 204.318 107.408 204.698 107.141 204.899C107.032 204.981 106.904 205.02 106.778 205.02Z" fill="#99261F"/>
<path d="M101.487 214.385L72.6039 276.759C70.6171 281.051 71.863 286.145 75.6056 289.035L75.7748 289.166C81.0216 293.217 88.6811 291.22 91.2835 285.124L110.081 241.083C111.466 237.878 110.682 234.148 108.126 231.77L103.29 227.272L104.554 215.238C104.62 214.61 104.31 214.001 103.763 213.686L103.738 213.672C102.924 213.202 101.883 213.533 101.487 214.385Z" fill="#F18C8D"/>
<path d="M89.8111 287.54C87.3033 281.922 81.6791 278.001 75.1294 278.001C74.0718 278.001 73.0398 278.11 72.0389 278.305C70.9489 282.221 72.3035 286.486 75.6055 289.035L75.7747 289.166C80.2462 292.618 86.4588 291.667 89.8111 287.54Z" fill="#E66466"/>
<path d="M118.696 192.675C118.695 192.675 118.695 192.675 118.695 192.675C118.695 192.675 118.695 192.675 118.696 192.675ZM118.641 192.643C118.64 192.642 118.639 192.641 118.638 192.64C118.639 192.641 118.64 192.642 118.641 192.643ZM118.613 192.625C118.612 192.625 118.61 192.624 118.609 192.623C118.61 192.624 118.612 192.625 118.613 192.625ZM118.586 192.608C118.585 192.608 118.584 192.607 118.583 192.606C118.584 192.607 118.585 192.608 118.586 192.608ZM118.558 192.592C118.556 192.591 118.554 192.589 118.552 192.588C118.554 192.589 118.556 192.591 118.558 192.592ZM118.528 192.574C118.52 192.569 118.513 192.565 118.505 192.56C118.513 192.565 118.52 192.569 118.528 192.574ZM118.495 192.554C118.492 192.552 118.487 192.55 118.483 192.547C118.487 192.55 118.492 192.552 118.495 192.554ZM118.469 192.539C118.467 192.538 118.465 192.537 118.463 192.536C118.465 192.537 118.467 192.538 118.469 192.539Z" fill="#F6E0A7"/>
<path d="M125.63 206.228C118.503 203.409 114.985 195.937 113.371 190.879C115.022 191.039 116.758 191.527 118.463 192.536C118.465 192.537 118.467 192.538 118.469 192.539C118.474 192.542 118.478 192.545 118.482 192.547C118.486 192.55 118.491 192.552 118.494 192.554C118.498 192.556 118.501 192.558 118.504 192.56C118.512 192.565 118.519 192.569 118.528 192.574C118.536 192.578 118.544 192.584 118.552 192.589C118.554 192.59 118.556 192.592 118.558 192.593C118.566 192.598 118.574 192.602 118.582 192.607C118.583 192.608 118.584 192.609 118.585 192.609C118.593 192.614 118.601 192.619 118.608 192.623C118.609 192.624 118.611 192.625 118.612 192.625C118.62 192.63 118.628 192.635 118.637 192.64C118.638 192.641 118.639 192.642 118.64 192.643C118.659 192.653 118.676 192.664 118.694 192.675C118.694 192.675 118.694 192.675 118.695 192.675C123.371 195.534 126.171 199.516 125.63 206.228Z" fill="#D44739"/>
<path d="M146.136 288.74L153.406 285.244L152.911 284.215L145.641 287.71" fill="#8A2B33"/>
<path d="M124.883 302.117L129.639 303.969L130.053 302.905L125.299 301.052" fill="#8A2B33"/>
<path d="M124.883 307.33L129.639 309.183L130.053 308.118L125.299 306.266" fill="#8A2B33"/>
<path d="M132.147 258.647C132.147 258.647 129.554 278.845 134.601 284.73C135.37 265.586 135.37 265.586 135.37 265.586L132.147 258.647Z" fill="#979A9F"/>
<path d="M101.525 298.14C99.6932 298.139 99.3509 297.107 101.91 295.361C110.049 289.81 123.294 250.297 123.294 250.297C123.294 250.297 125.368 260.94 120.17 280.097C116.606 293.232 105.52 298.14 101.525 298.14Z" fill="#E6E6E7"/>
<path d="M94.499 277.589C85.0167 255.943 103.29 227.272 103.29 227.272L108.126 231.77C109.839 233.364 110.755 235.564 110.758 237.805C110.759 238.91 110.538 240.025 110.08 241.083L94.499 277.589Z" fill="#F6B6B7"/>
<path id="question12" d="M109.153 153.017C116.797 153.017 121.965 158.293 121.965 164.43C121.965 170.46 117.013 175.519 109.153 175.519C102.156 175.519 96.8803 170.028 96.8803 164.43C96.8803 159.047 101.402 153.017 109.153 153.017ZM83.207 112.322C90.7437 103.602 100.433 98.4343 111.2 98.4343C125.518 98.4343 136.822 105.97 136.822 120.504C136.822 134.5 119.704 137.946 119.704 144.405V150.327H99.7874L99.6796 141.714C99.6796 131.809 116.797 126.211 116.797 120.29C116.797 116.198 112.599 115.23 108.83 115.23C104.201 115.23 98.4956 119.751 94.8344 124.058L83.207 112.322Z" fill="#B38D3E"/>
<path id="question6" d="M111.638 153.017C119.282 153.017 124.45 158.293 124.45 164.43C124.45 170.46 119.499 175.519 111.638 175.519C104.641 175.519 99.3658 170.028 99.3658 164.43C99.3658 159.047 103.888 153.017 111.638 153.017ZM85.6924 112.322C93.2288 103.602 102.918 98.4343 113.684 98.4343C128.003 98.4343 139.308 105.97 139.308 120.504C139.308 134.5 122.189 137.946 122.189 144.405V150.327H102.272L102.164 141.714C102.164 131.809 119.282 126.211 119.282 120.29C119.282 116.198 115.084 115.23 111.316 115.23C106.686 115.23 100.981 119.751 97.3195 124.058L85.6924 112.322Z" fill="#FFCB31"/>
<path d="M94.834 124.058H97.319L94.7896 121.504L94.834 124.058Z" fill="#B38D3E"/>
<path id="question3" d="M181.836 108.078C176.485 108.078 172.451 103.878 172.451 99.5973C172.451 95.4807 175.909 90.8701 181.836 90.8701C187.682 90.8701 191.634 94.9051 191.634 99.5973C191.634 104.208 187.847 108.078 181.836 108.078Z" fill="#F9E6B7"/>
<path id="question4" d="M178.296 75.3157C182.166 71.6163 187.681 68.7818 187.681 65.8425C187.681 62.7137 184.471 61.9728 181.589 61.9728C178.049 61.9728 173.685 65.4312 170.886 68.7243L161.995 59.7501C167.758 53.0822 175.167 49.1298 183.401 49.1298C194.35 49.1298 202.995 54.8926 202.995 66.0068C202.995 66.0159 202.995 66.0249 202.995 66.033C194.493 68.553 186.243 71.6637 178.296 75.3157Z" fill="#F6DA96"/>
<path id="question5" d="M189.904 88.813H174.674L174.592 82.2267C174.592 79.5686 176.204 77.3158 178.296 75.3159C186.243 71.6639 194.493 68.5532 202.995 66.0332C202.974 76.7149 189.904 79.3489 189.904 84.2851V88.813Z" fill="#F9E6B7"/>
<path id="question2" d="M337.55 164.686C332.811 164.686 329.239 160.968 329.239 157.176C329.239 153.532 332.301 149.448 337.55 149.448C342.727 149.448 346.227 153.021 346.227 157.176C346.227 161.259 342.873 164.686 337.55 164.686ZM344.696 147.626H331.208L331.135 141.793C331.135 135.086 342.727 131.295 342.727 127.285C342.727 124.514 339.883 123.858 337.331 123.858C334.197 123.858 330.333 126.92 327.854 129.836L319.98 121.89C325.084 115.985 331.645 112.485 338.936 112.485C348.633 112.485 356.288 117.588 356.288 127.43C356.288 136.909 344.696 139.242 344.696 143.616V147.626Z" fill="#F5DEA0"/>
<path id="question11" d="M398.891 146.75C408.664 146.75 415.272 153.495 415.272 161.341C415.272 169.05 408.94 175.519 398.891 175.519C389.945 175.519 383.199 168.498 383.199 161.341C383.199 154.459 388.981 146.75 398.891 146.75ZM365.717 94.7178C375.353 83.5683 387.741 76.9608 401.507 76.9608C419.815 76.9608 434.268 86.5963 434.268 105.179C434.268 123.074 412.381 127.479 412.381 135.738V143.308H386.916L386.777 132.297C386.777 119.633 408.664 112.475 408.664 104.904C408.664 99.6731 403.296 98.4343 398.478 98.4343C392.559 98.4343 385.264 104.216 380.583 109.722L365.717 94.7178Z" fill="#B38D3E"/>
<path id="question1" d="M402.069 146.75C411.841 146.75 418.45 153.495 418.45 161.341C418.45 169.05 412.118 175.519 402.069 175.519C393.122 175.519 386.376 168.498 386.376 161.341C386.376 154.459 392.158 146.75 402.069 146.75ZM368.895 94.7178C378.53 83.5683 390.918 76.9608 404.685 76.9608C422.992 76.9608 437.446 86.5963 437.446 105.179C437.446 123.074 415.558 127.479 415.558 135.738V143.308H390.093L389.956 132.297C389.956 119.633 411.841 112.475 411.841 104.904C411.841 99.6731 406.474 98.4343 401.656 98.4343C395.737 98.4343 388.442 104.216 383.761 109.722L368.895 94.7178Z" fill="#FFCB31"/>
<path d="M380.583 109.722H383.761L380.527 106.458L380.583 109.722Z" fill="#B38D3E"/>
<path d="M474.904 460.265C474.904 462.411 443.731 464.15 405.277 464.15C366.821 464.15 335.648 462.411 335.648 460.265C335.648 458.12 366.821 456.38 405.277 456.38C443.731 456.38 474.904 458.12 474.904 460.265Z" fill="#B38D3E"/>
<path d="M418.911 307.076L439.376 370.632C442.003 378.788 440.084 387.726 434.341 394.085L388.546 444.796C388.546 444.796 388.414 459.318 376.796 461.255L370.02 417.688L412.093 378.478L418.911 307.076Z" fill="#979A9F"/>
<path d="M419.872 410.107C419.376 408.946 418.922 407.598 418.507 406.081C418.376 404.248 418.253 402.456 418.138 400.7C414.414 344.083 418.395 326.53 418.893 311.963C419.21 311.027 419.539 310.379 419.872 310.061C419.887 310.165 430.297 387.45 419.872 410.107Z" fill="#7A7578"/>
<path d="M386.478 308.424C386.478 308.424 375.345 331.522 385.026 396.388C394.707 461.255 394.707 461.255 394.707 461.255H436.792C436.792 461.255 433.504 446.731 421.851 444.312C411.618 343.414 419.491 326.227 418.911 307.076C396.16 304.898 386.478 308.424 386.478 308.424Z" fill="#E7E9EA"/>
<path d="M394.708 461.255H436.793C436.793 461.255 433.505 446.731 421.851 444.312H392.179C394.707 461.252 394.708 461.255 394.708 461.255Z" fill="#3F2B24"/>
<path d="M370.02 417.688L376.796 461.255C388.414 459.317 388.546 444.796 388.546 444.796L381.891 406.624L370.02 417.688Z" fill="#3F2B24"/>
<path d="M418.893 311.963C418.949 310.313 418.96 308.702 418.911 307.076C418.96 308.702 418.949 310.313 418.893 311.963C418.893 311.964 418.893 311.962 418.893 311.963Z" fill="#BEC0C2"/>
<path d="M418.138 400.7C414.414 344.083 418.395 326.531 418.893 311.963C418.893 311.962 418.893 311.964 418.893 311.963C418.395 326.531 414.414 344.083 418.138 400.7Z" fill="#ABA8A6"/>
<path d="M421.851 444.312C395.725 415.237 401.96 327.018 403.44 309.951C407.996 309.681 413.246 308.865 418.911 307.076C418.96 308.702 418.949 310.313 418.892 311.963C418.395 326.531 414.414 344.083 418.137 400.7C418.959 413.202 420.157 427.61 421.851 444.312Z" fill="#F1F1F2"/>
<path d="M422.015 444.346C422.014 444.346 422.014 444.346 422.014 444.346C422.014 444.346 422.014 444.346 422.015 444.346ZM421.978 444.339C421.975 444.337 421.971 444.337 421.968 444.337C421.972 444.337 421.975 444.337 421.978 444.339ZM421.94 444.33C421.936 444.329 421.932 444.328 421.929 444.327C421.933 444.328 421.936 444.329 421.94 444.33ZM421.9 444.321C421.896 444.321 421.893 444.32 421.889 444.319C421.893 444.32 421.896 444.321 421.9 444.321Z" fill="#EED45F"/>
<path d="M429.703 449.081C427.413 449.08 424.81 447.604 421.851 444.311C421.864 444.314 421.876 444.316 421.889 444.319C421.893 444.32 421.896 444.321 421.9 444.321C421.91 444.323 421.92 444.325 421.929 444.327C421.932 444.328 421.936 444.329 421.94 444.33C421.949 444.332 421.959 444.334 421.968 444.337C421.971 444.337 421.975 444.337 421.978 444.338C421.99 444.34 422.002 444.343 422.014 444.346C422.014 444.346 422.014 444.346 422.015 444.346C425.441 445.096 428.13 446.897 430.226 449.055C430.053 449.072 429.88 449.081 429.703 449.081Z" fill="#5D4035"/>
<path d="M415.474 205.104C415.474 205.104 410.169 201.094 403.705 202.49C397.242 203.885 388.52 211.91 387.647 230.4C386.776 248.889 389.915 255.169 393.579 255.169C397.242 255.169 406.487 235.809 406.487 235.809L410.237 217.84C410.237 217.84 415.566 207.892 415.474 205.104Z" fill="#399B77"/>
<path d="M387.545 233.142V233.141V233.142ZM387.547 233.086V233.084V233.086ZM387.55 232.969C387.55 232.967 387.55 232.964 387.55 232.962C387.55 232.965 387.55 232.966 387.55 232.969ZM387.552 232.917C387.552 232.908 387.552 232.901 387.552 232.893C387.552 232.9 387.552 232.908 387.552 232.917ZM387.553 232.861C387.553 232.853 387.554 232.845 387.554 232.837C387.554 232.845 387.553 232.853 387.553 232.861ZM387.555 232.805C387.555 232.798 387.555 232.79 387.555 232.782C387.555 232.79 387.555 232.798 387.555 232.805ZM387.556 232.753C387.557 232.743 387.557 232.733 387.557 232.723C387.557 232.734 387.557 232.742 387.556 232.753ZM387.558 232.701C387.558 232.69 387.559 232.681 387.559 232.671C387.559 232.68 387.558 232.691 387.558 232.701ZM387.56 232.646C387.561 232.586 387.563 232.525 387.565 232.464C387.563 232.524 387.561 232.587 387.56 232.646ZM387.566 232.458C387.566 232.443 387.567 232.427 387.567 232.412C387.567 232.428 387.566 232.442 387.566 232.458ZM387.567 232.406C387.568 232.391 387.568 232.377 387.569 232.363C387.568 232.377 387.568 232.392 387.567 232.406ZM387.569 232.349C387.57 232.335 387.57 232.32 387.571 232.306C387.57 232.321 387.57 232.334 387.569 232.349ZM387.571 232.304C387.584 231.908 387.599 231.506 387.616 231.099C387.599 231.507 387.584 231.908 387.571 232.304ZM387.616 231.097C387.619 231.062 387.62 231.028 387.622 230.992C387.62 231.028 387.619 231.062 387.616 231.097ZM387.622 230.988C387.625 230.92 387.628 230.85 387.631 230.782C387.628 230.85 387.625 230.92 387.622 230.988ZM387.631 230.776C387.632 230.761 387.632 230.746 387.633 230.732C387.632 230.746 387.632 230.761 387.631 230.776ZM387.634 230.721C387.634 230.708 387.635 230.694 387.635 230.681C387.635 230.694 387.634 230.709 387.634 230.721ZM387.636 230.661C387.637 230.65 387.637 230.637 387.638 230.625C387.637 230.637 387.637 230.65 387.636 230.661ZM387.639 230.605C387.639 230.593 387.64 230.582 387.64 230.571C387.64 230.582 387.639 230.594 387.639 230.605ZM387.642 230.542C387.642 230.533 387.642 230.524 387.643 230.514C387.642 230.524 387.642 230.533 387.642 230.542ZM387.645 230.478C387.645 230.471 387.645 230.465 387.645 230.458C387.645 230.465 387.645 230.471 387.645 230.478Z" fill="#328549"/>
<path d="M387.807 243.442C387.537 240.621 387.434 237.213 387.545 233.142V233.141C387.546 233.122 387.546 233.105 387.547 233.086V233.084C387.548 233.045 387.549 233.007 387.55 232.969C387.55 232.966 387.55 232.965 387.55 232.962C387.551 232.947 387.551 232.932 387.552 232.917C387.552 232.909 387.552 232.9 387.552 232.893C387.553 232.882 387.553 232.872 387.553 232.861C387.553 232.853 387.554 232.845 387.554 232.837C387.554 232.827 387.554 232.816 387.555 232.805C387.555 232.798 387.555 232.79 387.555 232.783C387.556 232.772 387.556 232.763 387.556 232.753C387.557 232.742 387.557 232.734 387.557 232.723C387.557 232.715 387.558 232.708 387.558 232.701C387.558 232.691 387.559 232.68 387.559 232.671C387.559 232.663 387.559 232.655 387.56 232.646C387.561 232.587 387.563 232.524 387.565 232.464C387.565 232.462 387.565 232.46 387.566 232.458C387.566 232.442 387.567 232.428 387.567 232.412C387.567 232.41 387.567 232.408 387.567 232.406C387.568 232.392 387.568 232.377 387.569 232.363C387.569 232.359 387.569 232.353 387.569 232.349C387.57 232.334 387.57 232.321 387.571 232.306C387.571 232.305 387.571 232.304 387.571 232.304C387.584 231.908 387.599 231.507 387.617 231.099C387.617 231.098 387.617 231.098 387.617 231.097C387.619 231.062 387.62 231.028 387.622 230.992C387.622 230.991 387.622 230.99 387.622 230.988C387.625 230.92 387.628 230.85 387.631 230.782C387.631 230.78 387.631 230.778 387.631 230.776C387.632 230.761 387.632 230.746 387.633 230.732C387.633 230.728 387.633 230.725 387.634 230.721C387.634 230.709 387.635 230.694 387.635 230.681C387.636 230.675 387.636 230.668 387.636 230.661C387.637 230.65 387.637 230.638 387.638 230.625C387.638 230.618 387.638 230.612 387.639 230.605C387.639 230.594 387.64 230.582 387.64 230.571C387.641 230.561 387.641 230.552 387.642 230.542C387.642 230.533 387.642 230.524 387.643 230.515C387.643 230.502 387.644 230.49 387.645 230.478C387.645 230.471 387.645 230.465 387.645 230.458C387.646 230.439 387.647 230.419 387.648 230.4C388.521 211.91 397.242 203.885 403.705 202.49C404.661 202.283 405.585 202.206 406.476 202.206C406.494 202.206 406.513 202.206 406.53 202.206C405.98 204.624 404.428 208.421 400.071 212.443C393.97 218.077 390.756 232.242 390.724 241.662L387.807 243.442Z" fill="#225737"/>
<path d="M403.705 233.739L385.026 245.14L386.478 308.424C386.478 308.424 400.517 312.885 418.911 307.076C417.701 271.981 417.701 271.981 417.701 271.981C417.701 271.981 422.3 266.917 421.816 255.169C421.332 243.421 417.323 236.07 417.323 236.07L410.237 233.668L403.705 233.739Z" fill="#20606F"/>
<path d="M385.026 245.139C385.026 245.139 391.077 246.806 391.077 256.852C391.077 266.898 391.077 287.211 391.077 287.211H432.949V290.414C432.949 295.727 428.642 300.035 423.328 300.035H383.246C379.683 300.035 376.796 297.147 376.796 293.585V256.277C376.796 256.277 377.765 248.261 385.026 245.139Z" fill="#F18C8D"/>
<path d="M386.015 287.653H391.077V286.771H386.015V287.653Z" fill="#8A2B33"/>
<path d="M389.203 248.799C387.426 245.801 385.026 245.14 385.026 245.14L403.705 233.739C403.705 234.446 403.705 235.138 403.705 235.809C403.705 236.917 403.869 237.897 404.152 238.764C401.356 240.488 394.458 244.822 389.203 248.799Z" fill="#9B2C24"/>
<path d="M377.659 296.799C377.122 295.867 376.806 294.792 376.796 293.642C376.796 293.641 376.796 293.639 376.796 293.638C376.796 293.63 376.796 293.623 376.796 293.616C376.796 293.614 376.796 293.612 376.796 293.61C376.796 293.602 376.796 293.593 376.796 293.585V256.277C376.796 256.277 377.765 248.261 385.026 245.14C385.026 245.14 387.426 245.801 389.203 248.799C385.874 251.318 383.206 253.692 382.657 255.169C381.292 258.842 383.066 287.12 377.659 296.799Z" fill="#C37678"/>
<path d="M415.474 205.104C415.474 205.104 422.536 212.217 419.887 226.928C412.238 228.105 412.238 228.105 412.238 228.105V245.14C412.238 245.14 403.705 243.806 403.705 235.809C403.705 227.811 403.705 216.681 403.705 216.681C403.705 216.681 413.121 212.701 415.474 205.104Z" fill="#F18C8D"/>
<path d="M415.241 214.531C415.232 214.53 415.047 214.518 414.74 214.518C413.816 214.522 411.801 214.608 410.092 215.456L410.557 216.386C411.987 215.665 413.896 215.554 414.74 215.559C414.88 215.559 414.992 215.561 415.067 215.564L415.176 215.568L415.241 214.531Z" fill="#3F2B24"/>
<path d="M412.237 228.105L407.708 228.83C407.708 228.83 409.801 234.764 412.767 235.809C412.237 228.105 412.237 228.105 412.237 228.105Z" fill="#3F2B24"/>
<path d="M406.487 220.108C406.487 222.42 404.612 224.294 402.3 224.294C399.989 224.294 398.114 222.42 398.114 220.108C398.114 217.795 399.989 215.922 402.3 215.922C404.612 215.922 406.487 217.795 406.487 220.108Z" fill="#F18C8D"/>
<path d="M415.298 211.048C415.278 211.045 414.676 210.94 413.834 210.94C412.727 210.945 411.187 211.106 410.001 212.036C409.776 212.214 409.739 212.541 409.917 212.767C410.096 212.991 410.422 213.029 410.648 212.85C411.499 212.163 412.836 211.974 413.834 211.979C414.211 211.979 414.538 212.004 414.767 212.028C414.882 212.039 414.973 212.051 415.033 212.06L415.119 212.073C415.402 212.123 415.671 211.933 415.721 211.65C415.77 211.368 415.581 211.097 415.298 211.048Z" fill="#399B77"/>
<path d="M391.077 253.993L397.128 287.211H391.077V253.993Z" fill="#2A1D19"/>
<path d="M417.984 280.211C417.701 271.982 417.701 271.981 417.701 271.981L417.984 280.211Z" fill="#F6E0A7"/>
<path d="M404.872 281.943C402.372 281.943 417.701 271.981 417.701 271.981C417.701 271.981 417.701 271.982 417.985 280.211C417.979 280.211 407.373 281.943 404.872 281.943Z" fill="#D44739"/>
<path d="M413.142 227.966C414.009 227.833 415.709 227.571 419.039 227.059C415.702 227.572 414.007 227.833 413.142 227.966Z" fill="#F5D894"/>
<path d="M408.189 214.112C407.838 209.518 408.203 205.078 408.535 202.353C412.611 202.95 415.475 205.104 415.475 205.104C414.729 207.51 413.275 209.553 411.637 211.222C411.068 211.387 410.503 211.642 410.001 212.036C409.776 212.214 409.739 212.541 409.917 212.767C409.923 212.773 409.928 212.779 409.933 212.785C409.345 213.273 408.757 213.715 408.189 214.112Z" fill="#40B890"/>
<path d="M413.142 227.966C409.881 224.624 408.584 219.27 408.188 214.112C408.757 213.715 409.345 213.273 409.932 212.785C410.034 212.902 410.179 212.963 410.324 212.963C410.438 212.963 410.552 212.926 410.648 212.85C411.487 212.172 412.798 211.979 413.792 211.979C413.805 211.979 413.819 211.979 413.833 211.979C414.21 211.979 414.538 212.004 414.767 212.028C414.882 212.039 414.972 212.051 415.033 212.06L415.119 212.073C415.149 212.078 415.179 212.08 415.209 212.08C415.457 212.08 415.677 211.903 415.72 211.65C415.77 211.368 415.581 211.097 415.298 211.048C415.278 211.045 414.676 210.94 413.833 210.94C413.195 210.943 412.412 210.998 411.637 211.222C413.275 209.553 414.728 207.51 415.474 205.104C415.474 205.104 420.478 210.145 420.482 220.515C420.482 221.56 420.432 222.66 420.321 223.813L419.875 223.419C419.652 223.222 419.381 223.129 419.114 223.129C418.68 223.129 418.254 223.374 418.059 223.814L418.05 223.834C417.92 224.127 417.918 224.462 418.045 224.758L419.04 227.059C415.709 227.571 414.01 227.833 413.142 227.966ZM414.739 214.519C413.816 214.523 411.801 214.608 410.092 215.456L410.557 216.386C411.961 215.677 413.829 215.558 414.694 215.558C414.709 215.558 414.724 215.558 414.739 215.559C414.88 215.559 414.991 215.561 415.067 215.564L415.176 215.568L415.24 214.531C415.231 214.53 415.047 214.519 414.739 214.519Z" fill="#F4A6A7"/>
<path d="M410.557 216.386L410.092 215.456C411.801 214.608 413.816 214.522 414.74 214.518C415.047 214.518 415.232 214.53 415.241 214.531L415.176 215.568L415.067 215.564C414.992 215.561 414.88 215.559 414.74 215.559C414.725 215.558 414.709 215.558 414.694 215.558C413.829 215.558 411.962 215.677 410.557 216.386Z" fill="#52382F"/>
<path d="M410.325 212.963C410.18 212.963 410.034 212.902 409.933 212.785C409.928 212.779 409.922 212.773 409.917 212.767C409.739 212.541 409.776 212.214 410.001 212.036C410.503 211.642 411.068 211.387 411.637 211.222C412.412 210.998 413.195 210.943 413.834 210.94C414.676 210.94 415.278 211.045 415.298 211.048C415.581 211.097 415.77 211.367 415.721 211.65C415.677 211.903 415.457 212.08 415.209 212.08C415.179 212.08 415.149 212.078 415.119 212.073L415.033 212.06C414.973 212.051 414.882 212.039 414.767 212.028C414.538 212.004 414.211 211.979 413.834 211.979C413.819 211.979 413.805 211.979 413.792 211.979C412.798 211.979 411.487 212.172 410.648 212.85C410.552 212.926 410.439 212.963 410.325 212.963Z" fill="#40B890"/>
<path d="M404.872 225.285C404.872 226.476 403.908 227.442 402.716 227.442C401.526 227.442 400.56 226.476 400.56 225.285C400.56 224.095 401.526 223.129 402.716 223.129C403.908 223.129 404.872 224.095 404.872 225.285Z" fill="#3F2B24"/>
<path d="M426.038 447.889C426.038 448.547 425.505 449.081 424.846 449.081H406.468C405.81 449.081 405.276 448.547 405.276 447.889C405.276 447.229 405.81 446.696 406.468 446.696H424.846C425.505 446.696 426.038 447.229 426.038 447.889Z" fill="#F0B844"/>
<path d="M401.502 444.312H400.439C393.512 411.716 391.766 378.258 391.765 352.773C391.765 329.701 393.197 313.164 393.521 309.73C393.855 309.767 394.201 309.8 394.556 309.832C394.551 309.879 394.547 309.929 394.542 309.981C394.493 310.513 394.421 311.304 394.337 312.334C394.166 314.393 393.939 317.411 393.713 321.24C393.259 328.897 392.805 339.8 392.805 352.773C392.805 378.266 394.559 411.755 401.502 444.312Z" fill="#918888"/>
<path d="M400.98 446.808C400.797 445.977 400.616 445.144 400.439 444.311H401.502C401.664 445.07 401.828 445.826 401.996 446.584L400.98 446.808Z" fill="#3F2B24"/>
<path d="M394.556 309.832C394.201 309.8 393.855 309.767 393.521 309.73C393.561 309.296 393.585 309.071 393.585 309.069L394.62 309.176C394.62 309.176 394.597 309.398 394.556 309.832Z" fill="#7D2F27"/>
<path d="M420.167 218.253L418.251 218.732C418.251 218.732 420.108 219.947 420.167 218.253Z" fill="#3F2B24"/>
<path d="M417.684 227.268C417.684 227.268 417.684 224.276 418.059 223.814C419.04 227.059 419.04 227.059 419.04 227.059L417.684 227.268Z" fill="#E66466"/>
<path d="M417.323 236.07C418.797 233.493 420.482 230.4 420.482 230.4L418.045 224.758C417.918 224.463 417.92 224.127 418.05 223.834L418.059 223.814C418.374 223.102 419.292 222.902 419.875 223.419L428.099 230.704C429.022 231.523 429.695 232.586 430.041 233.77L443.302 279.247C444.473 283.262 442.315 287.494 438.379 288.904L438.228 288.958C433.932 290.499 429.228 288.09 427.964 283.706L416.418 243.666C415.683 241.116 416.006 238.374 417.323 236.07Z" fill="#F18C8D"/>
<path d="M443.596 281.968C442.153 280.87 440.359 280.211 438.407 280.211C434.238 280.211 430.767 283.185 429.991 287.126C432.079 289.194 435.25 290.026 438.228 288.958L438.379 288.904C441.425 287.812 443.397 285.03 443.596 281.968Z" fill="#E66466"/>
<path d="M443.327 279.338C443.327 279.336 443.328 279.335 443.327 279.334C443.328 279.335 443.327 279.336 443.327 279.338ZM443.321 279.316C443.32 279.312 443.318 279.307 443.317 279.302C443.319 279.307 443.32 279.312 443.321 279.316ZM443.315 279.293C443.313 279.286 443.311 279.28 443.309 279.273C443.311 279.28 443.313 279.286 443.315 279.293ZM443.308 279.27C443.306 279.263 443.304 279.255 443.302 279.247C443.304 279.255 443.306 279.263 443.308 279.27Z" fill="#EED45F"/>
<path d="M430.025 233.715C429.674 232.553 429.008 231.51 428.099 230.704C429.008 231.509 429.674 232.553 430.025 233.715Z" fill="#F6E0A7"/>
<path d="M443.587 282.111C443.586 282.111 443.585 282.11 443.584 282.109C443.588 282.062 443.592 282.015 443.595 281.968C443.273 281.723 442.933 281.499 442.577 281.299C438.275 277.716 432.222 271.035 428.098 259.661C421.067 240.268 428.098 230.704 428.098 230.704C429.008 231.51 429.674 232.553 430.025 233.715C430.03 233.734 430.036 233.752 430.041 233.77L443.302 279.247C443.304 279.255 443.306 279.263 443.308 279.27C443.309 279.271 443.309 279.272 443.309 279.273C443.311 279.28 443.313 279.286 443.315 279.293C443.316 279.297 443.316 279.299 443.317 279.302C443.318 279.307 443.32 279.312 443.321 279.316C443.323 279.322 443.325 279.328 443.326 279.334C443.327 279.335 443.327 279.336 443.327 279.338C443.586 280.264 443.663 281.201 443.587 282.111Z" fill="#F6B6B7"/>
<path d="M443.585 282.109C443.262 281.859 442.925 281.59 442.578 281.299C442.933 281.499 443.273 281.723 443.596 281.968C443.593 282.015 443.589 282.063 443.585 282.109Z" fill="#EF968A"/>
<path d="M372.693 364.702C372.693 364.702 364.183 381.429 350.473 377.465C353.957 363.624 372.693 364.702 372.693 364.702Z" fill="#4EC292"/>
<path d="M350.472 377.465C336.736 373.589 338.345 354.891 338.345 354.891C338.345 354.891 354.03 363.438 350.755 376.477C350.652 376.797 350.557 377.127 350.472 377.465Z" fill="#328549"/>
<path d="M350.473 377.465C350.557 377.127 350.652 376.797 350.755 376.477C350.673 376.803 350.578 377.133 350.473 377.465Z" fill="#2A704A"/>
<path d="M365.788 390.019C365.788 390.019 354.329 404.881 341.589 398.447C347.575 385.491 365.788 390.019 365.788 390.019Z" fill="#4EC292"/>
<path d="M341.589 398.447C337.055 396.194 334.764 392.467 333.695 388.593C335.124 384.621 336.281 380.757 337.023 377.167C340.723 381.367 345.874 389.239 342.05 397.529C341.889 397.825 341.735 398.132 341.589 398.447Z" fill="#328549"/>
<path d="M341.589 398.447C341.735 398.132 341.889 397.825 342.05 397.529C341.908 397.834 341.755 398.141 341.589 398.447Z" fill="#2A704A"/>
<path d="M355.095 412.673C355.095 412.673 341.299 425.396 329.823 416.91C337.905 405.146 355.095 412.673 355.095 412.673Z" fill="#4EC292"/>
<path d="M329.823 416.91C329.503 416.676 329.198 416.436 328.906 416.189C329.581 415.903 330.253 415.611 330.923 415.317C330.769 415.573 330.605 415.828 330.431 416.081C330.223 416.346 330.02 416.622 329.823 416.91Z" fill="#2F7835"/>
<path d="M328.906 416.189C326.639 414.268 325.253 411.979 324.468 409.58C326.445 405.653 328.4 401.542 330.182 397.421C332.632 402.169 334.692 409.059 330.923 415.317C330.253 415.611 329.581 415.903 328.906 416.189Z" fill="#328549"/>
<path d="M329.823 416.91C330.02 416.622 330.223 416.346 330.432 416.081C330.241 416.359 330.038 416.635 329.823 416.91Z" fill="#2A704A"/>
<path d="M306.364 442.05C306.413 442.013 316.936 434.168 328.416 419.673C339.893 405.179 352.337 384.02 356.144 357.365C356.223 356.806 355.834 356.287 355.275 356.207C354.715 356.127 354.197 356.517 354.118 357.076C350.382 383.254 338.138 404.099 326.811 418.402C321.149 425.552 315.719 431.064 311.711 434.783C309.707 436.642 308.058 438.054 306.913 438.997C306.341 439.47 305.895 439.825 305.594 440.061C305.442 440.179 305.327 440.267 305.252 440.326L305.141 440.409C304.687 440.747 304.594 441.388 304.931 441.842C305.269 442.294 305.91 442.388 306.364 442.05Z" fill="#4EC292"/>
<path d="M358.026 335.677C358.026 335.677 365.77 352.772 354.108 361C345.479 349.632 358.026 335.677 358.026 335.677Z" fill="#4EC292"/>
<path d="M267.735 459.391C267.735 459.391 278.087 365.68 318.935 357.219C359.783 348.758 323.753 412.239 312.433 431.475C301.112 450.712 323.294 434.971 336.653 424.743C342.128 420.551 345.702 431.16 336.524 441.77C327.889 451.751 307.97 461.733 267.735 459.391Z" fill="#4EC292"/>
<path d="M318.935 357.219C318.982 357.209 319.027 357.2 319.073 357.191C319.029 357.2 318.98 357.21 318.935 357.219Z" fill="#328549"/>
<path d="M272.389 459.605C270.866 459.549 269.321 459.483 267.735 459.391C267.735 459.391 267.881 458.066 268.209 455.715C288.275 449.872 300.276 433.814 300.276 415.407C300.276 414.092 300.214 412.786 300.093 411.494C302.566 430.536 302.457 455.049 273.049 459.518C272.827 459.551 272.61 459.574 272.389 459.605ZM299.464 407.226C297.867 399.283 293.962 391.998 288.2 386.106C295.712 371.597 305.729 359.955 318.935 357.219C318.981 357.21 319.029 357.2 319.073 357.191C321.542 356.687 323.727 356.448 325.653 356.448C327.692 356.448 329.44 356.716 330.923 357.22C330.874 357.247 301.271 373.872 297.638 391.182C297.334 394.477 298.446 400.283 299.483 407.18C299.477 407.197 299.471 407.21 299.464 407.226Z" fill="#2A704A"/>
<path d="M333.459 358.47C333.305 358.364 333.145 358.26 332.981 358.163C333.092 358.08 333.151 358.04 333.155 358.037L333.459 358.47Z" fill="#328549"/>
<path d="M299.814 409.217C299.743 408.748 299.664 408.281 299.579 407.817C299.546 407.604 299.515 407.391 299.483 407.18C313.7 373.151 331.07 359.58 332.982 358.163C333.145 358.26 333.305 358.364 333.46 358.47L333.777 358.922L333.701 358.976C333.649 359.014 333.569 359.074 333.464 359.153C333.253 359.314 332.938 359.559 332.532 359.893C331.721 360.561 330.538 361.586 329.073 363.005C326.14 365.842 322.068 370.259 317.532 376.556C313.887 381.618 309.942 387.893 306.047 395.543C305.616 395.696 305.185 395.856 304.752 396.022L305.141 397.032C305.205 397.007 305.27 396.982 305.335 396.957C303.466 400.718 301.612 404.799 299.814 409.217Z" fill="#2A704A"/>
<path d="M299.579 407.817C299.541 407.62 299.503 407.423 299.464 407.226C299.471 407.21 299.477 407.196 299.483 407.18C299.515 407.391 299.547 407.604 299.579 407.817Z" fill="#193D20"/>
<path d="M310.903 440.559C310.823 440.559 310.745 440.555 310.671 440.55C310.667 440.543 310.664 440.537 310.66 440.531C310.742 440.539 310.828 440.543 310.918 440.543C314.908 440.542 325.642 433.051 334.151 426.643C325.638 433.054 314.892 440.559 310.903 440.559Z" fill="#2F7835"/>
<path d="M315.123 442.881C313.219 442.881 311.664 442.192 310.67 440.549C310.745 440.555 310.823 440.559 310.902 440.559C314.892 440.559 325.637 433.054 334.151 426.643C335.011 425.996 335.848 425.359 336.653 424.743C337.492 424.101 338.286 423.806 338.995 423.806C340.347 423.806 341.395 424.874 341.872 426.638C336.57 431.383 322.911 442.881 315.123 442.881Z" fill="#2A704A"/>
<path d="M332.03 393.348C332.029 393.348 331.983 393.343 331.888 393.333C331.958 393.159 332.026 392.989 332.095 392.815L332.03 393.348Z" fill="#328549"/>
<path d="M305.335 396.958C305.572 396.481 305.81 396.009 306.047 395.543C314.301 392.609 322.196 392.042 327.102 392.041C330.23 392.041 332.143 392.272 332.16 392.274L332.095 392.816C332.026 392.989 331.958 393.159 331.888 393.333C331.839 393.328 331.776 393.321 331.7 393.314C331.479 393.292 331.15 393.264 330.726 393.236C329.876 393.18 328.639 393.122 327.102 393.122C327.099 393.122 327.095 393.122 327.092 393.122C322.055 393.122 313.8 393.739 305.335 396.958Z" fill="#2A704A"/>
<path d="M305.141 397.032L304.751 396.022C305.185 395.856 305.615 395.696 306.047 395.543C305.81 396.009 305.572 396.481 305.335 396.957C305.27 396.982 305.205 397.007 305.141 397.032Z" fill="#193D20"/>
<path d="M155.778 338.9C155.778 338.9 162.85 359.846 179.507 357.558C177.801 340.832 155.778 338.9 155.778 338.9Z" fill="#4EC292"/>
<path d="M179.507 357.558C179.465 357.149 179.411 356.748 179.347 356.358C177.748 340.602 197.483 333.309 197.483 333.309C197.483 333.309 196.178 355.377 179.507 357.558Z" fill="#328549"/>
<path d="M179.506 357.558C179.439 357.152 179.386 356.752 179.346 356.358C179.411 356.748 179.465 357.149 179.506 357.558Z" fill="#2A704A"/>
<path d="M159.518 369.585C159.518 369.585 170.345 388.859 186.291 383.528C181.518 367.407 159.518 369.585 159.518 369.585Z" fill="#4EC292"/>
<path d="M186.291 383.528C186.174 383.135 186.047 382.751 185.91 382.379C181.423 367.191 199.468 356.371 199.468 356.371C199.468 356.371 202.269 378.299 186.291 383.528Z" fill="#328549"/>
<path d="M186.291 383.528C186.149 383.143 186.023 382.759 185.91 382.379C186.047 382.751 186.174 383.135 186.291 383.528Z" fill="#2A704A"/>
<path d="M168.126 397.811C168.126 397.811 182.043 414.988 196.864 407.05C189.446 391.962 168.126 397.811 168.126 397.811Z" fill="#4EC292"/>
<path d="M195.728 404.704C190.261 390.957 205.282 378.062 205.282 378.062C205.282 378.062 206.278 381.325 206.585 385.765C201.306 391.271 197.628 397.885 195.728 404.704Z" fill="#328549"/>
<path d="M221.635 438.642L221.52 438.527C220.303 437.281 209.582 426.08 199.188 407.673C188.79 389.263 178.726 363.666 178.728 333.603C178.728 333.459 178.728 333.315 178.729 333.172C178.731 332.506 178.192 331.965 177.527 331.963C176.861 331.96 176.319 332.498 176.317 333.163C176.316 333.31 176.316 333.457 176.316 333.603C176.318 365.202 187.223 391.873 198.109 410.641C208.999 429.411 219.879 440.295 219.93 440.348C220.4 440.819 221.163 440.819 221.635 440.348C222.106 439.876 222.106 439.113 221.635 438.642Z" fill="#4EC292"/>
<path d="M177.813 307.563C177.813 307.563 165.878 326.172 178.07 337.748C190.065 325.965 177.813 307.563 177.813 307.563Z" fill="#4EC292"/>
<path d="M325.217 460.109C325.217 462.341 292.794 464.15 252.799 464.15C212.804 464.15 180.381 462.341 180.381 460.109C180.381 457.878 212.804 456.068 252.799 456.068C292.794 456.068 325.217 457.878 325.217 460.109Z" fill="#B38D3E"/>
<path d="M241.437 371.511C270.839 371.511 290.717 391.805 290.717 415.407C290.717 438.599 271.668 458.061 241.437 458.061C214.522 458.061 194.23 436.941 194.23 415.407C194.23 394.703 211.623 371.511 241.437 371.511ZM141.636 214.978C170.625 181.436 207.894 161.558 249.307 161.558C304.384 161.558 347.865 190.546 347.865 246.451C347.865 300.286 282.019 313.537 282.019 338.384V361.159H205.411L204.996 328.03C204.996 289.933 270.839 268.399 270.839 245.623C270.839 229.887 254.688 226.16 240.194 226.16C222.388 226.16 200.442 243.552 186.36 260.118L141.636 214.978Z" fill="#9B7838"/>
<path d="M250.995 371.511C280.397 371.511 300.276 391.805 300.276 415.407C300.276 438.599 281.227 458.061 250.995 458.061C224.079 458.061 203.788 436.941 203.788 415.407C203.788 394.703 221.181 371.511 250.995 371.511ZM151.195 214.978C180.184 181.436 217.453 161.558 258.865 161.558C313.942 161.558 357.423 190.546 357.423 246.451C357.423 300.286 291.578 313.537 291.578 338.384V361.159H214.969L214.554 328.03C214.554 289.933 280.397 268.399 280.397 245.623C280.397 229.887 264.247 226.16 249.753 226.16C231.947 226.16 210.001 243.552 195.919 260.118L151.195 214.978Z" fill="#EED45F"/>
<path d="M186.36 260.117H195.919L186.188 250.298L186.36 260.117Z" fill="#9B7838"/>
<path d="M197.324 177.278C198.403 175.123 199.511 173.084 200.571 171.234C208.24 168.086 216.156 165.666 224.283 164.035L221.011 167.307C212.857 169.842 204.948 173.186 197.324 177.278Z" fill="#825721"/>
<path d="M208.001 241.7C204.95 236.476 194.755 218.483 191.054 205.184C188.851 197.267 192.831 186.257 197.324 177.278C204.948 173.185 212.857 169.842 221.011 167.307L209.928 178.391L207.705 180.614C204.201 184.118 202.265 188.849 202.262 193.74C202.261 194.54 202.313 195.344 202.417 196.149L202.518 196.929L203.143 201.735L208.265 241.15C208.173 241.332 208.086 241.516 208.001 241.7Z" fill="#C9AF71"/>
<path d="M270.333 241.088C270.329 241.085 270.327 241.084 270.327 241.084L270.329 241.075C270.33 241.08 270.332 241.084 270.333 241.088Z" fill="#C79342"/>
<path d="M279.731 249.66C274.763 245.338 270.511 241.259 270.334 241.088C270.333 241.083 270.331 241.079 270.33 241.074L272.922 231.371C274.375 232.33 275.666 233.451 276.75 234.751L275.346 238.4L279.925 241.227C280.233 242.576 280.397 244.039 280.397 245.623C280.397 246.971 280.166 248.317 279.731 249.66Z" fill="#825721"/>
<path d="M292.979 258.683C291.926 258.683 290.752 258.314 289.453 257.421C286.531 255.412 282.978 252.484 279.731 249.66C280.165 248.317 280.397 246.971 280.397 245.623C280.397 244.039 280.233 242.576 279.924 241.228L299.206 253.134C298.079 255.567 296.038 258.683 292.979 258.683ZM276.749 234.751C275.666 233.451 274.374 232.33 272.922 231.371L282.712 194.726L249.504 174.505H256.797L256.859 174.516L266.197 176.104V178.222C266.197 182.367 273.175 184.866 277.777 186.064C278.048 186.134 278.319 186.168 278.583 186.168C280.156 186.168 281.531 184.984 281.712 183.376L293.896 190.135L280.388 225.284L276.749 234.751Z" fill="#C9AF71"/>
<path d="M256.797 155.54V174.505L269.665 176.693L293.896 190.135L275.346 238.4L299.95 253.594C302.885 255.406 306.631 253.228 306.551 249.779C306.478 246.672 306.048 242.893 304.796 239.011L321.334 196.359C325.133 186.561 320.945 175.472 311.615 170.633L278.982 153.707L256.797 155.54Z" fill="#20606F"/>
<path d="M275.346 238.4L299.95 253.594C302.885 255.406 306.631 253.228 306.551 249.779C306.478 246.672 306.048 242.893 304.796 239.011C304.796 239.011 291.376 236.196 280.388 225.284L275.346 238.4Z" fill="#399B77"/>
<path d="M256.797 174.505H249.504L229.647 198.077L236.674 245.732L211.389 257.084C208.94 258.184 206.175 256.465 206.038 253.784C205.856 250.191 206.155 245.368 208.265 241.15L202.416 196.149C201.673 190.43 203.627 184.692 207.704 180.614L234.611 153.707L256.797 155.539V174.505Z" fill="#20606F"/>
<path d="M236.674 245.732L234.198 228.936C221.335 242.992 208.265 241.15 208.265 241.15C206.155 245.368 205.856 250.191 206.038 253.784C206.175 256.465 208.94 258.184 211.39 257.084L236.674 245.732Z" fill="#399B77"/>
<path d="M321.334 196.359C321.337 196.35 321.341 196.34 321.345 196.332C321.341 196.341 321.337 196.35 321.334 196.359ZM321.348 196.323C321.35 196.317 321.352 196.311 321.355 196.304C321.353 196.31 321.35 196.318 321.348 196.323ZM321.359 196.293C321.361 196.288 321.364 196.282 321.366 196.277C321.363 196.282 321.361 196.287 321.359 196.293ZM321.369 196.267C321.372 196.261 321.374 196.255 321.376 196.248C321.374 196.255 321.372 196.261 321.369 196.267ZM321.38 196.238C321.382 196.232 321.385 196.226 321.387 196.22C321.385 196.226 321.382 196.232 321.38 196.238ZM321.391 196.21C321.393 196.204 321.395 196.199 321.397 196.193C321.395 196.199 321.393 196.204 321.391 196.21ZM321.402 196.182C321.405 196.176 321.406 196.171 321.409 196.165C321.407 196.17 321.404 196.176 321.402 196.182ZM321.412 196.155C321.414 196.149 321.417 196.143 321.419 196.137C321.417 196.143 321.415 196.149 321.412 196.155ZM321.423 196.127C321.425 196.12 321.428 196.113 321.43 196.108C321.428 196.114 321.425 196.12 321.423 196.127ZM321.433 196.099C321.435 196.093 321.437 196.087 321.44 196.081C321.437 196.087 321.435 196.093 321.433 196.099ZM321.444 196.07C321.45 196.052 321.457 196.035 321.463 196.017C321.457 196.034 321.45 196.053 321.444 196.07ZM321.469 196.002C321.47 195.997 321.472 195.992 321.474 195.988C321.472 195.992 321.47 195.997 321.469 196.002ZM321.478 195.975C321.48 195.97 321.482 195.966 321.483 195.961C321.482 195.966 321.48 195.97 321.478 195.975ZM321.489 195.946C321.49 195.942 321.492 195.938 321.493 195.934C321.492 195.937 321.49 195.943 321.489 195.946ZM321.499 195.917C321.5 195.914 321.502 195.911 321.503 195.908C321.501 195.911 321.501 195.914 321.499 195.917ZM321.509 195.889C321.51 195.887 321.512 195.884 321.512 195.881C321.512 195.883 321.51 195.887 321.509 195.889ZM321.519 195.861C321.52 195.859 321.521 195.857 321.522 195.854C321.521 195.856 321.52 195.859 321.519 195.861ZM321.53 195.833C321.531 195.832 321.531 195.83 321.532 195.829C321.531 195.831 321.531 195.831 321.53 195.833Z" fill="#FAFBFB"/>
<path d="M321.141 196.857C314.588 195.238 309.721 189.336 309.721 182.282C309.721 178.291 311.288 174.674 313.825 171.983C321.421 177.221 324.688 186.984 321.532 195.829C321.531 195.83 321.531 195.832 321.53 195.833C321.528 195.84 321.525 195.847 321.523 195.854C321.522 195.857 321.521 195.86 321.52 195.862C321.518 195.868 321.516 195.875 321.513 195.881C321.513 195.884 321.511 195.887 321.51 195.889C321.508 195.896 321.506 195.901 321.504 195.908C321.503 195.911 321.501 195.914 321.5 195.917C321.498 195.923 321.496 195.928 321.494 195.934C321.493 195.938 321.491 195.942 321.49 195.946C321.488 195.951 321.486 195.956 321.484 195.961C321.483 195.966 321.481 195.97 321.479 195.975C321.478 195.979 321.475 195.985 321.474 195.989C321.472 195.993 321.47 195.998 321.469 196.002C321.467 196.007 321.465 196.012 321.463 196.017C321.457 196.035 321.45 196.052 321.444 196.07C321.442 196.074 321.441 196.077 321.44 196.081C321.437 196.087 321.435 196.093 321.433 196.099C321.432 196.101 321.431 196.105 321.43 196.108C321.428 196.114 321.425 196.121 321.423 196.127C321.422 196.13 321.42 196.133 321.419 196.137C321.417 196.143 321.414 196.149 321.412 196.155C321.411 196.159 321.41 196.161 321.409 196.165C321.406 196.171 321.405 196.176 321.402 196.182C321.401 196.186 321.399 196.189 321.398 196.193C321.396 196.199 321.394 196.204 321.392 196.21C321.39 196.214 321.389 196.217 321.388 196.22C321.386 196.226 321.383 196.232 321.381 196.239C321.38 196.242 321.378 196.246 321.377 196.249C321.375 196.255 321.373 196.261 321.37 196.267C321.369 196.27 321.368 196.274 321.367 196.277C321.365 196.282 321.362 196.288 321.36 196.293C321.359 196.297 321.357 196.301 321.356 196.304C321.353 196.311 321.35 196.317 321.348 196.323C321.347 196.326 321.346 196.329 321.345 196.332C321.341 196.34 321.337 196.35 321.334 196.359L321.141 196.857Z" fill="#164B57"/>
<path d="M203.143 201.735L202.518 196.929L203.143 201.735Z" fill="#CEBA88"/>
<path d="M203.143 201.735L202.518 196.929C206.863 196.261 211.046 194.65 215.013 192.407C213.544 197.653 208.811 201.53 203.143 201.735Z" fill="#164B57"/>
<path d="M278.982 153.707L259.27 155.335C257.523 161.84 257.009 170.146 256.859 174.516L269.665 176.693L284.765 185.07C288.071 174.505 292.692 167.099 296.145 162.61L278.982 153.707Z" fill="#2A1D19"/>
<path d="M305.753 242.689C305.505 241.484 305.197 240.255 304.796 239.011C304.796 239.011 298.467 237.682 290.942 233.317C292.021 236.359 295.387 240.961 305.753 242.689Z" fill="#2A1D19"/>
<path d="M221.941 238.256C214.169 241.975 208.265 241.15 208.265 241.15C207.522 242.635 207.013 244.195 206.661 245.75C211.283 245.448 218.36 243.992 221.941 238.256Z" fill="#2A1D19"/>
<path d="M202.518 196.929L202.416 196.149C202.313 195.344 202.261 194.54 202.262 193.74C202.261 194.54 202.313 195.344 202.416 196.149L202.518 196.929Z" fill="#CEBA88"/>
<path d="M215.014 192.407C215.322 191.306 215.487 190.146 215.487 188.948C215.487 184.565 213.284 180.701 209.928 178.391L234.611 153.707C234.611 153.707 239.402 154.845 248.516 155.328C243.115 164.636 230.772 183.499 215.014 192.407Z" fill="#164B57"/>
<path d="M202.518 196.929L202.416 196.149C202.312 195.344 202.261 194.54 202.262 193.74C202.265 188.849 204.2 184.118 207.704 180.614C203.627 184.692 201.673 190.43 202.416 196.149L202.518 196.929Z" fill="#D3C39A"/>
<path d="M202.518 196.929L202.416 196.149C201.673 190.43 203.627 184.692 207.704 180.614L209.928 178.391C213.284 180.701 215.487 184.565 215.487 188.948C215.487 190.146 215.322 191.306 215.013 192.407C211.046 194.65 206.863 196.261 202.518 196.929Z" fill="#164B57"/>
<path d="M234.611 84.0581C234.611 84.0581 226.976 87.2656 222.851 96.8879C218.727 106.51 212.402 126.948 212.402 126.948L234.611 118.424V84.0581Z" fill="#C4787D"/>
<path d="M256.797 75.3519L234.611 84.058V153.707C234.611 153.707 242.325 155.539 256.797 155.539C271.268 155.539 278.982 153.707 278.982 153.707V84.058L256.797 75.3519Z" fill="#399B77"/>
<path d="M234.611 84.0582C234.611 84.0582 226.975 87.2657 222.85 96.888C221.603 99.8001 220.153 103.703 218.739 107.729C222.951 108.677 229.56 110.654 234.611 114.412V84.0582Z" fill="#2F765B"/>
<path d="M234.611 138.586V126.051L257.811 90.9398C257.877 90.838 257.943 90.7362 258.006 90.6334L234.611 138.586Z" fill="#225737"/>
<path d="M266.198 165.111C266.198 161.739 266.753 158.397 267.522 155.176C268.026 155.14 268.516 155.103 268.988 155.064C267.162 158.097 266.198 161.57 266.198 165.111Z" fill="#0D120C"/>
<path d="M267.522 155.177C268.837 149.673 270.777 144.524 271.631 140.187C272.955 133.466 271.691 104.431 271.633 103.13C271.737 104.64 271.88 105.594 271.88 105.594L278.982 138.586L269.023 155.005C269.011 155.024 268.999 155.044 268.988 155.064C268.516 155.103 268.026 155.14 267.522 155.177Z" fill="#225737"/>
<path d="M278.982 84.0581L279.095 84.1085C286.015 87.2151 290.861 93.6492 291.939 101.158L297.002 137.406C297.641 141.985 296.484 146.634 293.772 150.376L281.732 166.995V183.015C281.732 185.084 279.78 186.585 277.778 186.064C273.175 184.866 266.198 182.367 266.198 178.221V165.111C266.198 161.548 267.174 158.052 269.023 155.005L278.982 138.586L271.88 105.594C271.88 105.594 269.131 87.2655 278.982 84.0581Z" fill="#F18C8D"/>
<path d="M293.897 115.175L291.939 101.158C290.862 93.6493 286.015 87.2152 279.095 84.1086L278.982 84.0582C269.131 87.2656 271.88 105.594 271.88 105.594L274.398 117.286C278.398 115.831 285.384 114.071 293.897 115.175Z" fill="#4EC292"/>
<path d="M290.438 142.71C290.438 145.662 291.876 148.272 294.084 149.899C296.561 146.241 297.615 141.795 297.002 137.407L296.559 134.233C293.004 135.414 290.438 138.759 290.438 142.71Z" fill="#E66466"/>
<path d="M279.368 138.833L283.098 133.028L282.327 132.532L278.597 138.338" fill="#8A2B33"/>
<path d="M256.846 82.5107H256.74C253.84 82.5107 251.49 80.1601 251.49 77.2611V68.5288H262.096V77.2611C262.096 80.1601 259.745 82.5107 256.846 82.5107Z" fill="#F18C8D"/>
<path d="M264.392 61.2218C264.392 61.2218 265.729 59.6886 265.729 56.8249C265.729 53.9602 266.32 48.0684 262.096 45.6139C257.873 43.1584 249.445 39.3946 250.754 42.5032C252.062 45.6139 251.081 45.2047 248.217 45.122C245.352 45.0404 245.927 54.9248 248.217 58.7885C250.507 62.6532 264.392 61.2218 264.392 61.2218Z" fill="#3F2B24"/>
<path d="M251.49 61.6121C251.49 63.1715 250.354 64.4355 248.953 64.4355C247.552 64.4355 246.417 63.1715 246.417 61.6121C246.417 60.0527 247.552 58.7887 248.953 58.7887C250.354 58.7887 251.49 60.0527 251.49 61.6121Z" fill="#F18C8D"/>
<path d="M262.096 61.6121C262.096 63.1715 263.232 64.4355 264.633 64.4355C266.034 64.4355 267.17 63.1715 267.17 61.6121C267.17 60.0527 266.034 58.7887 264.633 58.7887C263.232 58.7887 262.096 60.0527 262.096 61.6121Z" fill="#F18C8D"/>
<path d="M256.87 73.0588H256.718C252.563 73.0588 249.195 69.6901 249.195 65.5351V54.8554C249.195 51.8344 251.643 49.385 254.665 49.385H258.922C261.943 49.385 264.392 51.8344 264.392 54.8554V65.5351C264.392 69.6901 261.024 73.0588 256.87 73.0588Z" fill="#F18C8D"/>
<path d="M251.49 68.5289V77.2612C251.49 77.4064 251.5 77.5495 251.512 77.6917C258.4 77.6544 262.096 70.939 262.096 70.939L256.235 68.5289H251.49Z" fill="#8A2B33"/>
<path d="M253.945 58.3795C253.945 58.9671 253.688 59.4429 253.372 59.4429C253.055 59.4429 252.799 58.9671 252.799 58.3795C252.799 57.7918 253.055 57.316 253.372 57.316C253.688 57.316 253.945 57.7918 253.945 58.3795Z" fill="#3F2B24"/>
<path d="M255.043 54.4471C255.01 54.434 254.13 54.0066 253.015 54.0026C252.458 54.0016 251.832 54.1155 251.251 54.4693C251.035 54.6013 250.967 54.8836 251.099 55.0993C251.231 55.316 251.513 55.3835 251.729 55.2515C252.13 55.0065 252.578 54.9188 253.015 54.9188C253.451 54.9178 253.868 55.0075 254.171 55.0993C254.323 55.1446 254.447 55.191 254.529 55.2242L254.623 55.2626L254.648 55.2746C254.876 55.3835 255.149 55.2867 255.259 55.0579C255.368 54.8301 255.271 54.5559 255.043 54.4471Z" fill="#3F2B24"/>
<path d="M259.642 58.3795C259.642 58.9671 259.898 59.4429 260.214 59.4429C260.531 59.4429 260.788 58.9671 260.788 58.3795C260.788 57.7918 260.531 57.316 260.214 57.316C259.898 57.316 259.642 57.7918 259.642 58.3795Z" fill="#3F2B24"/>
<path d="M258.939 55.2746L258.964 55.2626C259.104 55.1991 259.809 54.9158 260.572 54.9188C261.009 54.9188 261.456 55.0065 261.857 55.2515C262.073 55.3835 262.355 55.316 262.487 55.0993C262.619 54.8836 262.552 54.6013 262.335 54.4693C261.754 54.1155 261.128 54.0026 260.572 54.0026C259.456 54.0066 258.577 54.434 258.544 54.4471C258.315 54.5569 258.218 54.8301 258.328 55.0579C258.437 55.2867 258.711 55.3835 258.939 55.2746Z" fill="#3F2B24"/>
<path d="M260.214 64.1894C256.793 63.6582 258.169 63.6582 256.793 63.6582C255.418 63.6582 256.793 63.6582 253.372 64.1894C249.951 64.7216 249.195 58.7886 249.195 58.7886V65.5351C249.195 69.6901 252.563 73.0588 256.718 73.0588H256.793H256.87C261.024 73.0588 264.392 69.6901 264.392 65.5351V58.7886C264.392 58.7886 263.635 64.7216 260.214 64.1894Z" fill="#3F2B24"/>
<path d="M213.052 125.881L253.794 69.3513C254.306 68.6407 255.322 68.5308 255.975 69.1165L255.996 69.1346C256.472 69.562 256.619 70.2495 256.357 70.8351L253.809 76.5233L256.17 78.6037C259.718 81.7306 260.418 86.9944 257.811 90.9397L227.925 136.169C224.977 140.631 218.8 141.529 214.704 138.093L214.562 137.974C210.968 134.96 210.31 129.685 213.052 125.881Z" fill="#F18C8D"/>
<path d="M214.259 128.046C213.413 128.046 212.594 128.158 211.806 128.349C210.705 131.735 211.697 135.572 214.562 137.974L214.703 138.093C217.606 140.527 221.548 140.776 224.65 139.134C224.664 138.913 224.684 138.695 224.684 138.471C224.684 132.713 220.017 128.046 214.259 128.046Z" fill="#E66466"/>
<path d="M271.069 183.893H271.986V171.983H271.069V183.893Z" fill="#8A2B33"/>
<path d="M291.939 101.158C291.937 101.144 291.935 101.131 291.933 101.118C291.935 101.131 291.937 101.145 291.939 101.158ZM291.932 101.107C291.93 101.096 291.929 101.086 291.927 101.075C291.929 101.086 291.93 101.097 291.932 101.107ZM291.926 101.067C291.924 101.054 291.922 101.041 291.92 101.028C291.922 101.041 291.924 101.054 291.926 101.067ZM291.919 101.02C291.917 101.01 291.916 100.998 291.914 100.988C291.916 100.998 291.917 101.01 291.919 101.02ZM291.912 100.976C291.911 100.964 291.909 100.953 291.907 100.942C291.909 100.953 291.911 100.964 291.912 100.976ZM291.906 100.936C291.905 100.924 291.903 100.912 291.901 100.901C291.903 100.912 291.905 100.924 291.906 100.936ZM291.897 100.884C291.896 100.876 291.895 100.87 291.894 100.863C291.895 100.87 291.896 100.876 291.897 100.884ZM291.891 100.843C291.891 100.842 291.891 100.841 291.891 100.84C291.891 100.841 291.891 100.842 291.891 100.843ZM291.882 100.783C291.881 100.782 291.881 100.78 291.881 100.779C291.881 100.78 291.881 100.782 291.882 100.783Z" fill="#F6E0A7"/>
<path d="M281.732 166.995C281.732 166.995 289.275 148.605 285.02 122.794C284.57 120.065 284.216 117.496 283.941 115.08C285.383 114.922 286.917 114.828 288.531 114.828C290.236 114.828 292.03 114.933 293.896 115.175L291.939 101.158L297.002 137.407L296.559 134.233C293.004 135.414 290.438 138.759 290.438 142.71C290.438 145.662 291.876 148.272 294.084 149.899C296.535 146.276 297.594 141.883 297.019 137.536C297.123 138.316 297.173 139.097 297.174 139.876C297.175 143.626 295.996 147.306 293.771 150.376L281.732 166.995ZM297.019 137.533C297.018 137.525 297.017 137.518 297.016 137.51C297.017 137.518 297.018 137.525 297.019 137.533ZM297.014 137.499C297.014 137.494 297.013 137.49 297.013 137.486C297.013 137.49 297.014 137.495 297.014 137.499ZM297.01 137.469C297.01 137.466 297.01 137.463 297.009 137.459C297.009 137.462 297.01 137.466 297.01 137.469ZM297.007 137.445C297.007 137.441 297.006 137.437 297.005 137.433C297.006 137.437 297.007 137.441 297.007 137.445Z" fill="#F6B6B7"/>
<path d="M293.896 115.175C292.03 114.933 290.236 114.828 288.531 114.828C286.917 114.828 285.383 114.922 283.941 115.08C282.258 100.282 283.58 91.3248 284.436 87.5105C288.358 90.8772 291.039 95.5523 291.881 100.779C291.881 100.78 291.881 100.782 291.882 100.783C291.885 100.802 291.888 100.821 291.892 100.84C291.892 100.841 291.892 100.842 291.892 100.843C291.893 100.85 291.894 100.856 291.895 100.863C291.896 100.87 291.897 100.877 291.898 100.884C291.899 100.89 291.9 100.895 291.901 100.901C291.903 100.912 291.905 100.924 291.906 100.936C291.907 100.938 291.907 100.94 291.907 100.942C291.909 100.953 291.911 100.964 291.912 100.976C291.913 100.98 291.914 100.984 291.914 100.988C291.916 100.999 291.917 101.01 291.919 101.02C291.919 101.023 291.92 101.025 291.92 101.028C291.922 101.041 291.924 101.054 291.926 101.067C291.926 101.07 291.927 101.072 291.927 101.075C291.929 101.086 291.93 101.096 291.932 101.107C291.932 101.111 291.933 101.114 291.933 101.118C291.935 101.132 291.937 101.144 291.939 101.158L293.896 115.175Z" fill="#68CBB0"/>
<path d="M294.084 149.899C291.876 148.272 290.438 145.662 290.438 142.71C290.438 138.759 293.004 135.414 296.559 134.233L297.002 137.407C297.003 137.416 297.004 137.424 297.005 137.433C297.006 137.437 297.007 137.441 297.007 137.445C297.008 137.45 297.008 137.454 297.009 137.459C297.01 137.463 297.01 137.466 297.01 137.469C297.011 137.475 297.012 137.48 297.013 137.486C297.013 137.49 297.014 137.494 297.014 137.499C297.015 137.503 297.016 137.507 297.016 137.51C297.017 137.518 297.018 137.525 297.019 137.533C297.019 137.534 297.019 137.535 297.019 137.536C297.594 141.883 296.535 146.276 294.084 149.899Z" fill="#EF968A"/>
<path d="M264.39 65.6985C264.39 65.6955 264.39 65.6924 264.39 65.6904C264.39 65.6924 264.39 65.6955 264.39 65.6985ZM264.39 65.6753C264.391 65.6703 264.391 65.6662 264.391 65.6612C264.391 65.6652 264.391 65.6703 264.39 65.6753ZM264.391 65.6511C264.391 65.6471 264.391 65.643 264.391 65.638C264.391 65.642 264.391 65.6471 264.391 65.6511ZM264.391 65.6319C264.391 65.6249 264.391 65.6189 264.391 65.6118C264.391 65.6189 264.391 65.6249 264.391 65.6319ZM264.391 65.6047C264.391 65.5987 264.392 65.5927 264.392 65.5866C264.392 65.5927 264.391 65.5987 264.391 65.6047ZM264.392 65.5836C264.392 65.5765 264.392 65.5695 264.392 65.5624C264.392 65.5695 264.392 65.5765 264.392 65.5836ZM264.392 65.5574C264.392 65.5503 264.392 65.5432 264.392 65.5352V64.4223V65.5352C264.392 65.5432 264.392 65.5503 264.392 65.5574ZM267.17 61.6121C267.17 61.607 267.17 61.6009 267.17 61.5959C267.17 61.6009 267.17 61.607 267.17 61.6121ZM267.17 61.5899C267.17 61.5868 267.17 61.5828 267.17 61.5788C267.17 61.5828 267.17 61.5868 267.17 61.5899ZM267.169 61.5717C267.169 61.5687 267.169 61.5657 267.169 61.5627C267.169 61.5657 267.169 61.5687 267.169 61.5717ZM267.169 61.5546C267.169 61.5526 267.169 61.5495 267.169 61.5475C267.169 61.5495 267.169 61.5526 267.169 61.5546ZM267.169 61.5274V61.5254C267.169 61.5254 267.169 61.5264 267.169 61.5274ZM267.168 61.5123C267.168 61.5113 267.168 61.5113 267.168 61.5103C267.168 61.5113 267.168 61.5113 267.168 61.5123Z" fill="#F6E0A7"/>
<path d="M265.729 56.8462C265.729 56.8452 265.729 56.8441 265.729 56.8431C265.729 56.8441 265.729 56.8452 265.729 56.8462ZM265.757 54.5782C265.757 51.8425 265.463 48.3054 262.98 46.2319C265.463 48.3054 265.757 51.8425 265.757 54.5782Z" fill="#EED45F"/>
<path d="M265.457 58.9407C265.199 58.8419 264.921 58.7885 264.633 58.7885C264.551 58.7885 264.472 58.7935 264.392 58.8016V58.7885V54.8553C264.392 52.4905 262.891 50.4765 260.791 49.7125C261.446 48.7135 261.771 47.016 261.934 45.5201L262.096 45.6139C262.418 45.8004 262.712 46.007 262.98 46.2318C265.463 48.3053 265.757 51.8424 265.757 54.5781C265.757 55.4268 265.729 56.1979 265.729 56.8249C265.729 56.831 265.729 56.837 265.729 56.843C265.729 56.844 265.729 56.8451 265.729 56.8461C265.727 57.6575 265.613 58.349 265.457 58.9407Z" fill="#5D4035"/>
<path d="M264.634 64.4355L264.393 64.4083V64.4224V58.8018C264.472 58.7938 264.552 58.7887 264.634 58.7887C264.922 58.7887 265.199 58.8421 265.457 58.9409C265.456 58.9449 265.455 58.949 265.454 58.953C266.423 59.324 267.13 60.3179 267.169 61.5103C267.169 61.5113 267.169 61.5113 267.169 61.5123C267.169 61.5164 267.169 61.5204 267.17 61.5254V61.5275C267.17 61.5345 267.17 61.5405 267.17 61.5476C267.17 61.5496 267.17 61.5527 267.17 61.5547C267.17 61.5577 267.17 61.5597 267.17 61.5627C267.17 61.5658 267.17 61.5688 267.17 61.5718C267.17 61.5748 267.171 61.5768 267.171 61.5788C267.171 61.5829 267.171 61.5869 267.171 61.5899C267.171 61.5919 267.171 61.594 267.171 61.596C267.171 61.601 267.171 61.6071 267.171 61.6121C267.171 63.1715 266.035 64.4355 264.634 64.4355Z" fill="#F6B6B7"/>
<path d="M260.641 64.2236C260.504 64.2236 260.362 64.2125 260.214 64.1893C259.616 64.0966 259.163 64.02 258.817 63.9565C258.786 60.9396 259.155 57.7018 259.596 55.0498C259.873 54.9792 260.21 54.9188 260.562 54.9188C260.565 54.9188 260.569 54.9188 260.572 54.9188C261.01 54.9188 261.456 55.0065 261.857 55.2514C261.932 55.2978 262.015 55.3189 262.096 55.3189C262.251 55.3189 262.402 55.2413 262.487 55.0992C262.619 54.8835 262.552 54.6013 262.335 54.4692C261.755 54.1154 261.129 54.0025 260.572 54.0025C260.284 54.0035 260.012 54.0327 259.766 54.0751C260.15 51.9694 260.557 50.3546 260.788 49.7185C260.789 49.7165 260.79 49.7145 260.791 49.7125C262.892 50.4765 264.393 52.4905 264.393 54.8553V58.7885C264.393 58.7885 263.699 64.2236 260.641 64.2236ZM260.214 57.3158C259.898 57.3158 259.642 57.7916 259.642 58.3793C259.642 58.9669 259.898 59.4427 260.214 59.4427C260.531 59.4427 260.788 58.9669 260.788 58.3793C260.788 57.7916 260.531 57.3158 260.214 57.3158Z" fill="#F6B6B7"/>
<path d="M260.214 59.4429C259.898 59.4429 259.642 58.9671 259.642 58.3795C259.642 57.7918 259.898 57.316 260.214 57.316C260.531 57.316 260.788 57.7918 260.788 58.3795C260.788 58.9671 260.531 59.4429 260.214 59.4429Z" fill="#5D4035"/>
<path d="M262.096 55.3191C262.014 55.3191 261.932 55.2979 261.857 55.2516C261.456 55.0066 261.009 54.9189 260.572 54.9189C260.569 54.9189 260.565 54.9189 260.562 54.9189C260.21 54.9189 259.872 54.9794 259.596 55.05C259.652 54.7153 259.708 54.3897 259.766 54.0752C260.011 54.0329 260.284 54.0037 260.572 54.0027C261.128 54.0027 261.754 54.1156 262.335 54.4694C262.552 54.6014 262.619 54.8837 262.487 55.0994C262.401 55.2415 262.25 55.3191 262.096 55.3191Z" fill="#5D4035"/>
<path d="M260.76 71.9641C259.359 70.2465 258.852 67.2326 258.817 63.9566C259.163 64.0201 259.615 64.0966 260.214 64.1894C260.361 64.2126 260.503 64.2237 260.64 64.2237C263.699 64.2237 264.392 58.7885 264.392 58.7885V58.8016V64.4222V65.5351C264.392 65.5431 264.392 65.5502 264.392 65.5573C264.392 65.5593 264.392 65.5603 264.392 65.5623C264.392 65.5693 264.392 65.5764 264.392 65.5834C264.392 65.5845 264.392 65.5855 264.392 65.5865C264.392 65.5925 264.391 65.5986 264.391 65.6046C264.391 65.6066 264.391 65.6097 264.391 65.6117C264.391 65.6188 264.391 65.6248 264.391 65.6318C264.391 65.6338 264.391 65.6359 264.391 65.6379C264.391 65.6429 264.391 65.6469 264.391 65.651C264.391 65.655 264.391 65.658 264.391 65.6611C264.391 65.6661 264.391 65.6701 264.39 65.6752C264.39 65.6802 264.39 65.6853 264.39 65.6903C264.39 65.6923 264.39 65.6953 264.39 65.6984C264.334 68.3585 262.891 70.6719 260.76 71.9641Z" fill="#5D4035"/>
<path d="M230.165 132.78L234.611 126.051L230.165 132.78Z" fill="#F6E0A7"/>
<path d="M258.006 90.6333C259.595 88.0175 259.783 84.8786 258.697 82.1752C259.783 84.8786 259.595 88.0175 258.006 90.6333Z" fill="#49C09C"/>
<path d="M234.611 126.051L257.811 90.9396C257.877 90.8378 257.943 90.736 258.006 90.6332C257.943 90.736 257.877 90.8378 257.811 90.9396L234.611 126.051Z" fill="#2E8252"/>
<path d="M258.697 82.1753C258.206 80.9536 257.454 79.8206 256.454 78.865C257.454 79.8206 258.206 80.9536 258.697 82.1753Z" fill="#F6B6B7"/>
<path d="M230.165 132.78C228.849 113.609 256.17 78.6038 256.17 78.6038C256.267 78.6895 256.362 78.7772 256.454 78.8649C257.454 79.8205 258.206 80.9535 258.697 82.1752C259.783 84.8786 259.595 88.0175 258.006 90.6333C257.943 90.7361 257.878 90.8379 257.811 90.9397L234.611 126.051L230.165 132.78Z" fill="#F6B6B7"/>
<path d="M259.865 115.445C256.471 122.812 242.053 136.248 234.611 142.886V153.707C259.715 146.628 264.492 105.405 259.865 115.445Z" fill="#4EC292"/>
<path d="M257.293 167.479H256.797V166.471H257.389C257.355 166.811 257.323 167.148 257.293 167.479Z" fill="#7D2A23"/>
<path d="M226.174 235.581L221.413 196.687L249.283 166.471H256.797V167.479H249.725L222.47 197.027L227.144 235.202C226.99 235.309 226.839 235.414 226.687 235.518L226.174 235.581Z" fill="#7D2A23"/>
<path d="M226.687 235.518C226.839 235.414 226.99 235.309 227.144 235.202L227.175 235.459L226.687 235.518Z" fill="#306652"/>
<path d="M259.642 167.479H257.293C257.323 167.148 257.355 166.811 257.389 166.471H259.642V167.479Z" fill="#2A1D19"/>
<path d="M286.3 230.122L285.819 229.948C285.681 229.845 285.542 229.741 285.404 229.636L301.145 186.38L287.404 177.85C287.537 177.534 287.671 177.221 287.806 176.913L302.372 185.956L286.3 230.122Z" fill="#7D2A23"/>
<path d="M285.819 229.948L285.353 229.778L285.404 229.637C285.542 229.741 285.681 229.845 285.819 229.948Z" fill="#306652"/>
<path d="M287.404 177.851L284.014 175.746H284.015L284.546 174.89L287.806 176.913C287.671 177.222 287.537 177.534 287.404 177.851Z" fill="#2A1D19"/>
</g>
<defs>
<clipPath id="clip0_63_691">
<rect width="504" height="504" fill="white"/>
</clipPath>
</defs>
</svg>
